M48
; DRILL file {KiCad 8.0.6} date 2024-11-25T23:55:28-0500
; FORMAT={-:-/ absolute / inch / decimal}
; #@! TF.CreationDate,2024-11-25T23:55:28-05:00
; #@! TF.GenerationSoftware,Kicad,Pcbnew,8.0.6
; #@! TF.FileFunction,Plated,1,4,PTH
FMAT,2
INCH
; #@! TA.AperFunction,Plated,PTH,ViaDrill
T1C0.0118
; #@! TA.AperFunction,Plated,PTH,ComponentDrill
T2C0.0256
; #@! TA.AperFunction,Plated,PTH,ComponentDrill
T3C0.0276
; #@! TA.AperFunction,Plated,PTH,ComponentDrill
T4C0.0394
%
G90
G05
T1
X3.626Y-4.1024
X3.6811Y-3.5709
X3.7638Y-4.626
X3.9567Y-3.1181
X4.0945Y-5.1496
X4.1181Y-5.0433
X4.34Y-4.53
X4.4055Y-2.8031
X4.45Y-4.58
X4.5079Y-4.4764
X4.5118Y-4.3583
X4.563Y-4.3583
X4.5709Y-4.4764
X4.5787Y-5.2953
X4.74Y-4.53
X4.8071Y-2.6024
X4.811Y-3.6142
X4.815Y-3.1929
X4.8504Y-3.8701
X4.89Y-3.87
X4.8937Y-2.6417
X4.8937Y-4.0472
X4.9055Y-3.2323
X4.9291Y-3.9488
X4.9331Y-2.3346
X4.9331Y-2.5157
X4.9882Y-3.4961
X5.0Y-3.89
X5.0408Y-3.9631
X5.0551Y-2.2638
X5.0669Y-2.3346
X5.0669Y-2.5118
X5.0787Y-3.8986
X5.0861Y-3.8514
X5.1063Y-5.3071
X5.1457Y-4.0748
X5.1654Y-4.6929
X5.1969Y-2.6142
X5.1969Y-3.9016
X5.2087Y-3.7244
X5.2756Y-3.2913
X5.3189Y-3.374
X5.3268Y-3.9016
X5.3346Y-3.7047
X5.3543Y-3.1299
X5.3543Y-4.2598
X5.3937Y-3.4606
X5.4173Y-2.6693
X5.4528Y-3.4606
X5.4685Y-3.0
X5.4843Y-4.0394
X5.4946Y-3.8858
X5.5118Y-3.4606
X5.534Y-3.8452
X5.5433Y-3.4606
X5.626Y-4.0472
X5.6299Y-5.1969
X5.6417Y-3.1693
X5.689Y-3.4606
X5.689Y-4.2559
X5.7205Y-3.4409
X5.7441Y-5.311
X5.748Y-3.4606
X5.748Y-4.2559
X5.7717Y-4.315
X5.7795Y-3.4409
X5.8071Y-3.4606
X5.8346Y-3.4409
X5.8445Y-4.5886
X5.8661Y-3.4606
X5.8661Y-3.937
X5.8858Y-2.9528
X5.9134Y-3.8969
X5.9567Y-3.7598
X6.0433Y-4.8819
X6.1929Y-3.374
X6.2756Y-4.4173
X6.3425Y-3.8819
T4
X5.05Y-4.76
X5.05Y-4.86
X5.05Y-4.96
X5.6307Y-4.6756
X5.6307Y-4.7756
X5.6307Y-4.8756
T2
G00X4.9057Y-2.1795
M15
G01X4.9057Y-2.1953
M16
G05
G00X5.0963Y-2.1795
M15
G01X5.0963Y-2.1953
M16
G05
T3
G00X4.8935Y-2.0594
M15
G01X4.8935Y-2.0791
M16
G05
G00X5.1085Y-2.0594
M15
G01X5.1085Y-2.0791
M16
G05
M30
