%TF.GenerationSoftware,KiCad,Pcbnew,8.0.6*%
%TF.CreationDate,2024-11-25T23:55:31-05:00*%
%TF.ProjectId,Christmas Ornament 2024,43687269-7374-46d6-9173-204f726e616d,rev?*%
%TF.SameCoordinates,Original*%
%TF.FileFunction,Legend,Bot*%
%TF.FilePolarity,Positive*%
%FSLAX46Y46*%
G04 Gerber Fmt 4.6, Leading zero omitted, Abs format (unit mm)*
G04 Created by KiCad (PCBNEW 8.0.6) date 2024-11-25 23:55:31*
%MOMM*%
%LPD*%
G01*
G04 APERTURE LIST*
%ADD10C,0.250000*%
%ADD11C,0.150000*%
%ADD12C,0.120000*%
G04 APERTURE END LIST*
D10*
X140821241Y-76020655D02*
X140892669Y-76092084D01*
X140892669Y-76092084D02*
X141106955Y-76163512D01*
X141106955Y-76163512D02*
X141249812Y-76163512D01*
X141249812Y-76163512D02*
X141464098Y-76092084D01*
X141464098Y-76092084D02*
X141606955Y-75949226D01*
X141606955Y-75949226D02*
X141678384Y-75806369D01*
X141678384Y-75806369D02*
X141749812Y-75520655D01*
X141749812Y-75520655D02*
X141749812Y-75306369D01*
X141749812Y-75306369D02*
X141678384Y-75020655D01*
X141678384Y-75020655D02*
X141606955Y-74877798D01*
X141606955Y-74877798D02*
X141464098Y-74734941D01*
X141464098Y-74734941D02*
X141249812Y-74663512D01*
X141249812Y-74663512D02*
X141106955Y-74663512D01*
X141106955Y-74663512D02*
X140892669Y-74734941D01*
X140892669Y-74734941D02*
X140821241Y-74806369D01*
X140178384Y-76163512D02*
X140178384Y-74663512D01*
X139535527Y-76163512D02*
X139535527Y-75377798D01*
X139535527Y-75377798D02*
X139606955Y-75234941D01*
X139606955Y-75234941D02*
X139749812Y-75163512D01*
X139749812Y-75163512D02*
X139964098Y-75163512D01*
X139964098Y-75163512D02*
X140106955Y-75234941D01*
X140106955Y-75234941D02*
X140178384Y-75306369D01*
X138821241Y-76163512D02*
X138821241Y-75163512D01*
X138821241Y-75449226D02*
X138749812Y-75306369D01*
X138749812Y-75306369D02*
X138678384Y-75234941D01*
X138678384Y-75234941D02*
X138535526Y-75163512D01*
X138535526Y-75163512D02*
X138392669Y-75163512D01*
X137892670Y-76163512D02*
X137892670Y-75163512D01*
X137892670Y-74663512D02*
X137964098Y-74734941D01*
X137964098Y-74734941D02*
X137892670Y-74806369D01*
X137892670Y-74806369D02*
X137821241Y-74734941D01*
X137821241Y-74734941D02*
X137892670Y-74663512D01*
X137892670Y-74663512D02*
X137892670Y-74806369D01*
X137249812Y-76092084D02*
X137106955Y-76163512D01*
X137106955Y-76163512D02*
X136821241Y-76163512D01*
X136821241Y-76163512D02*
X136678384Y-76092084D01*
X136678384Y-76092084D02*
X136606955Y-75949226D01*
X136606955Y-75949226D02*
X136606955Y-75877798D01*
X136606955Y-75877798D02*
X136678384Y-75734941D01*
X136678384Y-75734941D02*
X136821241Y-75663512D01*
X136821241Y-75663512D02*
X137035527Y-75663512D01*
X137035527Y-75663512D02*
X137178384Y-75592084D01*
X137178384Y-75592084D02*
X137249812Y-75449226D01*
X137249812Y-75449226D02*
X137249812Y-75377798D01*
X137249812Y-75377798D02*
X137178384Y-75234941D01*
X137178384Y-75234941D02*
X137035527Y-75163512D01*
X137035527Y-75163512D02*
X136821241Y-75163512D01*
X136821241Y-75163512D02*
X136678384Y-75234941D01*
X136178383Y-75163512D02*
X135606955Y-75163512D01*
X135964098Y-74663512D02*
X135964098Y-75949226D01*
X135964098Y-75949226D02*
X135892669Y-76092084D01*
X135892669Y-76092084D02*
X135749812Y-76163512D01*
X135749812Y-76163512D02*
X135606955Y-76163512D01*
X135106955Y-76163512D02*
X135106955Y-75163512D01*
X135106955Y-75306369D02*
X135035526Y-75234941D01*
X135035526Y-75234941D02*
X134892669Y-75163512D01*
X134892669Y-75163512D02*
X134678383Y-75163512D01*
X134678383Y-75163512D02*
X134535526Y-75234941D01*
X134535526Y-75234941D02*
X134464098Y-75377798D01*
X134464098Y-75377798D02*
X134464098Y-76163512D01*
X134464098Y-75377798D02*
X134392669Y-75234941D01*
X134392669Y-75234941D02*
X134249812Y-75163512D01*
X134249812Y-75163512D02*
X134035526Y-75163512D01*
X134035526Y-75163512D02*
X133892669Y-75234941D01*
X133892669Y-75234941D02*
X133821240Y-75377798D01*
X133821240Y-75377798D02*
X133821240Y-76163512D01*
X132464098Y-76163512D02*
X132464098Y-75377798D01*
X132464098Y-75377798D02*
X132535526Y-75234941D01*
X132535526Y-75234941D02*
X132678383Y-75163512D01*
X132678383Y-75163512D02*
X132964098Y-75163512D01*
X132964098Y-75163512D02*
X133106955Y-75234941D01*
X132464098Y-76092084D02*
X132606955Y-76163512D01*
X132606955Y-76163512D02*
X132964098Y-76163512D01*
X132964098Y-76163512D02*
X133106955Y-76092084D01*
X133106955Y-76092084D02*
X133178383Y-75949226D01*
X133178383Y-75949226D02*
X133178383Y-75806369D01*
X133178383Y-75806369D02*
X133106955Y-75663512D01*
X133106955Y-75663512D02*
X132964098Y-75592084D01*
X132964098Y-75592084D02*
X132606955Y-75592084D01*
X132606955Y-75592084D02*
X132464098Y-75520655D01*
X131821240Y-76092084D02*
X131678383Y-76163512D01*
X131678383Y-76163512D02*
X131392669Y-76163512D01*
X131392669Y-76163512D02*
X131249812Y-76092084D01*
X131249812Y-76092084D02*
X131178383Y-75949226D01*
X131178383Y-75949226D02*
X131178383Y-75877798D01*
X131178383Y-75877798D02*
X131249812Y-75734941D01*
X131249812Y-75734941D02*
X131392669Y-75663512D01*
X131392669Y-75663512D02*
X131606955Y-75663512D01*
X131606955Y-75663512D02*
X131749812Y-75592084D01*
X131749812Y-75592084D02*
X131821240Y-75449226D01*
X131821240Y-75449226D02*
X131821240Y-75377798D01*
X131821240Y-75377798D02*
X131749812Y-75234941D01*
X131749812Y-75234941D02*
X131606955Y-75163512D01*
X131606955Y-75163512D02*
X131392669Y-75163512D01*
X131392669Y-75163512D02*
X131249812Y-75234941D01*
X129106954Y-74663512D02*
X128821240Y-74663512D01*
X128821240Y-74663512D02*
X128678383Y-74734941D01*
X128678383Y-74734941D02*
X128535526Y-74877798D01*
X128535526Y-74877798D02*
X128464097Y-75163512D01*
X128464097Y-75163512D02*
X128464097Y-75663512D01*
X128464097Y-75663512D02*
X128535526Y-75949226D01*
X128535526Y-75949226D02*
X128678383Y-76092084D01*
X128678383Y-76092084D02*
X128821240Y-76163512D01*
X128821240Y-76163512D02*
X129106954Y-76163512D01*
X129106954Y-76163512D02*
X129249812Y-76092084D01*
X129249812Y-76092084D02*
X129392669Y-75949226D01*
X129392669Y-75949226D02*
X129464097Y-75663512D01*
X129464097Y-75663512D02*
X129464097Y-75163512D01*
X129464097Y-75163512D02*
X129392669Y-74877798D01*
X129392669Y-74877798D02*
X129249812Y-74734941D01*
X129249812Y-74734941D02*
X129106954Y-74663512D01*
X127821240Y-76163512D02*
X127821240Y-75163512D01*
X127821240Y-75449226D02*
X127749811Y-75306369D01*
X127749811Y-75306369D02*
X127678383Y-75234941D01*
X127678383Y-75234941D02*
X127535525Y-75163512D01*
X127535525Y-75163512D02*
X127392668Y-75163512D01*
X126892669Y-75163512D02*
X126892669Y-76163512D01*
X126892669Y-75306369D02*
X126821240Y-75234941D01*
X126821240Y-75234941D02*
X126678383Y-75163512D01*
X126678383Y-75163512D02*
X126464097Y-75163512D01*
X126464097Y-75163512D02*
X126321240Y-75234941D01*
X126321240Y-75234941D02*
X126249812Y-75377798D01*
X126249812Y-75377798D02*
X126249812Y-76163512D01*
X124892669Y-76163512D02*
X124892669Y-75377798D01*
X124892669Y-75377798D02*
X124964097Y-75234941D01*
X124964097Y-75234941D02*
X125106954Y-75163512D01*
X125106954Y-75163512D02*
X125392669Y-75163512D01*
X125392669Y-75163512D02*
X125535526Y-75234941D01*
X124892669Y-76092084D02*
X125035526Y-76163512D01*
X125035526Y-76163512D02*
X125392669Y-76163512D01*
X125392669Y-76163512D02*
X125535526Y-76092084D01*
X125535526Y-76092084D02*
X125606954Y-75949226D01*
X125606954Y-75949226D02*
X125606954Y-75806369D01*
X125606954Y-75806369D02*
X125535526Y-75663512D01*
X125535526Y-75663512D02*
X125392669Y-75592084D01*
X125392669Y-75592084D02*
X125035526Y-75592084D01*
X125035526Y-75592084D02*
X124892669Y-75520655D01*
X124178383Y-76163512D02*
X124178383Y-75163512D01*
X124178383Y-75306369D02*
X124106954Y-75234941D01*
X124106954Y-75234941D02*
X123964097Y-75163512D01*
X123964097Y-75163512D02*
X123749811Y-75163512D01*
X123749811Y-75163512D02*
X123606954Y-75234941D01*
X123606954Y-75234941D02*
X123535526Y-75377798D01*
X123535526Y-75377798D02*
X123535526Y-76163512D01*
X123535526Y-75377798D02*
X123464097Y-75234941D01*
X123464097Y-75234941D02*
X123321240Y-75163512D01*
X123321240Y-75163512D02*
X123106954Y-75163512D01*
X123106954Y-75163512D02*
X122964097Y-75234941D01*
X122964097Y-75234941D02*
X122892668Y-75377798D01*
X122892668Y-75377798D02*
X122892668Y-76163512D01*
X121606954Y-76092084D02*
X121749811Y-76163512D01*
X121749811Y-76163512D02*
X122035526Y-76163512D01*
X122035526Y-76163512D02*
X122178383Y-76092084D01*
X122178383Y-76092084D02*
X122249811Y-75949226D01*
X122249811Y-75949226D02*
X122249811Y-75377798D01*
X122249811Y-75377798D02*
X122178383Y-75234941D01*
X122178383Y-75234941D02*
X122035526Y-75163512D01*
X122035526Y-75163512D02*
X121749811Y-75163512D01*
X121749811Y-75163512D02*
X121606954Y-75234941D01*
X121606954Y-75234941D02*
X121535526Y-75377798D01*
X121535526Y-75377798D02*
X121535526Y-75520655D01*
X121535526Y-75520655D02*
X122249811Y-75663512D01*
X120892669Y-75163512D02*
X120892669Y-76163512D01*
X120892669Y-75306369D02*
X120821240Y-75234941D01*
X120821240Y-75234941D02*
X120678383Y-75163512D01*
X120678383Y-75163512D02*
X120464097Y-75163512D01*
X120464097Y-75163512D02*
X120321240Y-75234941D01*
X120321240Y-75234941D02*
X120249812Y-75377798D01*
X120249812Y-75377798D02*
X120249812Y-76163512D01*
X119749811Y-75163512D02*
X119178383Y-75163512D01*
X119535526Y-74663512D02*
X119535526Y-75949226D01*
X119535526Y-75949226D02*
X119464097Y-76092084D01*
X119464097Y-76092084D02*
X119321240Y-76163512D01*
X119321240Y-76163512D02*
X119178383Y-76163512D01*
X117606954Y-74806369D02*
X117535526Y-74734941D01*
X117535526Y-74734941D02*
X117392669Y-74663512D01*
X117392669Y-74663512D02*
X117035526Y-74663512D01*
X117035526Y-74663512D02*
X116892669Y-74734941D01*
X116892669Y-74734941D02*
X116821240Y-74806369D01*
X116821240Y-74806369D02*
X116749811Y-74949226D01*
X116749811Y-74949226D02*
X116749811Y-75092084D01*
X116749811Y-75092084D02*
X116821240Y-75306369D01*
X116821240Y-75306369D02*
X117678383Y-76163512D01*
X117678383Y-76163512D02*
X116749811Y-76163512D01*
X115821240Y-74663512D02*
X115678383Y-74663512D01*
X115678383Y-74663512D02*
X115535526Y-74734941D01*
X115535526Y-74734941D02*
X115464098Y-74806369D01*
X115464098Y-74806369D02*
X115392669Y-74949226D01*
X115392669Y-74949226D02*
X115321240Y-75234941D01*
X115321240Y-75234941D02*
X115321240Y-75592084D01*
X115321240Y-75592084D02*
X115392669Y-75877798D01*
X115392669Y-75877798D02*
X115464098Y-76020655D01*
X115464098Y-76020655D02*
X115535526Y-76092084D01*
X115535526Y-76092084D02*
X115678383Y-76163512D01*
X115678383Y-76163512D02*
X115821240Y-76163512D01*
X115821240Y-76163512D02*
X115964098Y-76092084D01*
X115964098Y-76092084D02*
X116035526Y-76020655D01*
X116035526Y-76020655D02*
X116106955Y-75877798D01*
X116106955Y-75877798D02*
X116178383Y-75592084D01*
X116178383Y-75592084D02*
X116178383Y-75234941D01*
X116178383Y-75234941D02*
X116106955Y-74949226D01*
X116106955Y-74949226D02*
X116035526Y-74806369D01*
X116035526Y-74806369D02*
X115964098Y-74734941D01*
X115964098Y-74734941D02*
X115821240Y-74663512D01*
X114749812Y-74806369D02*
X114678384Y-74734941D01*
X114678384Y-74734941D02*
X114535527Y-74663512D01*
X114535527Y-74663512D02*
X114178384Y-74663512D01*
X114178384Y-74663512D02*
X114035527Y-74734941D01*
X114035527Y-74734941D02*
X113964098Y-74806369D01*
X113964098Y-74806369D02*
X113892669Y-74949226D01*
X113892669Y-74949226D02*
X113892669Y-75092084D01*
X113892669Y-75092084D02*
X113964098Y-75306369D01*
X113964098Y-75306369D02*
X114821241Y-76163512D01*
X114821241Y-76163512D02*
X113892669Y-76163512D01*
X112606956Y-75163512D02*
X112606956Y-76163512D01*
X112964098Y-74592084D02*
X113321241Y-75663512D01*
X113321241Y-75663512D02*
X112392670Y-75663512D01*
X141035527Y-77578428D02*
X141035527Y-78792714D01*
X141035527Y-78792714D02*
X141106955Y-78935571D01*
X141106955Y-78935571D02*
X141178384Y-79007000D01*
X141178384Y-79007000D02*
X141321241Y-79078428D01*
X141321241Y-79078428D02*
X141535527Y-79078428D01*
X141535527Y-79078428D02*
X141678384Y-79007000D01*
X141035527Y-78507000D02*
X141178384Y-78578428D01*
X141178384Y-78578428D02*
X141464098Y-78578428D01*
X141464098Y-78578428D02*
X141606955Y-78507000D01*
X141606955Y-78507000D02*
X141678384Y-78435571D01*
X141678384Y-78435571D02*
X141749812Y-78292714D01*
X141749812Y-78292714D02*
X141749812Y-77864142D01*
X141749812Y-77864142D02*
X141678384Y-77721285D01*
X141678384Y-77721285D02*
X141606955Y-77649857D01*
X141606955Y-77649857D02*
X141464098Y-77578428D01*
X141464098Y-77578428D02*
X141178384Y-77578428D01*
X141178384Y-77578428D02*
X141035527Y-77649857D01*
X140321241Y-78578428D02*
X140321241Y-77578428D01*
X140321241Y-77078428D02*
X140392669Y-77149857D01*
X140392669Y-77149857D02*
X140321241Y-77221285D01*
X140321241Y-77221285D02*
X140249812Y-77149857D01*
X140249812Y-77149857D02*
X140321241Y-77078428D01*
X140321241Y-77078428D02*
X140321241Y-77221285D01*
X139821240Y-77578428D02*
X139249812Y-77578428D01*
X139606955Y-77078428D02*
X139606955Y-78364142D01*
X139606955Y-78364142D02*
X139535526Y-78507000D01*
X139535526Y-78507000D02*
X139392669Y-78578428D01*
X139392669Y-78578428D02*
X139249812Y-78578428D01*
X138749812Y-78578428D02*
X138749812Y-77078428D01*
X138106955Y-78578428D02*
X138106955Y-77792714D01*
X138106955Y-77792714D02*
X138178383Y-77649857D01*
X138178383Y-77649857D02*
X138321240Y-77578428D01*
X138321240Y-77578428D02*
X138535526Y-77578428D01*
X138535526Y-77578428D02*
X138678383Y-77649857D01*
X138678383Y-77649857D02*
X138749812Y-77721285D01*
X136749812Y-77578428D02*
X136749812Y-78578428D01*
X137392669Y-77578428D02*
X137392669Y-78364142D01*
X137392669Y-78364142D02*
X137321240Y-78507000D01*
X137321240Y-78507000D02*
X137178383Y-78578428D01*
X137178383Y-78578428D02*
X136964097Y-78578428D01*
X136964097Y-78578428D02*
X136821240Y-78507000D01*
X136821240Y-78507000D02*
X136749812Y-78435571D01*
X136035526Y-78578428D02*
X136035526Y-77078428D01*
X136035526Y-77649857D02*
X135892669Y-77578428D01*
X135892669Y-77578428D02*
X135606954Y-77578428D01*
X135606954Y-77578428D02*
X135464097Y-77649857D01*
X135464097Y-77649857D02*
X135392669Y-77721285D01*
X135392669Y-77721285D02*
X135321240Y-77864142D01*
X135321240Y-77864142D02*
X135321240Y-78292714D01*
X135321240Y-78292714D02*
X135392669Y-78435571D01*
X135392669Y-78435571D02*
X135464097Y-78507000D01*
X135464097Y-78507000D02*
X135606954Y-78578428D01*
X135606954Y-78578428D02*
X135892669Y-78578428D01*
X135892669Y-78578428D02*
X136035526Y-78507000D01*
X134678383Y-78435571D02*
X134606954Y-78507000D01*
X134606954Y-78507000D02*
X134678383Y-78578428D01*
X134678383Y-78578428D02*
X134749811Y-78507000D01*
X134749811Y-78507000D02*
X134678383Y-78435571D01*
X134678383Y-78435571D02*
X134678383Y-78578428D01*
X133321240Y-78507000D02*
X133464097Y-78578428D01*
X133464097Y-78578428D02*
X133749811Y-78578428D01*
X133749811Y-78578428D02*
X133892668Y-78507000D01*
X133892668Y-78507000D02*
X133964097Y-78435571D01*
X133964097Y-78435571D02*
X134035525Y-78292714D01*
X134035525Y-78292714D02*
X134035525Y-77864142D01*
X134035525Y-77864142D02*
X133964097Y-77721285D01*
X133964097Y-77721285D02*
X133892668Y-77649857D01*
X133892668Y-77649857D02*
X133749811Y-77578428D01*
X133749811Y-77578428D02*
X133464097Y-77578428D01*
X133464097Y-77578428D02*
X133321240Y-77649857D01*
X132464097Y-78578428D02*
X132606954Y-78507000D01*
X132606954Y-78507000D02*
X132678383Y-78435571D01*
X132678383Y-78435571D02*
X132749811Y-78292714D01*
X132749811Y-78292714D02*
X132749811Y-77864142D01*
X132749811Y-77864142D02*
X132678383Y-77721285D01*
X132678383Y-77721285D02*
X132606954Y-77649857D01*
X132606954Y-77649857D02*
X132464097Y-77578428D01*
X132464097Y-77578428D02*
X132249811Y-77578428D01*
X132249811Y-77578428D02*
X132106954Y-77649857D01*
X132106954Y-77649857D02*
X132035526Y-77721285D01*
X132035526Y-77721285D02*
X131964097Y-77864142D01*
X131964097Y-77864142D02*
X131964097Y-78292714D01*
X131964097Y-78292714D02*
X132035526Y-78435571D01*
X132035526Y-78435571D02*
X132106954Y-78507000D01*
X132106954Y-78507000D02*
X132249811Y-78578428D01*
X132249811Y-78578428D02*
X132464097Y-78578428D01*
X131321240Y-78578428D02*
X131321240Y-77578428D01*
X131321240Y-77721285D02*
X131249811Y-77649857D01*
X131249811Y-77649857D02*
X131106954Y-77578428D01*
X131106954Y-77578428D02*
X130892668Y-77578428D01*
X130892668Y-77578428D02*
X130749811Y-77649857D01*
X130749811Y-77649857D02*
X130678383Y-77792714D01*
X130678383Y-77792714D02*
X130678383Y-78578428D01*
X130678383Y-77792714D02*
X130606954Y-77649857D01*
X130606954Y-77649857D02*
X130464097Y-77578428D01*
X130464097Y-77578428D02*
X130249811Y-77578428D01*
X130249811Y-77578428D02*
X130106954Y-77649857D01*
X130106954Y-77649857D02*
X130035525Y-77792714D01*
X130035525Y-77792714D02*
X130035525Y-78578428D01*
X128249811Y-77007000D02*
X129535525Y-78935571D01*
X127749811Y-77578428D02*
X127749811Y-78864142D01*
X127749811Y-78864142D02*
X127821239Y-79007000D01*
X127821239Y-79007000D02*
X127964096Y-79078428D01*
X127964096Y-79078428D02*
X128035525Y-79078428D01*
X127749811Y-77078428D02*
X127821239Y-77149857D01*
X127821239Y-77149857D02*
X127749811Y-77221285D01*
X127749811Y-77221285D02*
X127678382Y-77149857D01*
X127678382Y-77149857D02*
X127749811Y-77078428D01*
X127749811Y-77078428D02*
X127749811Y-77221285D01*
X126392668Y-78578428D02*
X126392668Y-77792714D01*
X126392668Y-77792714D02*
X126464096Y-77649857D01*
X126464096Y-77649857D02*
X126606953Y-77578428D01*
X126606953Y-77578428D02*
X126892668Y-77578428D01*
X126892668Y-77578428D02*
X127035525Y-77649857D01*
X126392668Y-78507000D02*
X126535525Y-78578428D01*
X126535525Y-78578428D02*
X126892668Y-78578428D01*
X126892668Y-78578428D02*
X127035525Y-78507000D01*
X127035525Y-78507000D02*
X127106953Y-78364142D01*
X127106953Y-78364142D02*
X127106953Y-78221285D01*
X127106953Y-78221285D02*
X127035525Y-78078428D01*
X127035525Y-78078428D02*
X126892668Y-78007000D01*
X126892668Y-78007000D02*
X126535525Y-78007000D01*
X126535525Y-78007000D02*
X126392668Y-77935571D01*
X125035525Y-78507000D02*
X125178382Y-78578428D01*
X125178382Y-78578428D02*
X125464096Y-78578428D01*
X125464096Y-78578428D02*
X125606953Y-78507000D01*
X125606953Y-78507000D02*
X125678382Y-78435571D01*
X125678382Y-78435571D02*
X125749810Y-78292714D01*
X125749810Y-78292714D02*
X125749810Y-77864142D01*
X125749810Y-77864142D02*
X125678382Y-77721285D01*
X125678382Y-77721285D02*
X125606953Y-77649857D01*
X125606953Y-77649857D02*
X125464096Y-77578428D01*
X125464096Y-77578428D02*
X125178382Y-77578428D01*
X125178382Y-77578428D02*
X125035525Y-77649857D01*
X124178382Y-78578428D02*
X124321239Y-78507000D01*
X124321239Y-78507000D02*
X124392668Y-78435571D01*
X124392668Y-78435571D02*
X124464096Y-78292714D01*
X124464096Y-78292714D02*
X124464096Y-77864142D01*
X124464096Y-77864142D02*
X124392668Y-77721285D01*
X124392668Y-77721285D02*
X124321239Y-77649857D01*
X124321239Y-77649857D02*
X124178382Y-77578428D01*
X124178382Y-77578428D02*
X123964096Y-77578428D01*
X123964096Y-77578428D02*
X123821239Y-77649857D01*
X123821239Y-77649857D02*
X123749811Y-77721285D01*
X123749811Y-77721285D02*
X123678382Y-77864142D01*
X123678382Y-77864142D02*
X123678382Y-78292714D01*
X123678382Y-78292714D02*
X123749811Y-78435571D01*
X123749811Y-78435571D02*
X123821239Y-78507000D01*
X123821239Y-78507000D02*
X123964096Y-78578428D01*
X123964096Y-78578428D02*
X124178382Y-78578428D01*
X123035525Y-78578428D02*
X123035525Y-77078428D01*
X123035525Y-77649857D02*
X122892668Y-77578428D01*
X122892668Y-77578428D02*
X122606953Y-77578428D01*
X122606953Y-77578428D02*
X122464096Y-77649857D01*
X122464096Y-77649857D02*
X122392668Y-77721285D01*
X122392668Y-77721285D02*
X122321239Y-77864142D01*
X122321239Y-77864142D02*
X122321239Y-78292714D01*
X122321239Y-78292714D02*
X122392668Y-78435571D01*
X122392668Y-78435571D02*
X122464096Y-78507000D01*
X122464096Y-78507000D02*
X122606953Y-78578428D01*
X122606953Y-78578428D02*
X122892668Y-78578428D01*
X122892668Y-78578428D02*
X123035525Y-78507000D01*
X121035525Y-78578428D02*
X121035525Y-77792714D01*
X121035525Y-77792714D02*
X121106953Y-77649857D01*
X121106953Y-77649857D02*
X121249810Y-77578428D01*
X121249810Y-77578428D02*
X121535525Y-77578428D01*
X121535525Y-77578428D02*
X121678382Y-77649857D01*
X121035525Y-78507000D02*
X121178382Y-78578428D01*
X121178382Y-78578428D02*
X121535525Y-78578428D01*
X121535525Y-78578428D02*
X121678382Y-78507000D01*
X121678382Y-78507000D02*
X121749810Y-78364142D01*
X121749810Y-78364142D02*
X121749810Y-78221285D01*
X121749810Y-78221285D02*
X121678382Y-78078428D01*
X121678382Y-78078428D02*
X121535525Y-78007000D01*
X121535525Y-78007000D02*
X121178382Y-78007000D01*
X121178382Y-78007000D02*
X121035525Y-77935571D01*
X120321239Y-77578428D02*
X120321239Y-78578428D01*
X120321239Y-77721285D02*
X120249810Y-77649857D01*
X120249810Y-77649857D02*
X120106953Y-77578428D01*
X120106953Y-77578428D02*
X119892667Y-77578428D01*
X119892667Y-77578428D02*
X119749810Y-77649857D01*
X119749810Y-77649857D02*
X119678382Y-77792714D01*
X119678382Y-77792714D02*
X119678382Y-78578428D01*
X119178381Y-77578428D02*
X118606953Y-77578428D01*
X118964096Y-77078428D02*
X118964096Y-78364142D01*
X118964096Y-78364142D02*
X118892667Y-78507000D01*
X118892667Y-78507000D02*
X118749810Y-78578428D01*
X118749810Y-78578428D02*
X118606953Y-78578428D01*
X117892667Y-78578428D02*
X118035524Y-78507000D01*
X118035524Y-78507000D02*
X118106953Y-78435571D01*
X118106953Y-78435571D02*
X118178381Y-78292714D01*
X118178381Y-78292714D02*
X118178381Y-77864142D01*
X118178381Y-77864142D02*
X118106953Y-77721285D01*
X118106953Y-77721285D02*
X118035524Y-77649857D01*
X118035524Y-77649857D02*
X117892667Y-77578428D01*
X117892667Y-77578428D02*
X117678381Y-77578428D01*
X117678381Y-77578428D02*
X117535524Y-77649857D01*
X117535524Y-77649857D02*
X117464096Y-77721285D01*
X117464096Y-77721285D02*
X117392667Y-77864142D01*
X117392667Y-77864142D02*
X117392667Y-78292714D01*
X117392667Y-78292714D02*
X117464096Y-78435571D01*
X117464096Y-78435571D02*
X117535524Y-78507000D01*
X117535524Y-78507000D02*
X117678381Y-78578428D01*
X117678381Y-78578428D02*
X117892667Y-78578428D01*
X116106953Y-77578428D02*
X116106953Y-78578428D01*
X116749810Y-77578428D02*
X116749810Y-78364142D01*
X116749810Y-78364142D02*
X116678381Y-78507000D01*
X116678381Y-78507000D02*
X116535524Y-78578428D01*
X116535524Y-78578428D02*
X116321238Y-78578428D01*
X116321238Y-78578428D02*
X116178381Y-78507000D01*
X116178381Y-78507000D02*
X116106953Y-78435571D01*
X115392667Y-77578428D02*
X115392667Y-78578428D01*
X115392667Y-77721285D02*
X115321238Y-77649857D01*
X115321238Y-77649857D02*
X115178381Y-77578428D01*
X115178381Y-77578428D02*
X114964095Y-77578428D01*
X114964095Y-77578428D02*
X114821238Y-77649857D01*
X114821238Y-77649857D02*
X114749810Y-77792714D01*
X114749810Y-77792714D02*
X114749810Y-78578428D01*
X140853384Y-105473596D02*
X140853384Y-103973596D01*
X140853384Y-103973596D02*
X140281955Y-103973596D01*
X140281955Y-103973596D02*
X140139098Y-104045025D01*
X140139098Y-104045025D02*
X140067669Y-104116453D01*
X140067669Y-104116453D02*
X139996241Y-104259310D01*
X139996241Y-104259310D02*
X139996241Y-104473596D01*
X139996241Y-104473596D02*
X140067669Y-104616453D01*
X140067669Y-104616453D02*
X140139098Y-104687882D01*
X140139098Y-104687882D02*
X140281955Y-104759310D01*
X140281955Y-104759310D02*
X140853384Y-104759310D01*
X139353384Y-105473596D02*
X139353384Y-104473596D01*
X139353384Y-104759310D02*
X139281955Y-104616453D01*
X139281955Y-104616453D02*
X139210527Y-104545025D01*
X139210527Y-104545025D02*
X139067669Y-104473596D01*
X139067669Y-104473596D02*
X138924812Y-104473596D01*
X137853384Y-105402168D02*
X137996241Y-105473596D01*
X137996241Y-105473596D02*
X138281956Y-105473596D01*
X138281956Y-105473596D02*
X138424813Y-105402168D01*
X138424813Y-105402168D02*
X138496241Y-105259310D01*
X138496241Y-105259310D02*
X138496241Y-104687882D01*
X138496241Y-104687882D02*
X138424813Y-104545025D01*
X138424813Y-104545025D02*
X138281956Y-104473596D01*
X138281956Y-104473596D02*
X137996241Y-104473596D01*
X137996241Y-104473596D02*
X137853384Y-104545025D01*
X137853384Y-104545025D02*
X137781956Y-104687882D01*
X137781956Y-104687882D02*
X137781956Y-104830739D01*
X137781956Y-104830739D02*
X138496241Y-104973596D01*
X137210527Y-105402168D02*
X137067670Y-105473596D01*
X137067670Y-105473596D02*
X136781956Y-105473596D01*
X136781956Y-105473596D02*
X136639099Y-105402168D01*
X136639099Y-105402168D02*
X136567670Y-105259310D01*
X136567670Y-105259310D02*
X136567670Y-105187882D01*
X136567670Y-105187882D02*
X136639099Y-105045025D01*
X136639099Y-105045025D02*
X136781956Y-104973596D01*
X136781956Y-104973596D02*
X136996242Y-104973596D01*
X136996242Y-104973596D02*
X137139099Y-104902168D01*
X137139099Y-104902168D02*
X137210527Y-104759310D01*
X137210527Y-104759310D02*
X137210527Y-104687882D01*
X137210527Y-104687882D02*
X137139099Y-104545025D01*
X137139099Y-104545025D02*
X136996242Y-104473596D01*
X136996242Y-104473596D02*
X136781956Y-104473596D01*
X136781956Y-104473596D02*
X136639099Y-104545025D01*
X135996241Y-105402168D02*
X135853384Y-105473596D01*
X135853384Y-105473596D02*
X135567670Y-105473596D01*
X135567670Y-105473596D02*
X135424813Y-105402168D01*
X135424813Y-105402168D02*
X135353384Y-105259310D01*
X135353384Y-105259310D02*
X135353384Y-105187882D01*
X135353384Y-105187882D02*
X135424813Y-105045025D01*
X135424813Y-105045025D02*
X135567670Y-104973596D01*
X135567670Y-104973596D02*
X135781956Y-104973596D01*
X135781956Y-104973596D02*
X135924813Y-104902168D01*
X135924813Y-104902168D02*
X135996241Y-104759310D01*
X135996241Y-104759310D02*
X135996241Y-104687882D01*
X135996241Y-104687882D02*
X135924813Y-104545025D01*
X135924813Y-104545025D02*
X135781956Y-104473596D01*
X135781956Y-104473596D02*
X135567670Y-104473596D01*
X135567670Y-104473596D02*
X135424813Y-104545025D01*
X133639098Y-105402168D02*
X133424813Y-105473596D01*
X133424813Y-105473596D02*
X133067670Y-105473596D01*
X133067670Y-105473596D02*
X132924813Y-105402168D01*
X132924813Y-105402168D02*
X132853384Y-105330739D01*
X132853384Y-105330739D02*
X132781955Y-105187882D01*
X132781955Y-105187882D02*
X132781955Y-105045025D01*
X132781955Y-105045025D02*
X132853384Y-104902168D01*
X132853384Y-104902168D02*
X132924813Y-104830739D01*
X132924813Y-104830739D02*
X133067670Y-104759310D01*
X133067670Y-104759310D02*
X133353384Y-104687882D01*
X133353384Y-104687882D02*
X133496241Y-104616453D01*
X133496241Y-104616453D02*
X133567670Y-104545025D01*
X133567670Y-104545025D02*
X133639098Y-104402168D01*
X133639098Y-104402168D02*
X133639098Y-104259310D01*
X133639098Y-104259310D02*
X133567670Y-104116453D01*
X133567670Y-104116453D02*
X133496241Y-104045025D01*
X133496241Y-104045025D02*
X133353384Y-103973596D01*
X133353384Y-103973596D02*
X132996241Y-103973596D01*
X132996241Y-103973596D02*
X132781955Y-104045025D01*
X132281956Y-103973596D02*
X131924813Y-105473596D01*
X131924813Y-105473596D02*
X131639099Y-104402168D01*
X131639099Y-104402168D02*
X131353384Y-105473596D01*
X131353384Y-105473596D02*
X130996242Y-103973596D01*
X130567670Y-103973596D02*
X129639098Y-103973596D01*
X129639098Y-103973596D02*
X130139098Y-104545025D01*
X130139098Y-104545025D02*
X129924813Y-104545025D01*
X129924813Y-104545025D02*
X129781956Y-104616453D01*
X129781956Y-104616453D02*
X129710527Y-104687882D01*
X129710527Y-104687882D02*
X129639098Y-104830739D01*
X129639098Y-104830739D02*
X129639098Y-105187882D01*
X129639098Y-105187882D02*
X129710527Y-105330739D01*
X129710527Y-105330739D02*
X129781956Y-105402168D01*
X129781956Y-105402168D02*
X129924813Y-105473596D01*
X129924813Y-105473596D02*
X130353384Y-105473596D01*
X130353384Y-105473596D02*
X130496241Y-105402168D01*
X130496241Y-105402168D02*
X130567670Y-105330739D01*
X128067670Y-104473596D02*
X127496242Y-104473596D01*
X127853385Y-103973596D02*
X127853385Y-105259310D01*
X127853385Y-105259310D02*
X127781956Y-105402168D01*
X127781956Y-105402168D02*
X127639099Y-105473596D01*
X127639099Y-105473596D02*
X127496242Y-105473596D01*
X126781956Y-105473596D02*
X126924813Y-105402168D01*
X126924813Y-105402168D02*
X126996242Y-105330739D01*
X126996242Y-105330739D02*
X127067670Y-105187882D01*
X127067670Y-105187882D02*
X127067670Y-104759310D01*
X127067670Y-104759310D02*
X126996242Y-104616453D01*
X126996242Y-104616453D02*
X126924813Y-104545025D01*
X126924813Y-104545025D02*
X126781956Y-104473596D01*
X126781956Y-104473596D02*
X126567670Y-104473596D01*
X126567670Y-104473596D02*
X126424813Y-104545025D01*
X126424813Y-104545025D02*
X126353385Y-104616453D01*
X126353385Y-104616453D02*
X126281956Y-104759310D01*
X126281956Y-104759310D02*
X126281956Y-105187882D01*
X126281956Y-105187882D02*
X126353385Y-105330739D01*
X126353385Y-105330739D02*
X126424813Y-105402168D01*
X126424813Y-105402168D02*
X126567670Y-105473596D01*
X126567670Y-105473596D02*
X126781956Y-105473596D01*
X124639099Y-104473596D02*
X124353385Y-105473596D01*
X124353385Y-105473596D02*
X124067670Y-104759310D01*
X124067670Y-104759310D02*
X123781956Y-105473596D01*
X123781956Y-105473596D02*
X123496242Y-104473596D01*
X122281956Y-105473596D02*
X122281956Y-104687882D01*
X122281956Y-104687882D02*
X122353384Y-104545025D01*
X122353384Y-104545025D02*
X122496241Y-104473596D01*
X122496241Y-104473596D02*
X122781956Y-104473596D01*
X122781956Y-104473596D02*
X122924813Y-104545025D01*
X122281956Y-105402168D02*
X122424813Y-105473596D01*
X122424813Y-105473596D02*
X122781956Y-105473596D01*
X122781956Y-105473596D02*
X122924813Y-105402168D01*
X122924813Y-105402168D02*
X122996241Y-105259310D01*
X122996241Y-105259310D02*
X122996241Y-105116453D01*
X122996241Y-105116453D02*
X122924813Y-104973596D01*
X122924813Y-104973596D02*
X122781956Y-104902168D01*
X122781956Y-104902168D02*
X122424813Y-104902168D01*
X122424813Y-104902168D02*
X122281956Y-104830739D01*
X121567670Y-105473596D02*
X121567670Y-103973596D01*
X121424813Y-104902168D02*
X120996241Y-105473596D01*
X120996241Y-104473596D02*
X121567670Y-105045025D01*
X119781955Y-105402168D02*
X119924812Y-105473596D01*
X119924812Y-105473596D02*
X120210527Y-105473596D01*
X120210527Y-105473596D02*
X120353384Y-105402168D01*
X120353384Y-105402168D02*
X120424812Y-105259310D01*
X120424812Y-105259310D02*
X120424812Y-104687882D01*
X120424812Y-104687882D02*
X120353384Y-104545025D01*
X120353384Y-104545025D02*
X120210527Y-104473596D01*
X120210527Y-104473596D02*
X119924812Y-104473596D01*
X119924812Y-104473596D02*
X119781955Y-104545025D01*
X119781955Y-104545025D02*
X119710527Y-104687882D01*
X119710527Y-104687882D02*
X119710527Y-104830739D01*
X119710527Y-104830739D02*
X120424812Y-104973596D01*
X117281956Y-104473596D02*
X117281956Y-105473596D01*
X117924813Y-104473596D02*
X117924813Y-105259310D01*
X117924813Y-105259310D02*
X117853384Y-105402168D01*
X117853384Y-105402168D02*
X117710527Y-105473596D01*
X117710527Y-105473596D02*
X117496241Y-105473596D01*
X117496241Y-105473596D02*
X117353384Y-105402168D01*
X117353384Y-105402168D02*
X117281956Y-105330739D01*
X116567670Y-104473596D02*
X116567670Y-105973596D01*
X116567670Y-104545025D02*
X116424813Y-104473596D01*
X116424813Y-104473596D02*
X116139098Y-104473596D01*
X116139098Y-104473596D02*
X115996241Y-104545025D01*
X115996241Y-104545025D02*
X115924813Y-104616453D01*
X115924813Y-104616453D02*
X115853384Y-104759310D01*
X115853384Y-104759310D02*
X115853384Y-105187882D01*
X115853384Y-105187882D02*
X115924813Y-105330739D01*
X115924813Y-105330739D02*
X115996241Y-105402168D01*
X115996241Y-105402168D02*
X116139098Y-105473596D01*
X116139098Y-105473596D02*
X116424813Y-105473596D01*
X116424813Y-105473596D02*
X116567670Y-105402168D01*
X140853384Y-107888512D02*
X140853384Y-106388512D01*
X140853384Y-106388512D02*
X140281955Y-106388512D01*
X140281955Y-106388512D02*
X140139098Y-106459941D01*
X140139098Y-106459941D02*
X140067669Y-106531369D01*
X140067669Y-106531369D02*
X139996241Y-106674226D01*
X139996241Y-106674226D02*
X139996241Y-106888512D01*
X139996241Y-106888512D02*
X140067669Y-107031369D01*
X140067669Y-107031369D02*
X140139098Y-107102798D01*
X140139098Y-107102798D02*
X140281955Y-107174226D01*
X140281955Y-107174226D02*
X140853384Y-107174226D01*
X139353384Y-107888512D02*
X139353384Y-106888512D01*
X139353384Y-107174226D02*
X139281955Y-107031369D01*
X139281955Y-107031369D02*
X139210527Y-106959941D01*
X139210527Y-106959941D02*
X139067669Y-106888512D01*
X139067669Y-106888512D02*
X138924812Y-106888512D01*
X137853384Y-107817084D02*
X137996241Y-107888512D01*
X137996241Y-107888512D02*
X138281956Y-107888512D01*
X138281956Y-107888512D02*
X138424813Y-107817084D01*
X138424813Y-107817084D02*
X138496241Y-107674226D01*
X138496241Y-107674226D02*
X138496241Y-107102798D01*
X138496241Y-107102798D02*
X138424813Y-106959941D01*
X138424813Y-106959941D02*
X138281956Y-106888512D01*
X138281956Y-106888512D02*
X137996241Y-106888512D01*
X137996241Y-106888512D02*
X137853384Y-106959941D01*
X137853384Y-106959941D02*
X137781956Y-107102798D01*
X137781956Y-107102798D02*
X137781956Y-107245655D01*
X137781956Y-107245655D02*
X138496241Y-107388512D01*
X137210527Y-107817084D02*
X137067670Y-107888512D01*
X137067670Y-107888512D02*
X136781956Y-107888512D01*
X136781956Y-107888512D02*
X136639099Y-107817084D01*
X136639099Y-107817084D02*
X136567670Y-107674226D01*
X136567670Y-107674226D02*
X136567670Y-107602798D01*
X136567670Y-107602798D02*
X136639099Y-107459941D01*
X136639099Y-107459941D02*
X136781956Y-107388512D01*
X136781956Y-107388512D02*
X136996242Y-107388512D01*
X136996242Y-107388512D02*
X137139099Y-107317084D01*
X137139099Y-107317084D02*
X137210527Y-107174226D01*
X137210527Y-107174226D02*
X137210527Y-107102798D01*
X137210527Y-107102798D02*
X137139099Y-106959941D01*
X137139099Y-106959941D02*
X136996242Y-106888512D01*
X136996242Y-106888512D02*
X136781956Y-106888512D01*
X136781956Y-106888512D02*
X136639099Y-106959941D01*
X135996241Y-107817084D02*
X135853384Y-107888512D01*
X135853384Y-107888512D02*
X135567670Y-107888512D01*
X135567670Y-107888512D02*
X135424813Y-107817084D01*
X135424813Y-107817084D02*
X135353384Y-107674226D01*
X135353384Y-107674226D02*
X135353384Y-107602798D01*
X135353384Y-107602798D02*
X135424813Y-107459941D01*
X135424813Y-107459941D02*
X135567670Y-107388512D01*
X135567670Y-107388512D02*
X135781956Y-107388512D01*
X135781956Y-107388512D02*
X135924813Y-107317084D01*
X135924813Y-107317084D02*
X135996241Y-107174226D01*
X135996241Y-107174226D02*
X135996241Y-107102798D01*
X135996241Y-107102798D02*
X135924813Y-106959941D01*
X135924813Y-106959941D02*
X135781956Y-106888512D01*
X135781956Y-106888512D02*
X135567670Y-106888512D01*
X135567670Y-106888512D02*
X135424813Y-106959941D01*
X133639098Y-107817084D02*
X133424813Y-107888512D01*
X133424813Y-107888512D02*
X133067670Y-107888512D01*
X133067670Y-107888512D02*
X132924813Y-107817084D01*
X132924813Y-107817084D02*
X132853384Y-107745655D01*
X132853384Y-107745655D02*
X132781955Y-107602798D01*
X132781955Y-107602798D02*
X132781955Y-107459941D01*
X132781955Y-107459941D02*
X132853384Y-107317084D01*
X132853384Y-107317084D02*
X132924813Y-107245655D01*
X132924813Y-107245655D02*
X133067670Y-107174226D01*
X133067670Y-107174226D02*
X133353384Y-107102798D01*
X133353384Y-107102798D02*
X133496241Y-107031369D01*
X133496241Y-107031369D02*
X133567670Y-106959941D01*
X133567670Y-106959941D02*
X133639098Y-106817084D01*
X133639098Y-106817084D02*
X133639098Y-106674226D01*
X133639098Y-106674226D02*
X133567670Y-106531369D01*
X133567670Y-106531369D02*
X133496241Y-106459941D01*
X133496241Y-106459941D02*
X133353384Y-106388512D01*
X133353384Y-106388512D02*
X132996241Y-106388512D01*
X132996241Y-106388512D02*
X132781955Y-106459941D01*
X132281956Y-106388512D02*
X131924813Y-107888512D01*
X131924813Y-107888512D02*
X131639099Y-106817084D01*
X131639099Y-106817084D02*
X131353384Y-107888512D01*
X131353384Y-107888512D02*
X130996242Y-106388512D01*
X129781956Y-106888512D02*
X129781956Y-107888512D01*
X130139098Y-106317084D02*
X130496241Y-107388512D01*
X130496241Y-107388512D02*
X129567670Y-107388512D01*
X128067670Y-106888512D02*
X127496242Y-106888512D01*
X127853385Y-106388512D02*
X127853385Y-107674226D01*
X127853385Y-107674226D02*
X127781956Y-107817084D01*
X127781956Y-107817084D02*
X127639099Y-107888512D01*
X127639099Y-107888512D02*
X127496242Y-107888512D01*
X126781956Y-107888512D02*
X126924813Y-107817084D01*
X126924813Y-107817084D02*
X126996242Y-107745655D01*
X126996242Y-107745655D02*
X127067670Y-107602798D01*
X127067670Y-107602798D02*
X127067670Y-107174226D01*
X127067670Y-107174226D02*
X126996242Y-107031369D01*
X126996242Y-107031369D02*
X126924813Y-106959941D01*
X126924813Y-106959941D02*
X126781956Y-106888512D01*
X126781956Y-106888512D02*
X126567670Y-106888512D01*
X126567670Y-106888512D02*
X126424813Y-106959941D01*
X126424813Y-106959941D02*
X126353385Y-107031369D01*
X126353385Y-107031369D02*
X126281956Y-107174226D01*
X126281956Y-107174226D02*
X126281956Y-107602798D01*
X126281956Y-107602798D02*
X126353385Y-107745655D01*
X126353385Y-107745655D02*
X126424813Y-107817084D01*
X126424813Y-107817084D02*
X126567670Y-107888512D01*
X126567670Y-107888512D02*
X126781956Y-107888512D01*
X124710527Y-106888512D02*
X124139099Y-106888512D01*
X124496242Y-106388512D02*
X124496242Y-107674226D01*
X124496242Y-107674226D02*
X124424813Y-107817084D01*
X124424813Y-107817084D02*
X124281956Y-107888512D01*
X124281956Y-107888512D02*
X124139099Y-107888512D01*
X123424813Y-107888512D02*
X123567670Y-107817084D01*
X123567670Y-107817084D02*
X123639099Y-107745655D01*
X123639099Y-107745655D02*
X123710527Y-107602798D01*
X123710527Y-107602798D02*
X123710527Y-107174226D01*
X123710527Y-107174226D02*
X123639099Y-107031369D01*
X123639099Y-107031369D02*
X123567670Y-106959941D01*
X123567670Y-106959941D02*
X123424813Y-106888512D01*
X123424813Y-106888512D02*
X123210527Y-106888512D01*
X123210527Y-106888512D02*
X123067670Y-106959941D01*
X123067670Y-106959941D02*
X122996242Y-107031369D01*
X122996242Y-107031369D02*
X122924813Y-107174226D01*
X122924813Y-107174226D02*
X122924813Y-107602798D01*
X122924813Y-107602798D02*
X122996242Y-107745655D01*
X122996242Y-107745655D02*
X123067670Y-107817084D01*
X123067670Y-107817084D02*
X123210527Y-107888512D01*
X123210527Y-107888512D02*
X123424813Y-107888512D01*
X121639099Y-106888512D02*
X121639099Y-108102798D01*
X121639099Y-108102798D02*
X121710527Y-108245655D01*
X121710527Y-108245655D02*
X121781956Y-108317084D01*
X121781956Y-108317084D02*
X121924813Y-108388512D01*
X121924813Y-108388512D02*
X122139099Y-108388512D01*
X122139099Y-108388512D02*
X122281956Y-108317084D01*
X121639099Y-107817084D02*
X121781956Y-107888512D01*
X121781956Y-107888512D02*
X122067670Y-107888512D01*
X122067670Y-107888512D02*
X122210527Y-107817084D01*
X122210527Y-107817084D02*
X122281956Y-107745655D01*
X122281956Y-107745655D02*
X122353384Y-107602798D01*
X122353384Y-107602798D02*
X122353384Y-107174226D01*
X122353384Y-107174226D02*
X122281956Y-107031369D01*
X122281956Y-107031369D02*
X122210527Y-106959941D01*
X122210527Y-106959941D02*
X122067670Y-106888512D01*
X122067670Y-106888512D02*
X121781956Y-106888512D01*
X121781956Y-106888512D02*
X121639099Y-106959941D01*
X120281956Y-106888512D02*
X120281956Y-108102798D01*
X120281956Y-108102798D02*
X120353384Y-108245655D01*
X120353384Y-108245655D02*
X120424813Y-108317084D01*
X120424813Y-108317084D02*
X120567670Y-108388512D01*
X120567670Y-108388512D02*
X120781956Y-108388512D01*
X120781956Y-108388512D02*
X120924813Y-108317084D01*
X120281956Y-107817084D02*
X120424813Y-107888512D01*
X120424813Y-107888512D02*
X120710527Y-107888512D01*
X120710527Y-107888512D02*
X120853384Y-107817084D01*
X120853384Y-107817084D02*
X120924813Y-107745655D01*
X120924813Y-107745655D02*
X120996241Y-107602798D01*
X120996241Y-107602798D02*
X120996241Y-107174226D01*
X120996241Y-107174226D02*
X120924813Y-107031369D01*
X120924813Y-107031369D02*
X120853384Y-106959941D01*
X120853384Y-106959941D02*
X120710527Y-106888512D01*
X120710527Y-106888512D02*
X120424813Y-106888512D01*
X120424813Y-106888512D02*
X120281956Y-106959941D01*
X119353384Y-107888512D02*
X119496241Y-107817084D01*
X119496241Y-107817084D02*
X119567670Y-107674226D01*
X119567670Y-107674226D02*
X119567670Y-106388512D01*
X118210527Y-107817084D02*
X118353384Y-107888512D01*
X118353384Y-107888512D02*
X118639099Y-107888512D01*
X118639099Y-107888512D02*
X118781956Y-107817084D01*
X118781956Y-107817084D02*
X118853384Y-107674226D01*
X118853384Y-107674226D02*
X118853384Y-107102798D01*
X118853384Y-107102798D02*
X118781956Y-106959941D01*
X118781956Y-106959941D02*
X118639099Y-106888512D01*
X118639099Y-106888512D02*
X118353384Y-106888512D01*
X118353384Y-106888512D02*
X118210527Y-106959941D01*
X118210527Y-106959941D02*
X118139099Y-107102798D01*
X118139099Y-107102798D02*
X118139099Y-107245655D01*
X118139099Y-107245655D02*
X118853384Y-107388512D01*
X116353385Y-107888512D02*
X116353385Y-106388512D01*
X116353385Y-106959941D02*
X116210528Y-106888512D01*
X116210528Y-106888512D02*
X115924813Y-106888512D01*
X115924813Y-106888512D02*
X115781956Y-106959941D01*
X115781956Y-106959941D02*
X115710528Y-107031369D01*
X115710528Y-107031369D02*
X115639099Y-107174226D01*
X115639099Y-107174226D02*
X115639099Y-107602798D01*
X115639099Y-107602798D02*
X115710528Y-107745655D01*
X115710528Y-107745655D02*
X115781956Y-107817084D01*
X115781956Y-107817084D02*
X115924813Y-107888512D01*
X115924813Y-107888512D02*
X116210528Y-107888512D01*
X116210528Y-107888512D02*
X116353385Y-107817084D01*
X114424813Y-107817084D02*
X114567670Y-107888512D01*
X114567670Y-107888512D02*
X114853385Y-107888512D01*
X114853385Y-107888512D02*
X114996242Y-107817084D01*
X114996242Y-107817084D02*
X115067670Y-107674226D01*
X115067670Y-107674226D02*
X115067670Y-107102798D01*
X115067670Y-107102798D02*
X114996242Y-106959941D01*
X114996242Y-106959941D02*
X114853385Y-106888512D01*
X114853385Y-106888512D02*
X114567670Y-106888512D01*
X114567670Y-106888512D02*
X114424813Y-106959941D01*
X114424813Y-106959941D02*
X114353385Y-107102798D01*
X114353385Y-107102798D02*
X114353385Y-107245655D01*
X114353385Y-107245655D02*
X115067670Y-107388512D01*
X113924813Y-106888512D02*
X113353385Y-106888512D01*
X113710528Y-106388512D02*
X113710528Y-107674226D01*
X113710528Y-107674226D02*
X113639099Y-107817084D01*
X113639099Y-107817084D02*
X113496242Y-107888512D01*
X113496242Y-107888512D02*
X113353385Y-107888512D01*
X112996242Y-106888512D02*
X112710528Y-107888512D01*
X112710528Y-107888512D02*
X112424813Y-107174226D01*
X112424813Y-107174226D02*
X112139099Y-107888512D01*
X112139099Y-107888512D02*
X111853385Y-106888512D01*
X110710527Y-107817084D02*
X110853384Y-107888512D01*
X110853384Y-107888512D02*
X111139099Y-107888512D01*
X111139099Y-107888512D02*
X111281956Y-107817084D01*
X111281956Y-107817084D02*
X111353384Y-107674226D01*
X111353384Y-107674226D02*
X111353384Y-107102798D01*
X111353384Y-107102798D02*
X111281956Y-106959941D01*
X111281956Y-106959941D02*
X111139099Y-106888512D01*
X111139099Y-106888512D02*
X110853384Y-106888512D01*
X110853384Y-106888512D02*
X110710527Y-106959941D01*
X110710527Y-106959941D02*
X110639099Y-107102798D01*
X110639099Y-107102798D02*
X110639099Y-107245655D01*
X110639099Y-107245655D02*
X111353384Y-107388512D01*
X109424813Y-107817084D02*
X109567670Y-107888512D01*
X109567670Y-107888512D02*
X109853385Y-107888512D01*
X109853385Y-107888512D02*
X109996242Y-107817084D01*
X109996242Y-107817084D02*
X110067670Y-107674226D01*
X110067670Y-107674226D02*
X110067670Y-107102798D01*
X110067670Y-107102798D02*
X109996242Y-106959941D01*
X109996242Y-106959941D02*
X109853385Y-106888512D01*
X109853385Y-106888512D02*
X109567670Y-106888512D01*
X109567670Y-106888512D02*
X109424813Y-106959941D01*
X109424813Y-106959941D02*
X109353385Y-107102798D01*
X109353385Y-107102798D02*
X109353385Y-107245655D01*
X109353385Y-107245655D02*
X110067670Y-107388512D01*
X108710528Y-106888512D02*
X108710528Y-107888512D01*
X108710528Y-107031369D02*
X108639099Y-106959941D01*
X108639099Y-106959941D02*
X108496242Y-106888512D01*
X108496242Y-106888512D02*
X108281956Y-106888512D01*
X108281956Y-106888512D02*
X108139099Y-106959941D01*
X108139099Y-106959941D02*
X108067671Y-107102798D01*
X108067671Y-107102798D02*
X108067671Y-107888512D01*
X140924812Y-110232000D02*
X140781955Y-110303428D01*
X140781955Y-110303428D02*
X140496241Y-110303428D01*
X140496241Y-110303428D02*
X140353384Y-110232000D01*
X140353384Y-110232000D02*
X140281955Y-110089142D01*
X140281955Y-110089142D02*
X140281955Y-110017714D01*
X140281955Y-110017714D02*
X140353384Y-109874857D01*
X140353384Y-109874857D02*
X140496241Y-109803428D01*
X140496241Y-109803428D02*
X140710527Y-109803428D01*
X140710527Y-109803428D02*
X140853384Y-109732000D01*
X140853384Y-109732000D02*
X140924812Y-109589142D01*
X140924812Y-109589142D02*
X140924812Y-109517714D01*
X140924812Y-109517714D02*
X140853384Y-109374857D01*
X140853384Y-109374857D02*
X140710527Y-109303428D01*
X140710527Y-109303428D02*
X140496241Y-109303428D01*
X140496241Y-109303428D02*
X140353384Y-109374857D01*
X139639098Y-109303428D02*
X139639098Y-110803428D01*
X139639098Y-109374857D02*
X139496241Y-109303428D01*
X139496241Y-109303428D02*
X139210526Y-109303428D01*
X139210526Y-109303428D02*
X139067669Y-109374857D01*
X139067669Y-109374857D02*
X138996241Y-109446285D01*
X138996241Y-109446285D02*
X138924812Y-109589142D01*
X138924812Y-109589142D02*
X138924812Y-110017714D01*
X138924812Y-110017714D02*
X138996241Y-110160571D01*
X138996241Y-110160571D02*
X139067669Y-110232000D01*
X139067669Y-110232000D02*
X139210526Y-110303428D01*
X139210526Y-110303428D02*
X139496241Y-110303428D01*
X139496241Y-110303428D02*
X139639098Y-110232000D01*
X138281955Y-110303428D02*
X138281955Y-109303428D01*
X138281955Y-108803428D02*
X138353383Y-108874857D01*
X138353383Y-108874857D02*
X138281955Y-108946285D01*
X138281955Y-108946285D02*
X138210526Y-108874857D01*
X138210526Y-108874857D02*
X138281955Y-108803428D01*
X138281955Y-108803428D02*
X138281955Y-108946285D01*
X137567669Y-110303428D02*
X137567669Y-109303428D01*
X137567669Y-109589142D02*
X137496240Y-109446285D01*
X137496240Y-109446285D02*
X137424812Y-109374857D01*
X137424812Y-109374857D02*
X137281954Y-109303428D01*
X137281954Y-109303428D02*
X137139097Y-109303428D01*
X136639098Y-110303428D02*
X136639098Y-109303428D01*
X136639098Y-108803428D02*
X136710526Y-108874857D01*
X136710526Y-108874857D02*
X136639098Y-108946285D01*
X136639098Y-108946285D02*
X136567669Y-108874857D01*
X136567669Y-108874857D02*
X136639098Y-108803428D01*
X136639098Y-108803428D02*
X136639098Y-108946285D01*
X136139097Y-109303428D02*
X135567669Y-109303428D01*
X135924812Y-108803428D02*
X135924812Y-110089142D01*
X135924812Y-110089142D02*
X135853383Y-110232000D01*
X135853383Y-110232000D02*
X135710526Y-110303428D01*
X135710526Y-110303428D02*
X135567669Y-110303428D01*
X133710526Y-110303428D02*
X133853383Y-110232000D01*
X133853383Y-110232000D02*
X133924812Y-110089142D01*
X133924812Y-110089142D02*
X133924812Y-108803428D01*
X132567669Y-110232000D02*
X132710526Y-110303428D01*
X132710526Y-110303428D02*
X132996241Y-110303428D01*
X132996241Y-110303428D02*
X133139098Y-110232000D01*
X133139098Y-110232000D02*
X133210526Y-110089142D01*
X133210526Y-110089142D02*
X133210526Y-109517714D01*
X133210526Y-109517714D02*
X133139098Y-109374857D01*
X133139098Y-109374857D02*
X132996241Y-109303428D01*
X132996241Y-109303428D02*
X132710526Y-109303428D01*
X132710526Y-109303428D02*
X132567669Y-109374857D01*
X132567669Y-109374857D02*
X132496241Y-109517714D01*
X132496241Y-109517714D02*
X132496241Y-109660571D01*
X132496241Y-109660571D02*
X133210526Y-109803428D01*
X131996241Y-109303428D02*
X131639098Y-110303428D01*
X131639098Y-110303428D02*
X131281955Y-109303428D01*
X130139098Y-110232000D02*
X130281955Y-110303428D01*
X130281955Y-110303428D02*
X130567670Y-110303428D01*
X130567670Y-110303428D02*
X130710527Y-110232000D01*
X130710527Y-110232000D02*
X130781955Y-110089142D01*
X130781955Y-110089142D02*
X130781955Y-109517714D01*
X130781955Y-109517714D02*
X130710527Y-109374857D01*
X130710527Y-109374857D02*
X130567670Y-109303428D01*
X130567670Y-109303428D02*
X130281955Y-109303428D01*
X130281955Y-109303428D02*
X130139098Y-109374857D01*
X130139098Y-109374857D02*
X130067670Y-109517714D01*
X130067670Y-109517714D02*
X130067670Y-109660571D01*
X130067670Y-109660571D02*
X130781955Y-109803428D01*
X129210527Y-110303428D02*
X129353384Y-110232000D01*
X129353384Y-110232000D02*
X129424813Y-110089142D01*
X129424813Y-110089142D02*
X129424813Y-108803428D01*
X126853385Y-110303428D02*
X126853385Y-109517714D01*
X126853385Y-109517714D02*
X126924813Y-109374857D01*
X126924813Y-109374857D02*
X127067670Y-109303428D01*
X127067670Y-109303428D02*
X127353385Y-109303428D01*
X127353385Y-109303428D02*
X127496242Y-109374857D01*
X126853385Y-110232000D02*
X126996242Y-110303428D01*
X126996242Y-110303428D02*
X127353385Y-110303428D01*
X127353385Y-110303428D02*
X127496242Y-110232000D01*
X127496242Y-110232000D02*
X127567670Y-110089142D01*
X127567670Y-110089142D02*
X127567670Y-109946285D01*
X127567670Y-109946285D02*
X127496242Y-109803428D01*
X127496242Y-109803428D02*
X127353385Y-109732000D01*
X127353385Y-109732000D02*
X126996242Y-109732000D01*
X126996242Y-109732000D02*
X126853385Y-109660571D01*
X126139099Y-109303428D02*
X126139099Y-110303428D01*
X126139099Y-109446285D02*
X126067670Y-109374857D01*
X126067670Y-109374857D02*
X125924813Y-109303428D01*
X125924813Y-109303428D02*
X125710527Y-109303428D01*
X125710527Y-109303428D02*
X125567670Y-109374857D01*
X125567670Y-109374857D02*
X125496242Y-109517714D01*
X125496242Y-109517714D02*
X125496242Y-110303428D01*
X124139099Y-110303428D02*
X124139099Y-108803428D01*
X124139099Y-110232000D02*
X124281956Y-110303428D01*
X124281956Y-110303428D02*
X124567670Y-110303428D01*
X124567670Y-110303428D02*
X124710527Y-110232000D01*
X124710527Y-110232000D02*
X124781956Y-110160571D01*
X124781956Y-110160571D02*
X124853384Y-110017714D01*
X124853384Y-110017714D02*
X124853384Y-109589142D01*
X124853384Y-109589142D02*
X124781956Y-109446285D01*
X124781956Y-109446285D02*
X124710527Y-109374857D01*
X124710527Y-109374857D02*
X124567670Y-109303428D01*
X124567670Y-109303428D02*
X124281956Y-109303428D01*
X124281956Y-109303428D02*
X124139099Y-109374857D01*
X122496241Y-109303428D02*
X121924813Y-109303428D01*
X122281956Y-108803428D02*
X122281956Y-110089142D01*
X122281956Y-110089142D02*
X122210527Y-110232000D01*
X122210527Y-110232000D02*
X122067670Y-110303428D01*
X122067670Y-110303428D02*
X121924813Y-110303428D01*
X120853384Y-110232000D02*
X120996241Y-110303428D01*
X120996241Y-110303428D02*
X121281956Y-110303428D01*
X121281956Y-110303428D02*
X121424813Y-110232000D01*
X121424813Y-110232000D02*
X121496241Y-110089142D01*
X121496241Y-110089142D02*
X121496241Y-109517714D01*
X121496241Y-109517714D02*
X121424813Y-109374857D01*
X121424813Y-109374857D02*
X121281956Y-109303428D01*
X121281956Y-109303428D02*
X120996241Y-109303428D01*
X120996241Y-109303428D02*
X120853384Y-109374857D01*
X120853384Y-109374857D02*
X120781956Y-109517714D01*
X120781956Y-109517714D02*
X120781956Y-109660571D01*
X120781956Y-109660571D02*
X121496241Y-109803428D01*
X120139099Y-110303428D02*
X120139099Y-109303428D01*
X120139099Y-109446285D02*
X120067670Y-109374857D01*
X120067670Y-109374857D02*
X119924813Y-109303428D01*
X119924813Y-109303428D02*
X119710527Y-109303428D01*
X119710527Y-109303428D02*
X119567670Y-109374857D01*
X119567670Y-109374857D02*
X119496242Y-109517714D01*
X119496242Y-109517714D02*
X119496242Y-110303428D01*
X119496242Y-109517714D02*
X119424813Y-109374857D01*
X119424813Y-109374857D02*
X119281956Y-109303428D01*
X119281956Y-109303428D02*
X119067670Y-109303428D01*
X119067670Y-109303428D02*
X118924813Y-109374857D01*
X118924813Y-109374857D02*
X118853384Y-109517714D01*
X118853384Y-109517714D02*
X118853384Y-110303428D01*
X118139099Y-109303428D02*
X118139099Y-110803428D01*
X118139099Y-109374857D02*
X117996242Y-109303428D01*
X117996242Y-109303428D02*
X117710527Y-109303428D01*
X117710527Y-109303428D02*
X117567670Y-109374857D01*
X117567670Y-109374857D02*
X117496242Y-109446285D01*
X117496242Y-109446285D02*
X117424813Y-109589142D01*
X117424813Y-109589142D02*
X117424813Y-110017714D01*
X117424813Y-110017714D02*
X117496242Y-110160571D01*
X117496242Y-110160571D02*
X117567670Y-110232000D01*
X117567670Y-110232000D02*
X117710527Y-110303428D01*
X117710527Y-110303428D02*
X117996242Y-110303428D01*
X117996242Y-110303428D02*
X118139099Y-110232000D01*
X116210527Y-110232000D02*
X116353384Y-110303428D01*
X116353384Y-110303428D02*
X116639099Y-110303428D01*
X116639099Y-110303428D02*
X116781956Y-110232000D01*
X116781956Y-110232000D02*
X116853384Y-110089142D01*
X116853384Y-110089142D02*
X116853384Y-109517714D01*
X116853384Y-109517714D02*
X116781956Y-109374857D01*
X116781956Y-109374857D02*
X116639099Y-109303428D01*
X116639099Y-109303428D02*
X116353384Y-109303428D01*
X116353384Y-109303428D02*
X116210527Y-109374857D01*
X116210527Y-109374857D02*
X116139099Y-109517714D01*
X116139099Y-109517714D02*
X116139099Y-109660571D01*
X116139099Y-109660571D02*
X116853384Y-109803428D01*
X115496242Y-110303428D02*
X115496242Y-109303428D01*
X115496242Y-109589142D02*
X115424813Y-109446285D01*
X115424813Y-109446285D02*
X115353385Y-109374857D01*
X115353385Y-109374857D02*
X115210527Y-109303428D01*
X115210527Y-109303428D02*
X115067670Y-109303428D01*
X113924814Y-110303428D02*
X113924814Y-109517714D01*
X113924814Y-109517714D02*
X113996242Y-109374857D01*
X113996242Y-109374857D02*
X114139099Y-109303428D01*
X114139099Y-109303428D02*
X114424814Y-109303428D01*
X114424814Y-109303428D02*
X114567671Y-109374857D01*
X113924814Y-110232000D02*
X114067671Y-110303428D01*
X114067671Y-110303428D02*
X114424814Y-110303428D01*
X114424814Y-110303428D02*
X114567671Y-110232000D01*
X114567671Y-110232000D02*
X114639099Y-110089142D01*
X114639099Y-110089142D02*
X114639099Y-109946285D01*
X114639099Y-109946285D02*
X114567671Y-109803428D01*
X114567671Y-109803428D02*
X114424814Y-109732000D01*
X114424814Y-109732000D02*
X114067671Y-109732000D01*
X114067671Y-109732000D02*
X113924814Y-109660571D01*
X113424813Y-109303428D02*
X112853385Y-109303428D01*
X113210528Y-108803428D02*
X113210528Y-110089142D01*
X113210528Y-110089142D02*
X113139099Y-110232000D01*
X113139099Y-110232000D02*
X112996242Y-110303428D01*
X112996242Y-110303428D02*
X112853385Y-110303428D01*
X111710528Y-109303428D02*
X111710528Y-110303428D01*
X112353385Y-109303428D02*
X112353385Y-110089142D01*
X112353385Y-110089142D02*
X112281956Y-110232000D01*
X112281956Y-110232000D02*
X112139099Y-110303428D01*
X112139099Y-110303428D02*
X111924813Y-110303428D01*
X111924813Y-110303428D02*
X111781956Y-110232000D01*
X111781956Y-110232000D02*
X111710528Y-110160571D01*
X110996242Y-110303428D02*
X110996242Y-109303428D01*
X110996242Y-109589142D02*
X110924813Y-109446285D01*
X110924813Y-109446285D02*
X110853385Y-109374857D01*
X110853385Y-109374857D02*
X110710527Y-109303428D01*
X110710527Y-109303428D02*
X110567670Y-109303428D01*
X109496242Y-110232000D02*
X109639099Y-110303428D01*
X109639099Y-110303428D02*
X109924814Y-110303428D01*
X109924814Y-110303428D02*
X110067671Y-110232000D01*
X110067671Y-110232000D02*
X110139099Y-110089142D01*
X110139099Y-110089142D02*
X110139099Y-109517714D01*
X110139099Y-109517714D02*
X110067671Y-109374857D01*
X110067671Y-109374857D02*
X109924814Y-109303428D01*
X109924814Y-109303428D02*
X109639099Y-109303428D01*
X109639099Y-109303428D02*
X109496242Y-109374857D01*
X109496242Y-109374857D02*
X109424814Y-109517714D01*
X109424814Y-109517714D02*
X109424814Y-109660571D01*
X109424814Y-109660571D02*
X110139099Y-109803428D01*
D11*
X131643333Y-99508819D02*
X131643333Y-100223104D01*
X131643333Y-100223104D02*
X131690952Y-100365961D01*
X131690952Y-100365961D02*
X131786190Y-100461200D01*
X131786190Y-100461200D02*
X131929047Y-100508819D01*
X131929047Y-100508819D02*
X132024285Y-100508819D01*
X131167142Y-100508819D02*
X131167142Y-99508819D01*
X131167142Y-99508819D02*
X130786190Y-99508819D01*
X130786190Y-99508819D02*
X130690952Y-99556438D01*
X130690952Y-99556438D02*
X130643333Y-99604057D01*
X130643333Y-99604057D02*
X130595714Y-99699295D01*
X130595714Y-99699295D02*
X130595714Y-99842152D01*
X130595714Y-99842152D02*
X130643333Y-99937390D01*
X130643333Y-99937390D02*
X130690952Y-99985009D01*
X130690952Y-99985009D02*
X130786190Y-100032628D01*
X130786190Y-100032628D02*
X131167142Y-100032628D01*
X129643333Y-100508819D02*
X130214761Y-100508819D01*
X129929047Y-100508819D02*
X129929047Y-99508819D01*
X129929047Y-99508819D02*
X130024285Y-99651676D01*
X130024285Y-99651676D02*
X130119523Y-99746914D01*
X130119523Y-99746914D02*
X130214761Y-99794533D01*
D12*
%TO.C,JP1*%
X129410000Y-102154000D02*
X129410000Y-101554000D01*
X130110000Y-100854000D02*
X131510000Y-100854000D01*
X131510000Y-102854000D02*
X130110000Y-102854000D01*
X132210000Y-101554000D02*
X132210000Y-102154000D01*
X129410000Y-101554000D02*
G75*
G02*
X130110000Y-100854000I700000J0D01*
G01*
X130110000Y-102854000D02*
G75*
G02*
X129410000Y-102154000I0J700000D01*
G01*
X131510000Y-100854000D02*
G75*
G02*
X132210000Y-101554000I1J-699999D01*
G01*
X132210000Y-102154000D02*
G75*
G02*
X131510000Y-102854000I-699999J-1D01*
G01*
%TD*%
M02*
