%TF.GenerationSoftware,KiCad,Pcbnew,8.0.6*%
%TF.CreationDate,2024-11-26T17:38:30-05:00*%
%TF.ProjectId,Christmas Ornament 2024,43687269-7374-46d6-9173-204f726e616d,rev?*%
%TF.SameCoordinates,Original*%
%TF.FileFunction,Drillmap*%
%TF.FilePolarity,Positive*%
%FSLAX45Y45*%
G04 Gerber Fmt 4.5, Leading zero omitted, Abs format (unit mm)*
G04 Created by KiCad (PCBNEW 8.0.6) date 2024-11-26 17:38:30*
%MOMM*%
%LPD*%
G01*
G04 APERTURE LIST*
%ADD10C,0.254000*%
%ADD11C,0.200000*%
%ADD12C,0.210000*%
G04 APERTURE END LIST*
D10*
X13462129Y-5179871D02*
X13463405Y-6164848D01*
X13362129Y-5080000D02*
G75*
G02*
X13462130Y-5179871I1J-100000D01*
G01*
X11938000Y-5180000D02*
G75*
G02*
X12038000Y-5080000I100000J0D01*
G01*
X11938000Y-6164580D02*
X11938000Y-5180000D01*
X13463405Y-6164848D02*
G75*
G02*
X11938000Y-6164580I-763405J-3995152D01*
G01*
X12038000Y-5080000D02*
X13362129Y-5080000D01*
D11*
D12*
X12035000Y-5170000D02*
X12245000Y-5380000D01*
X12245000Y-5170000D02*
X12035000Y-5380000D01*
X13145000Y-5170000D02*
X13355000Y-5380000D01*
X13355000Y-5170000D02*
X13145000Y-5380000D01*
D11*
X8880642Y-14551618D02*
X8880642Y-14351618D01*
X8880642Y-14351618D02*
X8928261Y-14351618D01*
X8928261Y-14351618D02*
X8956833Y-14361142D01*
X8956833Y-14361142D02*
X8975880Y-14380190D01*
X8975880Y-14380190D02*
X8985404Y-14399237D01*
X8985404Y-14399237D02*
X8994928Y-14437332D01*
X8994928Y-14437332D02*
X8994928Y-14465904D01*
X8994928Y-14465904D02*
X8985404Y-14503999D01*
X8985404Y-14503999D02*
X8975880Y-14523047D01*
X8975880Y-14523047D02*
X8956833Y-14542094D01*
X8956833Y-14542094D02*
X8928261Y-14551618D01*
X8928261Y-14551618D02*
X8880642Y-14551618D01*
X9080642Y-14551618D02*
X9080642Y-14418285D01*
X9080642Y-14456380D02*
X9090166Y-14437332D01*
X9090166Y-14437332D02*
X9099690Y-14427809D01*
X9099690Y-14427809D02*
X9118737Y-14418285D01*
X9118737Y-14418285D02*
X9137785Y-14418285D01*
X9204452Y-14551618D02*
X9204452Y-14418285D01*
X9204452Y-14351618D02*
X9194928Y-14361142D01*
X9194928Y-14361142D02*
X9204452Y-14370666D01*
X9204452Y-14370666D02*
X9213976Y-14361142D01*
X9213976Y-14361142D02*
X9204452Y-14351618D01*
X9204452Y-14351618D02*
X9204452Y-14370666D01*
X9328261Y-14551618D02*
X9309214Y-14542094D01*
X9309214Y-14542094D02*
X9299690Y-14523047D01*
X9299690Y-14523047D02*
X9299690Y-14351618D01*
X9433023Y-14551618D02*
X9413976Y-14542094D01*
X9413976Y-14542094D02*
X9404452Y-14523047D01*
X9404452Y-14523047D02*
X9404452Y-14351618D01*
X9661595Y-14551618D02*
X9661595Y-14351618D01*
X9661595Y-14351618D02*
X9728261Y-14494475D01*
X9728261Y-14494475D02*
X9794928Y-14351618D01*
X9794928Y-14351618D02*
X9794928Y-14551618D01*
X9975880Y-14551618D02*
X9975880Y-14446856D01*
X9975880Y-14446856D02*
X9966357Y-14427809D01*
X9966357Y-14427809D02*
X9947309Y-14418285D01*
X9947309Y-14418285D02*
X9909214Y-14418285D01*
X9909214Y-14418285D02*
X9890166Y-14427809D01*
X9975880Y-14542094D02*
X9956833Y-14551618D01*
X9956833Y-14551618D02*
X9909214Y-14551618D01*
X9909214Y-14551618D02*
X9890166Y-14542094D01*
X9890166Y-14542094D02*
X9880642Y-14523047D01*
X9880642Y-14523047D02*
X9880642Y-14503999D01*
X9880642Y-14503999D02*
X9890166Y-14484951D01*
X9890166Y-14484951D02*
X9909214Y-14475428D01*
X9909214Y-14475428D02*
X9956833Y-14475428D01*
X9956833Y-14475428D02*
X9975880Y-14465904D01*
X10071118Y-14418285D02*
X10071118Y-14618285D01*
X10071118Y-14427809D02*
X10090166Y-14418285D01*
X10090166Y-14418285D02*
X10128261Y-14418285D01*
X10128261Y-14418285D02*
X10147309Y-14427809D01*
X10147309Y-14427809D02*
X10156833Y-14437332D01*
X10156833Y-14437332D02*
X10166357Y-14456380D01*
X10166357Y-14456380D02*
X10166357Y-14513523D01*
X10166357Y-14513523D02*
X10156833Y-14532570D01*
X10156833Y-14532570D02*
X10147309Y-14542094D01*
X10147309Y-14542094D02*
X10128261Y-14551618D01*
X10128261Y-14551618D02*
X10090166Y-14551618D01*
X10090166Y-14551618D02*
X10071118Y-14542094D01*
X10252071Y-14532570D02*
X10261595Y-14542094D01*
X10261595Y-14542094D02*
X10252071Y-14551618D01*
X10252071Y-14551618D02*
X10242547Y-14542094D01*
X10242547Y-14542094D02*
X10252071Y-14532570D01*
X10252071Y-14532570D02*
X10252071Y-14551618D01*
X10252071Y-14427809D02*
X10261595Y-14437332D01*
X10261595Y-14437332D02*
X10252071Y-14446856D01*
X10252071Y-14446856D02*
X10242547Y-14437332D01*
X10242547Y-14437332D02*
X10252071Y-14427809D01*
X10252071Y-14427809D02*
X10252071Y-14446856D01*
X8419865Y-14780134D02*
X8619865Y-14980134D01*
X8619865Y-14780134D02*
X8419865Y-14980134D01*
X8871118Y-14790666D02*
X8880642Y-14781142D01*
X8880642Y-14781142D02*
X8899690Y-14771618D01*
X8899690Y-14771618D02*
X8947309Y-14771618D01*
X8947309Y-14771618D02*
X8966357Y-14781142D01*
X8966357Y-14781142D02*
X8975880Y-14790666D01*
X8975880Y-14790666D02*
X8985404Y-14809713D01*
X8985404Y-14809713D02*
X8985404Y-14828761D01*
X8985404Y-14828761D02*
X8975880Y-14857332D01*
X8975880Y-14857332D02*
X8861595Y-14971618D01*
X8861595Y-14971618D02*
X8985404Y-14971618D01*
X9071118Y-14952570D02*
X9080642Y-14962094D01*
X9080642Y-14962094D02*
X9071118Y-14971618D01*
X9071118Y-14971618D02*
X9061595Y-14962094D01*
X9061595Y-14962094D02*
X9071118Y-14952570D01*
X9071118Y-14952570D02*
X9071118Y-14971618D01*
X9271118Y-14971618D02*
X9156833Y-14971618D01*
X9213976Y-14971618D02*
X9213976Y-14771618D01*
X9213976Y-14771618D02*
X9194928Y-14800190D01*
X9194928Y-14800190D02*
X9175880Y-14819237D01*
X9175880Y-14819237D02*
X9156833Y-14828761D01*
X9394928Y-14771618D02*
X9413976Y-14771618D01*
X9413976Y-14771618D02*
X9433023Y-14781142D01*
X9433023Y-14781142D02*
X9442547Y-14790666D01*
X9442547Y-14790666D02*
X9452071Y-14809713D01*
X9452071Y-14809713D02*
X9461595Y-14847809D01*
X9461595Y-14847809D02*
X9461595Y-14895428D01*
X9461595Y-14895428D02*
X9452071Y-14933523D01*
X9452071Y-14933523D02*
X9442547Y-14952570D01*
X9442547Y-14952570D02*
X9433023Y-14962094D01*
X9433023Y-14962094D02*
X9413976Y-14971618D01*
X9413976Y-14971618D02*
X9394928Y-14971618D01*
X9394928Y-14971618D02*
X9375880Y-14962094D01*
X9375880Y-14962094D02*
X9366357Y-14952570D01*
X9366357Y-14952570D02*
X9356833Y-14933523D01*
X9356833Y-14933523D02*
X9347309Y-14895428D01*
X9347309Y-14895428D02*
X9347309Y-14847809D01*
X9347309Y-14847809D02*
X9356833Y-14809713D01*
X9356833Y-14809713D02*
X9366357Y-14790666D01*
X9366357Y-14790666D02*
X9375880Y-14781142D01*
X9375880Y-14781142D02*
X9394928Y-14771618D01*
X9585404Y-14771618D02*
X9604452Y-14771618D01*
X9604452Y-14771618D02*
X9623499Y-14781142D01*
X9623499Y-14781142D02*
X9633023Y-14790666D01*
X9633023Y-14790666D02*
X9642547Y-14809713D01*
X9642547Y-14809713D02*
X9652071Y-14847809D01*
X9652071Y-14847809D02*
X9652071Y-14895428D01*
X9652071Y-14895428D02*
X9642547Y-14933523D01*
X9642547Y-14933523D02*
X9633023Y-14952570D01*
X9633023Y-14952570D02*
X9623499Y-14962094D01*
X9623499Y-14962094D02*
X9604452Y-14971618D01*
X9604452Y-14971618D02*
X9585404Y-14971618D01*
X9585404Y-14971618D02*
X9566357Y-14962094D01*
X9566357Y-14962094D02*
X9556833Y-14952570D01*
X9556833Y-14952570D02*
X9547309Y-14933523D01*
X9547309Y-14933523D02*
X9537785Y-14895428D01*
X9537785Y-14895428D02*
X9537785Y-14847809D01*
X9537785Y-14847809D02*
X9547309Y-14809713D01*
X9547309Y-14809713D02*
X9556833Y-14790666D01*
X9556833Y-14790666D02*
X9566357Y-14781142D01*
X9566357Y-14781142D02*
X9585404Y-14771618D01*
X9737785Y-14971618D02*
X9737785Y-14838285D01*
X9737785Y-14857332D02*
X9747309Y-14847809D01*
X9747309Y-14847809D02*
X9766357Y-14838285D01*
X9766357Y-14838285D02*
X9794928Y-14838285D01*
X9794928Y-14838285D02*
X9813976Y-14847809D01*
X9813976Y-14847809D02*
X9823499Y-14866856D01*
X9823499Y-14866856D02*
X9823499Y-14971618D01*
X9823499Y-14866856D02*
X9833023Y-14847809D01*
X9833023Y-14847809D02*
X9852071Y-14838285D01*
X9852071Y-14838285D02*
X9880642Y-14838285D01*
X9880642Y-14838285D02*
X9899690Y-14847809D01*
X9899690Y-14847809D02*
X9909214Y-14866856D01*
X9909214Y-14866856D02*
X9909214Y-14971618D01*
X10004452Y-14971618D02*
X10004452Y-14838285D01*
X10004452Y-14857332D02*
X10013976Y-14847809D01*
X10013976Y-14847809D02*
X10033023Y-14838285D01*
X10033023Y-14838285D02*
X10061595Y-14838285D01*
X10061595Y-14838285D02*
X10080642Y-14847809D01*
X10080642Y-14847809D02*
X10090166Y-14866856D01*
X10090166Y-14866856D02*
X10090166Y-14971618D01*
X10090166Y-14866856D02*
X10099690Y-14847809D01*
X10099690Y-14847809D02*
X10118738Y-14838285D01*
X10118738Y-14838285D02*
X10147309Y-14838285D01*
X10147309Y-14838285D02*
X10166357Y-14847809D01*
X10166357Y-14847809D02*
X10175880Y-14866856D01*
X10175880Y-14866856D02*
X10175880Y-14971618D01*
X10566357Y-14762094D02*
X10394928Y-15019237D01*
X10823500Y-14771618D02*
X10842547Y-14771618D01*
X10842547Y-14771618D02*
X10861595Y-14781142D01*
X10861595Y-14781142D02*
X10871119Y-14790666D01*
X10871119Y-14790666D02*
X10880642Y-14809713D01*
X10880642Y-14809713D02*
X10890166Y-14847809D01*
X10890166Y-14847809D02*
X10890166Y-14895428D01*
X10890166Y-14895428D02*
X10880642Y-14933523D01*
X10880642Y-14933523D02*
X10871119Y-14952570D01*
X10871119Y-14952570D02*
X10861595Y-14962094D01*
X10861595Y-14962094D02*
X10842547Y-14971618D01*
X10842547Y-14971618D02*
X10823500Y-14971618D01*
X10823500Y-14971618D02*
X10804452Y-14962094D01*
X10804452Y-14962094D02*
X10794928Y-14952570D01*
X10794928Y-14952570D02*
X10785404Y-14933523D01*
X10785404Y-14933523D02*
X10775881Y-14895428D01*
X10775881Y-14895428D02*
X10775881Y-14847809D01*
X10775881Y-14847809D02*
X10785404Y-14809713D01*
X10785404Y-14809713D02*
X10794928Y-14790666D01*
X10794928Y-14790666D02*
X10804452Y-14781142D01*
X10804452Y-14781142D02*
X10823500Y-14771618D01*
X10975881Y-14952570D02*
X10985404Y-14962094D01*
X10985404Y-14962094D02*
X10975881Y-14971618D01*
X10975881Y-14971618D02*
X10966357Y-14962094D01*
X10966357Y-14962094D02*
X10975881Y-14952570D01*
X10975881Y-14952570D02*
X10975881Y-14971618D01*
X11109214Y-14771618D02*
X11128262Y-14771618D01*
X11128262Y-14771618D02*
X11147309Y-14781142D01*
X11147309Y-14781142D02*
X11156833Y-14790666D01*
X11156833Y-14790666D02*
X11166357Y-14809713D01*
X11166357Y-14809713D02*
X11175881Y-14847809D01*
X11175881Y-14847809D02*
X11175881Y-14895428D01*
X11175881Y-14895428D02*
X11166357Y-14933523D01*
X11166357Y-14933523D02*
X11156833Y-14952570D01*
X11156833Y-14952570D02*
X11147309Y-14962094D01*
X11147309Y-14962094D02*
X11128262Y-14971618D01*
X11128262Y-14971618D02*
X11109214Y-14971618D01*
X11109214Y-14971618D02*
X11090166Y-14962094D01*
X11090166Y-14962094D02*
X11080642Y-14952570D01*
X11080642Y-14952570D02*
X11071119Y-14933523D01*
X11071119Y-14933523D02*
X11061595Y-14895428D01*
X11061595Y-14895428D02*
X11061595Y-14847809D01*
X11061595Y-14847809D02*
X11071119Y-14809713D01*
X11071119Y-14809713D02*
X11080642Y-14790666D01*
X11080642Y-14790666D02*
X11090166Y-14781142D01*
X11090166Y-14781142D02*
X11109214Y-14771618D01*
X11290166Y-14857332D02*
X11271119Y-14847809D01*
X11271119Y-14847809D02*
X11261595Y-14838285D01*
X11261595Y-14838285D02*
X11252071Y-14819237D01*
X11252071Y-14819237D02*
X11252071Y-14809713D01*
X11252071Y-14809713D02*
X11261595Y-14790666D01*
X11261595Y-14790666D02*
X11271119Y-14781142D01*
X11271119Y-14781142D02*
X11290166Y-14771618D01*
X11290166Y-14771618D02*
X11328261Y-14771618D01*
X11328261Y-14771618D02*
X11347309Y-14781142D01*
X11347309Y-14781142D02*
X11356833Y-14790666D01*
X11356833Y-14790666D02*
X11366357Y-14809713D01*
X11366357Y-14809713D02*
X11366357Y-14819237D01*
X11366357Y-14819237D02*
X11356833Y-14838285D01*
X11356833Y-14838285D02*
X11347309Y-14847809D01*
X11347309Y-14847809D02*
X11328261Y-14857332D01*
X11328261Y-14857332D02*
X11290166Y-14857332D01*
X11290166Y-14857332D02*
X11271119Y-14866856D01*
X11271119Y-14866856D02*
X11261595Y-14876380D01*
X11261595Y-14876380D02*
X11252071Y-14895428D01*
X11252071Y-14895428D02*
X11252071Y-14933523D01*
X11252071Y-14933523D02*
X11261595Y-14952570D01*
X11261595Y-14952570D02*
X11271119Y-14962094D01*
X11271119Y-14962094D02*
X11290166Y-14971618D01*
X11290166Y-14971618D02*
X11328261Y-14971618D01*
X11328261Y-14971618D02*
X11347309Y-14962094D01*
X11347309Y-14962094D02*
X11356833Y-14952570D01*
X11356833Y-14952570D02*
X11366357Y-14933523D01*
X11366357Y-14933523D02*
X11366357Y-14895428D01*
X11366357Y-14895428D02*
X11356833Y-14876380D01*
X11356833Y-14876380D02*
X11347309Y-14866856D01*
X11347309Y-14866856D02*
X11328261Y-14857332D01*
X11442547Y-14790666D02*
X11452071Y-14781142D01*
X11452071Y-14781142D02*
X11471119Y-14771618D01*
X11471119Y-14771618D02*
X11518738Y-14771618D01*
X11518738Y-14771618D02*
X11537785Y-14781142D01*
X11537785Y-14781142D02*
X11547309Y-14790666D01*
X11547309Y-14790666D02*
X11556833Y-14809713D01*
X11556833Y-14809713D02*
X11556833Y-14828761D01*
X11556833Y-14828761D02*
X11547309Y-14857332D01*
X11547309Y-14857332D02*
X11433023Y-14971618D01*
X11433023Y-14971618D02*
X11556833Y-14971618D01*
X11623500Y-14771618D02*
X11756833Y-14771618D01*
X11756833Y-14771618D02*
X11671119Y-14971618D01*
X11823500Y-14771618D02*
X11823500Y-14809713D01*
X11899690Y-14771618D02*
X11899690Y-14809713D01*
X12194928Y-15047809D02*
X12185404Y-15038285D01*
X12185404Y-15038285D02*
X12166357Y-15009713D01*
X12166357Y-15009713D02*
X12156833Y-14990666D01*
X12156833Y-14990666D02*
X12147309Y-14962094D01*
X12147309Y-14962094D02*
X12137785Y-14914475D01*
X12137785Y-14914475D02*
X12137785Y-14876380D01*
X12137785Y-14876380D02*
X12147309Y-14828761D01*
X12147309Y-14828761D02*
X12156833Y-14800190D01*
X12156833Y-14800190D02*
X12166357Y-14781142D01*
X12166357Y-14781142D02*
X12185404Y-14752570D01*
X12185404Y-14752570D02*
X12194928Y-14743047D01*
X12261595Y-14790666D02*
X12271119Y-14781142D01*
X12271119Y-14781142D02*
X12290166Y-14771618D01*
X12290166Y-14771618D02*
X12337785Y-14771618D01*
X12337785Y-14771618D02*
X12356833Y-14781142D01*
X12356833Y-14781142D02*
X12366357Y-14790666D01*
X12366357Y-14790666D02*
X12375881Y-14809713D01*
X12375881Y-14809713D02*
X12375881Y-14828761D01*
X12375881Y-14828761D02*
X12366357Y-14857332D01*
X12366357Y-14857332D02*
X12252071Y-14971618D01*
X12252071Y-14971618D02*
X12375881Y-14971618D01*
X12613976Y-14971618D02*
X12613976Y-14771618D01*
X12699690Y-14971618D02*
X12699690Y-14866856D01*
X12699690Y-14866856D02*
X12690166Y-14847809D01*
X12690166Y-14847809D02*
X12671119Y-14838285D01*
X12671119Y-14838285D02*
X12642547Y-14838285D01*
X12642547Y-14838285D02*
X12623500Y-14847809D01*
X12623500Y-14847809D02*
X12613976Y-14857332D01*
X12823500Y-14971618D02*
X12804452Y-14962094D01*
X12804452Y-14962094D02*
X12794928Y-14952570D01*
X12794928Y-14952570D02*
X12785404Y-14933523D01*
X12785404Y-14933523D02*
X12785404Y-14876380D01*
X12785404Y-14876380D02*
X12794928Y-14857332D01*
X12794928Y-14857332D02*
X12804452Y-14847809D01*
X12804452Y-14847809D02*
X12823500Y-14838285D01*
X12823500Y-14838285D02*
X12852071Y-14838285D01*
X12852071Y-14838285D02*
X12871119Y-14847809D01*
X12871119Y-14847809D02*
X12880643Y-14857332D01*
X12880643Y-14857332D02*
X12890166Y-14876380D01*
X12890166Y-14876380D02*
X12890166Y-14933523D01*
X12890166Y-14933523D02*
X12880643Y-14952570D01*
X12880643Y-14952570D02*
X12871119Y-14962094D01*
X12871119Y-14962094D02*
X12852071Y-14971618D01*
X12852071Y-14971618D02*
X12823500Y-14971618D01*
X13004452Y-14971618D02*
X12985404Y-14962094D01*
X12985404Y-14962094D02*
X12975881Y-14943047D01*
X12975881Y-14943047D02*
X12975881Y-14771618D01*
X13156833Y-14962094D02*
X13137785Y-14971618D01*
X13137785Y-14971618D02*
X13099690Y-14971618D01*
X13099690Y-14971618D02*
X13080643Y-14962094D01*
X13080643Y-14962094D02*
X13071119Y-14943047D01*
X13071119Y-14943047D02*
X13071119Y-14866856D01*
X13071119Y-14866856D02*
X13080643Y-14847809D01*
X13080643Y-14847809D02*
X13099690Y-14838285D01*
X13099690Y-14838285D02*
X13137785Y-14838285D01*
X13137785Y-14838285D02*
X13156833Y-14847809D01*
X13156833Y-14847809D02*
X13166357Y-14866856D01*
X13166357Y-14866856D02*
X13166357Y-14885904D01*
X13166357Y-14885904D02*
X13071119Y-14904951D01*
X13242547Y-14962094D02*
X13261595Y-14971618D01*
X13261595Y-14971618D02*
X13299690Y-14971618D01*
X13299690Y-14971618D02*
X13318738Y-14962094D01*
X13318738Y-14962094D02*
X13328262Y-14943047D01*
X13328262Y-14943047D02*
X13328262Y-14933523D01*
X13328262Y-14933523D02*
X13318738Y-14914475D01*
X13318738Y-14914475D02*
X13299690Y-14904951D01*
X13299690Y-14904951D02*
X13271119Y-14904951D01*
X13271119Y-14904951D02*
X13252071Y-14895428D01*
X13252071Y-14895428D02*
X13242547Y-14876380D01*
X13242547Y-14876380D02*
X13242547Y-14866856D01*
X13242547Y-14866856D02*
X13252071Y-14847809D01*
X13252071Y-14847809D02*
X13271119Y-14838285D01*
X13271119Y-14838285D02*
X13299690Y-14838285D01*
X13299690Y-14838285D02*
X13318738Y-14847809D01*
X13394928Y-15047809D02*
X13404452Y-15038285D01*
X13404452Y-15038285D02*
X13423500Y-15009713D01*
X13423500Y-15009713D02*
X13433024Y-14990666D01*
X13433024Y-14990666D02*
X13442547Y-14962094D01*
X13442547Y-14962094D02*
X13452071Y-14914475D01*
X13452071Y-14914475D02*
X13452071Y-14876380D01*
X13452071Y-14876380D02*
X13442547Y-14828761D01*
X13442547Y-14828761D02*
X13433024Y-14800190D01*
X13433024Y-14800190D02*
X13423500Y-14781142D01*
X13423500Y-14781142D02*
X13404452Y-14752570D01*
X13404452Y-14752570D02*
X13394928Y-14743047D01*
X13756833Y-15047809D02*
X13747309Y-15038285D01*
X13747309Y-15038285D02*
X13728262Y-15009713D01*
X13728262Y-15009713D02*
X13718738Y-14990666D01*
X13718738Y-14990666D02*
X13709214Y-14962094D01*
X13709214Y-14962094D02*
X13699690Y-14914475D01*
X13699690Y-14914475D02*
X13699690Y-14876380D01*
X13699690Y-14876380D02*
X13709214Y-14828761D01*
X13709214Y-14828761D02*
X13718738Y-14800190D01*
X13718738Y-14800190D02*
X13728262Y-14781142D01*
X13728262Y-14781142D02*
X13747309Y-14752570D01*
X13747309Y-14752570D02*
X13756833Y-14743047D01*
X13833024Y-14838285D02*
X13833024Y-14971618D01*
X13833024Y-14857332D02*
X13842547Y-14847809D01*
X13842547Y-14847809D02*
X13861595Y-14838285D01*
X13861595Y-14838285D02*
X13890166Y-14838285D01*
X13890166Y-14838285D02*
X13909214Y-14847809D01*
X13909214Y-14847809D02*
X13918738Y-14866856D01*
X13918738Y-14866856D02*
X13918738Y-14971618D01*
X14042547Y-14971618D02*
X14023500Y-14962094D01*
X14023500Y-14962094D02*
X14013976Y-14952570D01*
X14013976Y-14952570D02*
X14004452Y-14933523D01*
X14004452Y-14933523D02*
X14004452Y-14876380D01*
X14004452Y-14876380D02*
X14013976Y-14857332D01*
X14013976Y-14857332D02*
X14023500Y-14847809D01*
X14023500Y-14847809D02*
X14042547Y-14838285D01*
X14042547Y-14838285D02*
X14071119Y-14838285D01*
X14071119Y-14838285D02*
X14090166Y-14847809D01*
X14090166Y-14847809D02*
X14099690Y-14857332D01*
X14099690Y-14857332D02*
X14109214Y-14876380D01*
X14109214Y-14876380D02*
X14109214Y-14933523D01*
X14109214Y-14933523D02*
X14099690Y-14952570D01*
X14099690Y-14952570D02*
X14090166Y-14962094D01*
X14090166Y-14962094D02*
X14071119Y-14971618D01*
X14071119Y-14971618D02*
X14042547Y-14971618D01*
X14166357Y-14838285D02*
X14242547Y-14838285D01*
X14194928Y-14771618D02*
X14194928Y-14943047D01*
X14194928Y-14943047D02*
X14204452Y-14962094D01*
X14204452Y-14962094D02*
X14223500Y-14971618D01*
X14223500Y-14971618D02*
X14242547Y-14971618D01*
X14461595Y-14838285D02*
X14461595Y-15038285D01*
X14461595Y-14847809D02*
X14480643Y-14838285D01*
X14480643Y-14838285D02*
X14518738Y-14838285D01*
X14518738Y-14838285D02*
X14537786Y-14847809D01*
X14537786Y-14847809D02*
X14547309Y-14857332D01*
X14547309Y-14857332D02*
X14556833Y-14876380D01*
X14556833Y-14876380D02*
X14556833Y-14933523D01*
X14556833Y-14933523D02*
X14547309Y-14952570D01*
X14547309Y-14952570D02*
X14537786Y-14962094D01*
X14537786Y-14962094D02*
X14518738Y-14971618D01*
X14518738Y-14971618D02*
X14480643Y-14971618D01*
X14480643Y-14971618D02*
X14461595Y-14962094D01*
X14671119Y-14971618D02*
X14652071Y-14962094D01*
X14652071Y-14962094D02*
X14642547Y-14943047D01*
X14642547Y-14943047D02*
X14642547Y-14771618D01*
X14833024Y-14971618D02*
X14833024Y-14866856D01*
X14833024Y-14866856D02*
X14823500Y-14847809D01*
X14823500Y-14847809D02*
X14804452Y-14838285D01*
X14804452Y-14838285D02*
X14766357Y-14838285D01*
X14766357Y-14838285D02*
X14747309Y-14847809D01*
X14833024Y-14962094D02*
X14813976Y-14971618D01*
X14813976Y-14971618D02*
X14766357Y-14971618D01*
X14766357Y-14971618D02*
X14747309Y-14962094D01*
X14747309Y-14962094D02*
X14737786Y-14943047D01*
X14737786Y-14943047D02*
X14737786Y-14923999D01*
X14737786Y-14923999D02*
X14747309Y-14904951D01*
X14747309Y-14904951D02*
X14766357Y-14895428D01*
X14766357Y-14895428D02*
X14813976Y-14895428D01*
X14813976Y-14895428D02*
X14833024Y-14885904D01*
X14899690Y-14838285D02*
X14975881Y-14838285D01*
X14928262Y-14771618D02*
X14928262Y-14943047D01*
X14928262Y-14943047D02*
X14937786Y-14962094D01*
X14937786Y-14962094D02*
X14956833Y-14971618D01*
X14956833Y-14971618D02*
X14975881Y-14971618D01*
X15118738Y-14962094D02*
X15099690Y-14971618D01*
X15099690Y-14971618D02*
X15061595Y-14971618D01*
X15061595Y-14971618D02*
X15042547Y-14962094D01*
X15042547Y-14962094D02*
X15033024Y-14943047D01*
X15033024Y-14943047D02*
X15033024Y-14866856D01*
X15033024Y-14866856D02*
X15042547Y-14847809D01*
X15042547Y-14847809D02*
X15061595Y-14838285D01*
X15061595Y-14838285D02*
X15099690Y-14838285D01*
X15099690Y-14838285D02*
X15118738Y-14847809D01*
X15118738Y-14847809D02*
X15128262Y-14866856D01*
X15128262Y-14866856D02*
X15128262Y-14885904D01*
X15128262Y-14885904D02*
X15033024Y-14904951D01*
X15299690Y-14971618D02*
X15299690Y-14771618D01*
X15299690Y-14962094D02*
X15280643Y-14971618D01*
X15280643Y-14971618D02*
X15242547Y-14971618D01*
X15242547Y-14971618D02*
X15223500Y-14962094D01*
X15223500Y-14962094D02*
X15213976Y-14952570D01*
X15213976Y-14952570D02*
X15204452Y-14933523D01*
X15204452Y-14933523D02*
X15204452Y-14876380D01*
X15204452Y-14876380D02*
X15213976Y-14857332D01*
X15213976Y-14857332D02*
X15223500Y-14847809D01*
X15223500Y-14847809D02*
X15242547Y-14838285D01*
X15242547Y-14838285D02*
X15280643Y-14838285D01*
X15280643Y-14838285D02*
X15299690Y-14847809D01*
X15375881Y-15047809D02*
X15385405Y-15038285D01*
X15385405Y-15038285D02*
X15404452Y-15009713D01*
X15404452Y-15009713D02*
X15413976Y-14990666D01*
X15413976Y-14990666D02*
X15423500Y-14962094D01*
X15423500Y-14962094D02*
X15433024Y-14914475D01*
X15433024Y-14914475D02*
X15433024Y-14876380D01*
X15433024Y-14876380D02*
X15423500Y-14828761D01*
X15423500Y-14828761D02*
X15413976Y-14800190D01*
X15413976Y-14800190D02*
X15404452Y-14781142D01*
X15404452Y-14781142D02*
X15385405Y-14752570D01*
X15385405Y-14752570D02*
X15375881Y-14743047D01*
M02*
