%TF.GenerationSoftware,KiCad,Pcbnew,8.0.6*%
%TF.CreationDate,2024-11-26T17:38:28-05:00*%
%TF.ProjectId,Christmas Ornament 2024,43687269-7374-46d6-9173-204f726e616d,rev?*%
%TF.SameCoordinates,Original*%
%TF.FileFunction,Copper,L3,Inr*%
%TF.FilePolarity,Positive*%
%FSLAX46Y46*%
G04 Gerber Fmt 4.6, Leading zero omitted, Abs format (unit mm)*
G04 Created by KiCad (PCBNEW 8.0.6) date 2024-11-26 17:38:28*
%MOMM*%
%LPD*%
G01*
G04 APERTURE LIST*
%TA.AperFunction,ComponentPad*%
%ADD10R,1.700000X1.700000*%
%TD*%
%TA.AperFunction,ComponentPad*%
%ADD11O,1.700000X1.700000*%
%TD*%
%TA.AperFunction,ComponentPad*%
%ADD12O,1.350000X1.700000*%
%TD*%
%TA.AperFunction,ComponentPad*%
%ADD13O,1.100000X1.500000*%
%TD*%
%TA.AperFunction,ViaPad*%
%ADD14C,0.600000*%
%TD*%
G04 APERTURE END LIST*
D10*
%TO.N,+5C*%
%TO.C,J4*%
X128270000Y-120904000D03*
D11*
%TO.N,+5ish*%
X128270000Y-123444000D03*
%TO.N,+5V*%
X128270000Y-125984000D03*
%TD*%
D10*
%TO.N,+BATT*%
%TO.C,J5*%
X143020000Y-118760000D03*
D11*
%TO.N,unconnected-(J5-Pin_2-Pad2)*%
X143020000Y-121300000D03*
%TO.N,GND*%
X143020000Y-123840000D03*
%TD*%
D12*
%TO.N,GND*%
%TO.C,J1*%
X129755000Y-52560000D03*
D13*
X129444999Y-55559999D03*
X124605000Y-55560000D03*
D12*
X124295000Y-52560000D03*
%TD*%
D14*
%TO.N,GND*%
X128550000Y-136900000D03*
X142750000Y-133650000D03*
X153800000Y-125400000D03*
X160750000Y-113450000D03*
X163000000Y-99750000D03*
X159700000Y-85950000D03*
X125350000Y-65650000D03*
%TO.N,+3V3*%
X114500000Y-113700000D03*
X134000000Y-83600000D03*
X116100000Y-113700000D03*
X146600000Y-109600000D03*
X122300000Y-81100000D03*
X124206000Y-98298000D03*
X140800000Y-87900000D03*
X146800000Y-87400000D03*
X138900000Y-76200000D03*
X128700000Y-59300000D03*
X114600000Y-110700000D03*
X148200000Y-87400000D03*
X145300000Y-87400000D03*
X115900000Y-110700000D03*
X128700000Y-63800000D03*
X128036549Y-100663451D03*
X149000000Y-100000000D03*
X135500000Y-94100000D03*
X135300000Y-99100000D03*
%TO.N,GND*%
X116300000Y-134500000D03*
X140562500Y-97667500D03*
X136000000Y-108200000D03*
X149000000Y-87900000D03*
X92100000Y-104200000D03*
X129000000Y-99025000D03*
X132300000Y-94600000D03*
X130700000Y-103500000D03*
X150200000Y-98982500D03*
X129186403Y-97825000D03*
X143300000Y-80500000D03*
X124300000Y-102800000D03*
X104600000Y-128100000D03*
X138500000Y-87900000D03*
X120396000Y-115062000D03*
X132000000Y-99100000D03*
X139562500Y-98700000D03*
X95600000Y-117500000D03*
X140000000Y-87900000D03*
X135100000Y-85700000D03*
X125200000Y-100300000D03*
X136000000Y-79500000D03*
X125300000Y-59300000D03*
X151300000Y-95500000D03*
X147500000Y-87900000D03*
X144500000Y-108100000D03*
X139300000Y-102600000D03*
X104000000Y-130800000D03*
X146000000Y-108100000D03*
X111900000Y-71200000D03*
X125300000Y-63900000D03*
X149500000Y-75000000D03*
X144500000Y-87900000D03*
X137600000Y-67800000D03*
X93500000Y-90700000D03*
X123200000Y-98300000D03*
X122200000Y-91800000D03*
X100500000Y-79200000D03*
X146000000Y-87900000D03*
X110236000Y-115062000D03*
X113030000Y-116332000D03*
X137000000Y-87900000D03*
X126700000Y-88800000D03*
X145900000Y-134900000D03*
X148450000Y-116550000D03*
%TO.N,+BATT*%
X131200000Y-119200000D03*
%TO.N,+5V*%
X128400000Y-57500000D03*
%TO.N,Net-(JP1-B)*%
X127000000Y-98806000D03*
%TO.N,QSPI SS*%
X122100000Y-66100000D03*
X124600000Y-82100000D03*
%TO.N,Net-(SW1-A)*%
X142900000Y-102800000D03*
X132000000Y-66400000D03*
%TD*%
%TA.AperFunction,Conductor*%
%TO.N,+3V3*%
G36*
X123484769Y-51320185D02*
G01*
X123530524Y-51372989D01*
X123540468Y-51442147D01*
X123511443Y-51505703D01*
X123505411Y-51512181D01*
X123398381Y-51619210D01*
X123398381Y-51619211D01*
X123398379Y-51619213D01*
X123351672Y-51683499D01*
X123289622Y-51768903D01*
X123205620Y-51933764D01*
X123205619Y-51933767D01*
X123148445Y-52109734D01*
X123119500Y-52292486D01*
X123119500Y-52827513D01*
X123148445Y-53010265D01*
X123205619Y-53186232D01*
X123205620Y-53186235D01*
X123289622Y-53351096D01*
X123398379Y-53500787D01*
X123529213Y-53631621D01*
X123678904Y-53740378D01*
X123759763Y-53781577D01*
X123843764Y-53824379D01*
X123843767Y-53824380D01*
X123931750Y-53852967D01*
X124019736Y-53881555D01*
X124202486Y-53910500D01*
X124202487Y-53910500D01*
X124387513Y-53910500D01*
X124387514Y-53910500D01*
X124570264Y-53881555D01*
X124746235Y-53824379D01*
X124911096Y-53740378D01*
X125060787Y-53631621D01*
X125191621Y-53500787D01*
X125300378Y-53351096D01*
X125384379Y-53186235D01*
X125441555Y-53010264D01*
X125470500Y-52827514D01*
X125470500Y-52292486D01*
X125441555Y-52109736D01*
X125384379Y-51933765D01*
X125384379Y-51933764D01*
X125315232Y-51798057D01*
X125300378Y-51768904D01*
X125191621Y-51619213D01*
X125084589Y-51512181D01*
X125051104Y-51450858D01*
X125056088Y-51381166D01*
X125097960Y-51325233D01*
X125163424Y-51300816D01*
X125172270Y-51300500D01*
X128877730Y-51300500D01*
X128944769Y-51320185D01*
X128990524Y-51372989D01*
X129000468Y-51442147D01*
X128971443Y-51505703D01*
X128965411Y-51512181D01*
X128858381Y-51619210D01*
X128858381Y-51619211D01*
X128858379Y-51619213D01*
X128811672Y-51683499D01*
X128749622Y-51768903D01*
X128665620Y-51933764D01*
X128665619Y-51933767D01*
X128608445Y-52109734D01*
X128579500Y-52292486D01*
X128579500Y-52827513D01*
X128608445Y-53010265D01*
X128665619Y-53186232D01*
X128665620Y-53186235D01*
X128749622Y-53351096D01*
X128858379Y-53500787D01*
X128989213Y-53631621D01*
X129138904Y-53740378D01*
X129219763Y-53781577D01*
X129303764Y-53824379D01*
X129303767Y-53824380D01*
X129391750Y-53852967D01*
X129479736Y-53881555D01*
X129662486Y-53910500D01*
X129662487Y-53910500D01*
X129847513Y-53910500D01*
X129847514Y-53910500D01*
X130030264Y-53881555D01*
X130206235Y-53824379D01*
X130371096Y-53740378D01*
X130520787Y-53631621D01*
X130651621Y-53500787D01*
X130760378Y-53351096D01*
X130844379Y-53186235D01*
X130901555Y-53010264D01*
X130930500Y-52827514D01*
X130930500Y-52292486D01*
X130901555Y-52109736D01*
X130844379Y-51933765D01*
X130844379Y-51933764D01*
X130775232Y-51798057D01*
X130760378Y-51768904D01*
X130651621Y-51619213D01*
X130544589Y-51512181D01*
X130511104Y-51450858D01*
X130516088Y-51381166D01*
X130557960Y-51325233D01*
X130623424Y-51300816D01*
X130632270Y-51300500D01*
X131969693Y-51300500D01*
X132036732Y-51320185D01*
X132082487Y-51372989D01*
X132092431Y-51442147D01*
X132063406Y-51505703D01*
X132008013Y-51542430D01*
X132003506Y-51543894D01*
X132000777Y-51544781D01*
X131818386Y-51637715D01*
X131652786Y-51758028D01*
X131508028Y-51902786D01*
X131387715Y-52068386D01*
X131294781Y-52250776D01*
X131231522Y-52445465D01*
X131199500Y-52647648D01*
X131199500Y-52852351D01*
X131231522Y-53054534D01*
X131294781Y-53249223D01*
X131387715Y-53431613D01*
X131508028Y-53597213D01*
X131652786Y-53741971D01*
X131766215Y-53824380D01*
X131818390Y-53862287D01*
X131934607Y-53921503D01*
X132000776Y-53955218D01*
X132000778Y-53955218D01*
X132000781Y-53955220D01*
X132105137Y-53989127D01*
X132195465Y-54018477D01*
X132296557Y-54034488D01*
X132397648Y-54050500D01*
X132397649Y-54050500D01*
X132602351Y-54050500D01*
X132602352Y-54050500D01*
X132804534Y-54018477D01*
X132999219Y-53955220D01*
X133181610Y-53862287D01*
X133274590Y-53794732D01*
X133347213Y-53741971D01*
X133347215Y-53741968D01*
X133347219Y-53741966D01*
X133491966Y-53597219D01*
X133491968Y-53597215D01*
X133491971Y-53597213D01*
X133562026Y-53500789D01*
X133612287Y-53431610D01*
X133705220Y-53249219D01*
X133768477Y-53054534D01*
X133800500Y-52852352D01*
X133800500Y-52647648D01*
X133772472Y-52470686D01*
X133768477Y-52445465D01*
X133705218Y-52250776D01*
X133671503Y-52184607D01*
X133612287Y-52068390D01*
X133604556Y-52057749D01*
X133491971Y-51902786D01*
X133347213Y-51758028D01*
X133181613Y-51637715D01*
X133181612Y-51637714D01*
X133181610Y-51637713D01*
X133051550Y-51571444D01*
X132999222Y-51544781D01*
X132999219Y-51544780D01*
X132991986Y-51542430D01*
X132934313Y-51502992D01*
X132907115Y-51438634D01*
X132919030Y-51369787D01*
X132966275Y-51318312D01*
X133030307Y-51300500D01*
X133555401Y-51300500D01*
X133555405Y-51300501D01*
X133614337Y-51300500D01*
X133628207Y-51301277D01*
X133718486Y-51311440D01*
X133745534Y-51317608D01*
X133824680Y-51345278D01*
X133849678Y-51357305D01*
X133920690Y-51401878D01*
X133942391Y-51419165D01*
X134001718Y-51478416D01*
X134019031Y-51500093D01*
X134063694Y-51571041D01*
X134075756Y-51596028D01*
X134103528Y-51675138D01*
X134109731Y-51702178D01*
X134120005Y-51792382D01*
X134120802Y-51806254D01*
X134133470Y-61589591D01*
X134131269Y-61613009D01*
X134130075Y-61619260D01*
X134130074Y-61619266D01*
X134133246Y-61662656D01*
X134133576Y-61671528D01*
X134133634Y-61715023D01*
X134135286Y-61721157D01*
X134139221Y-61744355D01*
X134139684Y-61750692D01*
X134139685Y-61750696D01*
X134153979Y-61791784D01*
X134156597Y-61800279D01*
X134167906Y-61842270D01*
X134167908Y-61842275D01*
X134171095Y-61847779D01*
X134180897Y-61869161D01*
X134182986Y-61875165D01*
X134207422Y-61911148D01*
X134212146Y-61918671D01*
X134233943Y-61956311D01*
X134233944Y-61956312D01*
X134233946Y-61956315D01*
X134238445Y-61960802D01*
X134253451Y-61978924D01*
X134257024Y-61984185D01*
X134257025Y-61984186D01*
X134289955Y-62012628D01*
X134296469Y-62018676D01*
X134327253Y-62049380D01*
X134332762Y-62052551D01*
X134351944Y-62066168D01*
X134356760Y-62070328D01*
X134395927Y-62089277D01*
X134403748Y-62093413D01*
X134441466Y-62115125D01*
X134447607Y-62116762D01*
X134469664Y-62124952D01*
X134475389Y-62127722D01*
X134489988Y-62130511D01*
X134518118Y-62135887D01*
X134526777Y-62137865D01*
X134568804Y-62149068D01*
X134570495Y-62149065D01*
X134595840Y-62151648D01*
X135773913Y-62395997D01*
X135777679Y-62396841D01*
X137000974Y-62690927D01*
X137004667Y-62691876D01*
X138218153Y-63024251D01*
X138221812Y-63025315D01*
X139424257Y-63395639D01*
X139427863Y-63396811D01*
X140618063Y-63804713D01*
X140621688Y-63806019D01*
X141798496Y-64251106D01*
X141802047Y-64252513D01*
X142899370Y-64707427D01*
X142964252Y-64734325D01*
X142967827Y-64735873D01*
X144114321Y-65253950D01*
X144117845Y-65255610D01*
X144556669Y-65470750D01*
X145234391Y-65803014D01*
X145247462Y-65809422D01*
X145250926Y-65811188D01*
X146362651Y-66400239D01*
X146366030Y-66402099D01*
X147403792Y-66994435D01*
X147458680Y-67025764D01*
X147462021Y-67027741D01*
X147571755Y-67095031D01*
X148534531Y-67685413D01*
X148537819Y-67687501D01*
X148981680Y-67979249D01*
X149589162Y-68378544D01*
X149592326Y-68380696D01*
X150193825Y-68803698D01*
X150621464Y-69104435D01*
X150624615Y-69106726D01*
X151630464Y-69862396D01*
X151633541Y-69864784D01*
X152615170Y-70651682D01*
X152618171Y-70654166D01*
X153574604Y-71471513D01*
X153577525Y-71474090D01*
X154507793Y-72321056D01*
X154510632Y-72323723D01*
X155413868Y-73199519D01*
X155416621Y-73202274D01*
X156291873Y-74105975D01*
X156294539Y-74108815D01*
X156390769Y-74214630D01*
X157131351Y-75028980D01*
X157141006Y-75039596D01*
X157143576Y-75042513D01*
X157644895Y-75629816D01*
X157960372Y-75999401D01*
X157962854Y-76002403D01*
X158749180Y-76984460D01*
X158751567Y-76987538D01*
X159506696Y-77993857D01*
X159508984Y-77997009D01*
X160232099Y-79026502D01*
X160234288Y-79029725D01*
X160463749Y-79379255D01*
X160872743Y-80002262D01*
X160924721Y-80081437D01*
X160926796Y-80084708D01*
X161049685Y-80285368D01*
X161583862Y-81157600D01*
X161585844Y-81160953D01*
X162208879Y-82253940D01*
X162210755Y-82257354D01*
X162799164Y-83369391D01*
X162800931Y-83372862D01*
X163348705Y-84491769D01*
X163354102Y-84502792D01*
X163355760Y-84506317D01*
X163873185Y-85653105D01*
X163874731Y-85656681D01*
X164355869Y-86819124D01*
X164357302Y-86822746D01*
X164801700Y-87999752D01*
X164803015Y-88003410D01*
X164828960Y-88079254D01*
X165210217Y-89193769D01*
X165211420Y-89197474D01*
X165581035Y-90400050D01*
X165582121Y-90403791D01*
X165913790Y-91617406D01*
X165914757Y-91621179D01*
X166208130Y-92844561D01*
X166208979Y-92848363D01*
X166463788Y-94080382D01*
X166464517Y-94084208D01*
X166680505Y-95323637D01*
X166681113Y-95327485D01*
X166858058Y-96573040D01*
X166858546Y-96576904D01*
X166996290Y-97827476D01*
X166996655Y-97831354D01*
X167095046Y-99085563D01*
X167095290Y-99089451D01*
X167154242Y-100346185D01*
X167154363Y-100350078D01*
X167173811Y-101608010D01*
X167173810Y-101611905D01*
X167153738Y-102869827D01*
X167153615Y-102873721D01*
X167094041Y-104130429D01*
X167093795Y-104134316D01*
X166994782Y-105388474D01*
X166994415Y-105392352D01*
X166856054Y-106642828D01*
X166855565Y-106646692D01*
X166677995Y-107892212D01*
X166677384Y-107896060D01*
X166460791Y-109135323D01*
X166460061Y-109139149D01*
X166204634Y-110371079D01*
X166203783Y-110374880D01*
X165909796Y-111598147D01*
X165908826Y-111601919D01*
X165576575Y-112815304D01*
X165575488Y-112819045D01*
X165205264Y-114021474D01*
X165204059Y-114025178D01*
X164796273Y-115215318D01*
X164794953Y-115218983D01*
X164349967Y-116395778D01*
X164348532Y-116399399D01*
X163866819Y-117561605D01*
X163865271Y-117565180D01*
X163347288Y-118711685D01*
X163345629Y-118715209D01*
X162791885Y-119844891D01*
X162790116Y-119848361D01*
X162201170Y-120960081D01*
X162199293Y-120963494D01*
X161575702Y-122056196D01*
X161573718Y-122059548D01*
X160916141Y-123132081D01*
X160914053Y-123135370D01*
X160223095Y-124186746D01*
X160220905Y-124189967D01*
X159497274Y-125219109D01*
X159494984Y-125222260D01*
X158739371Y-126228184D01*
X158736983Y-126231261D01*
X157950155Y-127212946D01*
X157947671Y-127215947D01*
X157130392Y-128172440D01*
X157127815Y-128175361D01*
X156280917Y-129105691D01*
X156278250Y-129108530D01*
X155402536Y-130011812D01*
X155399781Y-130014566D01*
X154496127Y-130889898D01*
X154493287Y-130892564D01*
X153562581Y-131739084D01*
X153559659Y-131741659D01*
X152602819Y-132558534D01*
X152599817Y-132561016D01*
X151617818Y-133347411D01*
X151614740Y-133349798D01*
X150608496Y-134104984D01*
X150605344Y-134107273D01*
X149575896Y-134830468D01*
X149572674Y-134832657D01*
X148520997Y-135523175D01*
X148517708Y-135525261D01*
X147444891Y-136182388D01*
X147441537Y-136184371D01*
X146348575Y-136807496D01*
X146345162Y-136809371D01*
X145233204Y-137397841D01*
X145229733Y-137399609D01*
X144099817Y-137952874D01*
X144096292Y-137954532D01*
X142949541Y-138472040D01*
X142945965Y-138473586D01*
X141783566Y-138954803D01*
X141779945Y-138956236D01*
X140602979Y-139400716D01*
X140599313Y-139402035D01*
X139408981Y-139809322D01*
X139405277Y-139810525D01*
X138202719Y-140180231D01*
X138198978Y-140181317D01*
X136985416Y-140513065D01*
X136981643Y-140514033D01*
X135758253Y-140807501D01*
X135754451Y-140808350D01*
X134522450Y-141063248D01*
X134518624Y-141063977D01*
X133279237Y-141280050D01*
X133275389Y-141280659D01*
X132029825Y-141457697D01*
X132025961Y-141458185D01*
X130775394Y-141596020D01*
X130771516Y-141596385D01*
X129517314Y-141694866D01*
X129513426Y-141695110D01*
X128256728Y-141754151D01*
X128252835Y-141754273D01*
X126994872Y-141773811D01*
X126990977Y-141773810D01*
X125733055Y-141753829D01*
X125729161Y-141753706D01*
X124472480Y-141694224D01*
X124468593Y-141693979D01*
X123214396Y-141595054D01*
X123210518Y-141594687D01*
X121960037Y-141456416D01*
X121956173Y-141455927D01*
X120710662Y-141278450D01*
X120706814Y-141277840D01*
X119467477Y-141061327D01*
X119463651Y-141060596D01*
X118244713Y-140807955D01*
X118231757Y-140805269D01*
X118227962Y-140804421D01*
X117004683Y-140510523D01*
X117000910Y-140509554D01*
X115801845Y-140181317D01*
X115787414Y-140177366D01*
X115783699Y-140176286D01*
X115379267Y-140051794D01*
X114581307Y-139806168D01*
X114577602Y-139804964D01*
X113537064Y-139448521D01*
X113387380Y-139397246D01*
X113383720Y-139395928D01*
X112206940Y-138951045D01*
X112203318Y-138949611D01*
X111041029Y-138467960D01*
X111037455Y-138466412D01*
X109890936Y-137948523D01*
X109887411Y-137946864D01*
X108757677Y-137393196D01*
X108754207Y-137391427D01*
X107826399Y-136899996D01*
X127744435Y-136899996D01*
X127744435Y-136900003D01*
X127764630Y-137079249D01*
X127764631Y-137079254D01*
X127824211Y-137249523D01*
X127913376Y-137391427D01*
X127920184Y-137402262D01*
X128047738Y-137529816D01*
X128200478Y-137625789D01*
X128370745Y-137685368D01*
X128370750Y-137685369D01*
X128549996Y-137705565D01*
X128550000Y-137705565D01*
X128550004Y-137705565D01*
X128729249Y-137685369D01*
X128729252Y-137685368D01*
X128729255Y-137685368D01*
X128899522Y-137625789D01*
X129052262Y-137529816D01*
X129179816Y-137402262D01*
X129275789Y-137249522D01*
X129335368Y-137079255D01*
X129355565Y-136900000D01*
X129347935Y-136832285D01*
X129335369Y-136720750D01*
X129335368Y-136720745D01*
X129275788Y-136550476D01*
X129179815Y-136397737D01*
X129052262Y-136270184D01*
X128899523Y-136174211D01*
X128729254Y-136114631D01*
X128729249Y-136114630D01*
X128550004Y-136094435D01*
X128549996Y-136094435D01*
X128370750Y-136114630D01*
X128370745Y-136114631D01*
X128200476Y-136174211D01*
X128047737Y-136270184D01*
X127920184Y-136397737D01*
X127824211Y-136550476D01*
X127764631Y-136720745D01*
X127764630Y-136720750D01*
X127744435Y-136899996D01*
X107826399Y-136899996D01*
X107642445Y-136802561D01*
X107639032Y-136800684D01*
X106546323Y-136177194D01*
X106542970Y-136175211D01*
X105743890Y-135685368D01*
X105470327Y-135517671D01*
X105467049Y-135515590D01*
X105364229Y-135448028D01*
X104415653Y-134824727D01*
X104412431Y-134822537D01*
X103953645Y-134499996D01*
X115494435Y-134499996D01*
X115494435Y-134500003D01*
X115514630Y-134679249D01*
X115514631Y-134679254D01*
X115574211Y-134849523D01*
X115605926Y-134899996D01*
X115670184Y-135002262D01*
X115797738Y-135129816D01*
X115950478Y-135225789D01*
X116018306Y-135249523D01*
X116120745Y-135285368D01*
X116120750Y-135285369D01*
X116299996Y-135305565D01*
X116300000Y-135305565D01*
X116300004Y-135305565D01*
X116479249Y-135285369D01*
X116479252Y-135285368D01*
X116479255Y-135285368D01*
X116649522Y-135225789D01*
X116802262Y-135129816D01*
X116929816Y-135002262D01*
X116994074Y-134899996D01*
X145094435Y-134899996D01*
X145094435Y-134900003D01*
X145114630Y-135079249D01*
X145114631Y-135079254D01*
X145174211Y-135249523D01*
X145196735Y-135285369D01*
X145270184Y-135402262D01*
X145397738Y-135529816D01*
X145550478Y-135625789D01*
X145720745Y-135685368D01*
X145720750Y-135685369D01*
X145899996Y-135705565D01*
X145900000Y-135705565D01*
X145900004Y-135705565D01*
X146079249Y-135685369D01*
X146079252Y-135685368D01*
X146079255Y-135685368D01*
X146249522Y-135625789D01*
X146402262Y-135529816D01*
X146529816Y-135402262D01*
X146625789Y-135249522D01*
X146685368Y-135079255D01*
X146705565Y-134900000D01*
X146697977Y-134832657D01*
X146685369Y-134720750D01*
X146685368Y-134720745D01*
X146679073Y-134702756D01*
X146625789Y-134550478D01*
X146529816Y-134397738D01*
X146402262Y-134270184D01*
X146249523Y-134174211D01*
X146079254Y-134114631D01*
X146079249Y-134114630D01*
X145900004Y-134094435D01*
X145899996Y-134094435D01*
X145720750Y-134114630D01*
X145720745Y-134114631D01*
X145550476Y-134174211D01*
X145397737Y-134270184D01*
X145270184Y-134397737D01*
X145174211Y-134550476D01*
X145114631Y-134720745D01*
X145114630Y-134720750D01*
X145094435Y-134899996D01*
X116994074Y-134899996D01*
X117025789Y-134849522D01*
X117085368Y-134679255D01*
X117105565Y-134500000D01*
X117100558Y-134455565D01*
X117085369Y-134320750D01*
X117085368Y-134320745D01*
X117067676Y-134270184D01*
X117025789Y-134150478D01*
X117003265Y-134114632D01*
X116986582Y-134088080D01*
X116929816Y-133997738D01*
X116802262Y-133870184D01*
X116737124Y-133829255D01*
X116649523Y-133774211D01*
X116479254Y-133714631D01*
X116479249Y-133714630D01*
X116300004Y-133694435D01*
X116299996Y-133694435D01*
X116120750Y-133714630D01*
X116120745Y-133714631D01*
X115950476Y-133774211D01*
X115797737Y-133870184D01*
X115670184Y-133997737D01*
X115574211Y-134150476D01*
X115514631Y-134320745D01*
X115514630Y-134320750D01*
X115494435Y-134499996D01*
X103953645Y-134499996D01*
X103383222Y-134098970D01*
X103380071Y-134096680D01*
X102785325Y-133649996D01*
X141944435Y-133649996D01*
X141944435Y-133650003D01*
X141964630Y-133829249D01*
X141964631Y-133829254D01*
X142024211Y-133999523D01*
X142096538Y-134114630D01*
X142120184Y-134152262D01*
X142247738Y-134279816D01*
X142400478Y-134375789D01*
X142463202Y-134397737D01*
X142570745Y-134435368D01*
X142570750Y-134435369D01*
X142749996Y-134455565D01*
X142750000Y-134455565D01*
X142750004Y-134455565D01*
X142929249Y-134435369D01*
X142929252Y-134435368D01*
X142929255Y-134435368D01*
X143099522Y-134375789D01*
X143252262Y-134279816D01*
X143379816Y-134152262D01*
X143475789Y-133999522D01*
X143535368Y-133829255D01*
X143548283Y-133714630D01*
X143555565Y-133650003D01*
X143555565Y-133649996D01*
X143535369Y-133470750D01*
X143535368Y-133470745D01*
X143493047Y-133349798D01*
X143475789Y-133300478D01*
X143379816Y-133147738D01*
X143252262Y-133020184D01*
X143099523Y-132924211D01*
X142929254Y-132864631D01*
X142929249Y-132864630D01*
X142750004Y-132844435D01*
X142749996Y-132844435D01*
X142570750Y-132864630D01*
X142570745Y-132864631D01*
X142400476Y-132924211D01*
X142247737Y-133020184D01*
X142120184Y-133147737D01*
X142024211Y-133300476D01*
X141964631Y-133470745D01*
X141964630Y-133470750D01*
X141944435Y-133649996D01*
X102785325Y-133649996D01*
X102374092Y-133341140D01*
X102371015Y-133338752D01*
X101389293Y-132552010D01*
X101386292Y-132549527D01*
X100429738Y-131732315D01*
X100426816Y-131729738D01*
X99496427Y-130882908D01*
X99493588Y-130880242D01*
X99410804Y-130799996D01*
X103194435Y-130799996D01*
X103194435Y-130800003D01*
X103214630Y-130979249D01*
X103214631Y-130979254D01*
X103274211Y-131149523D01*
X103370184Y-131302262D01*
X103497738Y-131429816D01*
X103650478Y-131525789D01*
X103820745Y-131585368D01*
X103820750Y-131585369D01*
X103999996Y-131605565D01*
X104000000Y-131605565D01*
X104000004Y-131605565D01*
X104179249Y-131585369D01*
X104179252Y-131585368D01*
X104179255Y-131585368D01*
X104349522Y-131525789D01*
X104502262Y-131429816D01*
X104629816Y-131302262D01*
X104725789Y-131149522D01*
X104785368Y-130979255D01*
X104805565Y-130800000D01*
X104785368Y-130620745D01*
X104725789Y-130450478D01*
X104629816Y-130297738D01*
X104502262Y-130170184D01*
X104349523Y-130074211D01*
X104179254Y-130014631D01*
X104179249Y-130014630D01*
X104000004Y-129994435D01*
X103999996Y-129994435D01*
X103820750Y-130014630D01*
X103820745Y-130014631D01*
X103650476Y-130074211D01*
X103497737Y-130170184D01*
X103370184Y-130297737D01*
X103274211Y-130450476D01*
X103214631Y-130620745D01*
X103214630Y-130620750D01*
X103194435Y-130799996D01*
X99410804Y-130799996D01*
X99050228Y-130450476D01*
X98590200Y-130004553D01*
X98587495Y-130001847D01*
X98066094Y-129463653D01*
X97712074Y-129098230D01*
X97709408Y-129095390D01*
X96862820Y-128164745D01*
X96860245Y-128161823D01*
X96807454Y-128099996D01*
X103794435Y-128099996D01*
X103794435Y-128100003D01*
X103814630Y-128279249D01*
X103814631Y-128279254D01*
X103874211Y-128449523D01*
X103970184Y-128602262D01*
X104097738Y-128729816D01*
X104250478Y-128825789D01*
X104420745Y-128885368D01*
X104420750Y-128885369D01*
X104599996Y-128905565D01*
X104600000Y-128905565D01*
X104600004Y-128905565D01*
X104779249Y-128885369D01*
X104779252Y-128885368D01*
X104779255Y-128885368D01*
X104949522Y-128825789D01*
X105102262Y-128729816D01*
X105229816Y-128602262D01*
X105325789Y-128449522D01*
X105385368Y-128279255D01*
X105398432Y-128163312D01*
X105405565Y-128100003D01*
X105405565Y-128099996D01*
X105385369Y-127920750D01*
X105385368Y-127920745D01*
X105325788Y-127750476D01*
X105229815Y-127597737D01*
X105102262Y-127470184D01*
X104949523Y-127374211D01*
X104779254Y-127314631D01*
X104779249Y-127314630D01*
X104600004Y-127294435D01*
X104599996Y-127294435D01*
X104420750Y-127314630D01*
X104420745Y-127314631D01*
X104250476Y-127374211D01*
X104097737Y-127470184D01*
X103970184Y-127597737D01*
X103874211Y-127750476D01*
X103814631Y-127920745D01*
X103814630Y-127920750D01*
X103794435Y-128099996D01*
X96807454Y-128099996D01*
X96043319Y-127205062D01*
X96040836Y-127202060D01*
X95254354Y-126220098D01*
X95251967Y-126217020D01*
X95111449Y-126029816D01*
X94496687Y-125210802D01*
X94494440Y-125207709D01*
X93984897Y-124482498D01*
X93771151Y-124178283D01*
X93768962Y-124175061D01*
X93288881Y-123443999D01*
X126914341Y-123443999D01*
X126914341Y-123444000D01*
X126934936Y-123679403D01*
X126934938Y-123679413D01*
X126996094Y-123907655D01*
X126996096Y-123907659D01*
X126996097Y-123907663D01*
X127074316Y-124075403D01*
X127095965Y-124121830D01*
X127095967Y-124121834D01*
X127231501Y-124315395D01*
X127231506Y-124315402D01*
X127398597Y-124482493D01*
X127398603Y-124482498D01*
X127584158Y-124612425D01*
X127627783Y-124667002D01*
X127634977Y-124736500D01*
X127603454Y-124798855D01*
X127584158Y-124815575D01*
X127398597Y-124945505D01*
X127231505Y-125112597D01*
X127095965Y-125306169D01*
X127095964Y-125306171D01*
X126996098Y-125520335D01*
X126996094Y-125520344D01*
X126934938Y-125748586D01*
X126934936Y-125748596D01*
X126914341Y-125983999D01*
X126914341Y-125984000D01*
X126934936Y-126219403D01*
X126934938Y-126219413D01*
X126996094Y-126447655D01*
X126996096Y-126447659D01*
X126996097Y-126447663D01*
X127086205Y-126640900D01*
X127095965Y-126661830D01*
X127095967Y-126661834D01*
X127204281Y-126816521D01*
X127231505Y-126855401D01*
X127398599Y-127022495D01*
X127495384Y-127090265D01*
X127592165Y-127158032D01*
X127592167Y-127158033D01*
X127592170Y-127158035D01*
X127806337Y-127257903D01*
X128034592Y-127319063D01*
X128222918Y-127335539D01*
X128269999Y-127339659D01*
X128270000Y-127339659D01*
X128270001Y-127339659D01*
X128309234Y-127336226D01*
X128505408Y-127319063D01*
X128733663Y-127257903D01*
X128947830Y-127158035D01*
X129141401Y-127022495D01*
X129308495Y-126855401D01*
X129444035Y-126661830D01*
X129543903Y-126447663D01*
X129605063Y-126219408D01*
X129625659Y-125984000D01*
X129605063Y-125748592D01*
X129543903Y-125520337D01*
X129487787Y-125399996D01*
X152994435Y-125399996D01*
X152994435Y-125400003D01*
X153014630Y-125579249D01*
X153014631Y-125579254D01*
X153074211Y-125749523D01*
X153170184Y-125902262D01*
X153297738Y-126029816D01*
X153450478Y-126125789D01*
X153620745Y-126185368D01*
X153620750Y-126185369D01*
X153799996Y-126205565D01*
X153800000Y-126205565D01*
X153800004Y-126205565D01*
X153979249Y-126185369D01*
X153979252Y-126185368D01*
X153979255Y-126185368D01*
X154149522Y-126125789D01*
X154302262Y-126029816D01*
X154429816Y-125902262D01*
X154525789Y-125749522D01*
X154585368Y-125579255D01*
X154592006Y-125520344D01*
X154605565Y-125400003D01*
X154605565Y-125399996D01*
X154585369Y-125220750D01*
X154585368Y-125220745D01*
X154547982Y-125113903D01*
X154525789Y-125050478D01*
X154502888Y-125014032D01*
X154486582Y-124988080D01*
X154429816Y-124897738D01*
X154302262Y-124770184D01*
X154287643Y-124760998D01*
X154149523Y-124674211D01*
X153979254Y-124614631D01*
X153979249Y-124614630D01*
X153800004Y-124594435D01*
X153799996Y-124594435D01*
X153620750Y-124614630D01*
X153620745Y-124614631D01*
X153450476Y-124674211D01*
X153297737Y-124770184D01*
X153170184Y-124897737D01*
X153074211Y-125050476D01*
X153014631Y-125220745D01*
X153014630Y-125220750D01*
X152994435Y-125399996D01*
X129487787Y-125399996D01*
X129444035Y-125306171D01*
X129385281Y-125222260D01*
X129308494Y-125112597D01*
X129141402Y-124945506D01*
X129141396Y-124945501D01*
X128955842Y-124815575D01*
X128912217Y-124760998D01*
X128905023Y-124691500D01*
X128936546Y-124629145D01*
X128955842Y-124612425D01*
X129011425Y-124573505D01*
X129141401Y-124482495D01*
X129308495Y-124315401D01*
X129444035Y-124121830D01*
X129543903Y-123907663D01*
X129605063Y-123679408D01*
X129625659Y-123444000D01*
X129605063Y-123208592D01*
X129543903Y-122980337D01*
X129444035Y-122766171D01*
X129377798Y-122671575D01*
X129308496Y-122572600D01*
X129258898Y-122523002D01*
X129186567Y-122450671D01*
X129153084Y-122389351D01*
X129158068Y-122319659D01*
X129199939Y-122263725D01*
X129230915Y-122246810D01*
X129362331Y-122197796D01*
X129477546Y-122111546D01*
X129563796Y-121996331D01*
X129614091Y-121861483D01*
X129620500Y-121801873D01*
X129620500Y-121299999D01*
X141664341Y-121299999D01*
X141664341Y-121300000D01*
X141684936Y-121535403D01*
X141684938Y-121535413D01*
X141746094Y-121763655D01*
X141746096Y-121763659D01*
X141746097Y-121763663D01*
X141845965Y-121977830D01*
X141845967Y-121977834D01*
X141981501Y-122171395D01*
X141981506Y-122171402D01*
X142148597Y-122338493D01*
X142148603Y-122338498D01*
X142334158Y-122468425D01*
X142377783Y-122523002D01*
X142384977Y-122592500D01*
X142353454Y-122654855D01*
X142334158Y-122671575D01*
X142148597Y-122801505D01*
X141981505Y-122968597D01*
X141845965Y-123162169D01*
X141845964Y-123162171D01*
X141746098Y-123376335D01*
X141746094Y-123376344D01*
X141684938Y-123604586D01*
X141684936Y-123604596D01*
X141664341Y-123839999D01*
X141664341Y-123840000D01*
X141684936Y-124075403D01*
X141684938Y-124075413D01*
X141746094Y-124303655D01*
X141746096Y-124303659D01*
X141746097Y-124303663D01*
X141829487Y-124482493D01*
X141845965Y-124517830D01*
X141845967Y-124517834D01*
X141950416Y-124667002D01*
X141981505Y-124711401D01*
X142148599Y-124878495D01*
X142176081Y-124897738D01*
X142342165Y-125014032D01*
X142342167Y-125014033D01*
X142342170Y-125014035D01*
X142556337Y-125113903D01*
X142784592Y-125175063D01*
X142972918Y-125191539D01*
X143019999Y-125195659D01*
X143020000Y-125195659D01*
X143020001Y-125195659D01*
X143059234Y-125192226D01*
X143255408Y-125175063D01*
X143483663Y-125113903D01*
X143697830Y-125014035D01*
X143891401Y-124878495D01*
X144058495Y-124711401D01*
X144194035Y-124517830D01*
X144293903Y-124303663D01*
X144355063Y-124075408D01*
X144375659Y-123840000D01*
X144355063Y-123604592D01*
X144293903Y-123376337D01*
X144194035Y-123162171D01*
X144058495Y-122968599D01*
X144058494Y-122968597D01*
X143891402Y-122801506D01*
X143891396Y-122801501D01*
X143705842Y-122671575D01*
X143662217Y-122616998D01*
X143655023Y-122547500D01*
X143686546Y-122485145D01*
X143705842Y-122468425D01*
X143731194Y-122450673D01*
X143891401Y-122338495D01*
X144058495Y-122171401D01*
X144194035Y-121977830D01*
X144293903Y-121763663D01*
X144355063Y-121535408D01*
X144375659Y-121300000D01*
X144373789Y-121278632D01*
X144355063Y-121064596D01*
X144355063Y-121064592D01*
X144293903Y-120836337D01*
X144194035Y-120622171D01*
X144058495Y-120428599D01*
X143936567Y-120306671D01*
X143903084Y-120245351D01*
X143908068Y-120175659D01*
X143949939Y-120119725D01*
X143980915Y-120102810D01*
X144112331Y-120053796D01*
X144227546Y-119967546D01*
X144313796Y-119852331D01*
X144364091Y-119717483D01*
X144370500Y-119657873D01*
X144370499Y-117862128D01*
X144364091Y-117802517D01*
X144318117Y-117679255D01*
X144313797Y-117667671D01*
X144313793Y-117667664D01*
X144227547Y-117552455D01*
X144227544Y-117552452D01*
X144112335Y-117466206D01*
X144112328Y-117466202D01*
X143977482Y-117415908D01*
X143977483Y-117415908D01*
X143917883Y-117409501D01*
X143917881Y-117409500D01*
X143917873Y-117409500D01*
X143917864Y-117409500D01*
X142122129Y-117409500D01*
X142122123Y-117409501D01*
X142062516Y-117415908D01*
X141927671Y-117466202D01*
X141927664Y-117466206D01*
X141812455Y-117552452D01*
X141812452Y-117552455D01*
X141726206Y-117667664D01*
X141726202Y-117667671D01*
X141675908Y-117802517D01*
X141673515Y-117824780D01*
X141669501Y-117862123D01*
X141669500Y-117862135D01*
X141669500Y-119657870D01*
X141669501Y-119657876D01*
X141675908Y-119717483D01*
X141726202Y-119852328D01*
X141726206Y-119852335D01*
X141812452Y-119967544D01*
X141812455Y-119967547D01*
X141927664Y-120053793D01*
X141927671Y-120053797D01*
X142059081Y-120102810D01*
X142115015Y-120144681D01*
X142139432Y-120210145D01*
X142124580Y-120278418D01*
X142103430Y-120306673D01*
X141981503Y-120428600D01*
X141845965Y-120622169D01*
X141845964Y-120622171D01*
X141746098Y-120836335D01*
X141746094Y-120836344D01*
X141684938Y-121064586D01*
X141684936Y-121064596D01*
X141664341Y-121299999D01*
X129620500Y-121299999D01*
X129620499Y-120006128D01*
X129614091Y-119946517D01*
X129578963Y-119852335D01*
X129563797Y-119811671D01*
X129563793Y-119811664D01*
X129477547Y-119696455D01*
X129477544Y-119696452D01*
X129362335Y-119610206D01*
X129362328Y-119610202D01*
X129227482Y-119559908D01*
X129227483Y-119559908D01*
X129167883Y-119553501D01*
X129167881Y-119553500D01*
X129167873Y-119553500D01*
X129167864Y-119553500D01*
X127372129Y-119553500D01*
X127372123Y-119553501D01*
X127312516Y-119559908D01*
X127177671Y-119610202D01*
X127177664Y-119610206D01*
X127062455Y-119696452D01*
X127062452Y-119696455D01*
X126976206Y-119811664D01*
X126976202Y-119811671D01*
X126925908Y-119946517D01*
X126919560Y-120005565D01*
X126919501Y-120006123D01*
X126919500Y-120006135D01*
X126919500Y-121801870D01*
X126919501Y-121801876D01*
X126925908Y-121861483D01*
X126976202Y-121996328D01*
X126976206Y-121996335D01*
X127062452Y-122111544D01*
X127062455Y-122111547D01*
X127177664Y-122197793D01*
X127177671Y-122197797D01*
X127309081Y-122246810D01*
X127365015Y-122288681D01*
X127389432Y-122354145D01*
X127374580Y-122422418D01*
X127353430Y-122450673D01*
X127231503Y-122572600D01*
X127095965Y-122766169D01*
X127095964Y-122766171D01*
X127002401Y-122966816D01*
X127001572Y-122968597D01*
X126996098Y-122980335D01*
X126996094Y-122980344D01*
X126934938Y-123208586D01*
X126934936Y-123208596D01*
X126914341Y-123443999D01*
X93288881Y-123443999D01*
X93078383Y-123123456D01*
X93076296Y-123120167D01*
X92426536Y-122059548D01*
X92419070Y-122047362D01*
X92417090Y-122044012D01*
X91793905Y-120951128D01*
X91792029Y-120947715D01*
X91203466Y-119835775D01*
X91201698Y-119832304D01*
X90892031Y-119199996D01*
X130394435Y-119199996D01*
X130394435Y-119200003D01*
X130414630Y-119379249D01*
X130414631Y-119379254D01*
X130474211Y-119549523D01*
X130542294Y-119657876D01*
X130570184Y-119702262D01*
X130697738Y-119829816D01*
X130850478Y-119925789D01*
X130969807Y-119967544D01*
X131020745Y-119985368D01*
X131020750Y-119985369D01*
X131199996Y-120005565D01*
X131200000Y-120005565D01*
X131200004Y-120005565D01*
X131379249Y-119985369D01*
X131379252Y-119985368D01*
X131379255Y-119985368D01*
X131549522Y-119925789D01*
X131702262Y-119829816D01*
X131829816Y-119702262D01*
X131925789Y-119549522D01*
X131985368Y-119379255D01*
X132005565Y-119200000D01*
X131985368Y-119020745D01*
X131925789Y-118850478D01*
X131829816Y-118697738D01*
X131702262Y-118570184D01*
X131549523Y-118474211D01*
X131379254Y-118414631D01*
X131379249Y-118414630D01*
X131200004Y-118394435D01*
X131199996Y-118394435D01*
X131020750Y-118414630D01*
X131020745Y-118414631D01*
X130850476Y-118474211D01*
X130697737Y-118570184D01*
X130570184Y-118697737D01*
X130474211Y-118850476D01*
X130414631Y-119020745D01*
X130414630Y-119020750D01*
X130394435Y-119199996D01*
X90892031Y-119199996D01*
X90648352Y-118702428D01*
X90646694Y-118698903D01*
X90518382Y-118414631D01*
X90129118Y-117552224D01*
X90127573Y-117548652D01*
X90107426Y-117499996D01*
X94794435Y-117499996D01*
X94794435Y-117500003D01*
X94814630Y-117679249D01*
X94814631Y-117679254D01*
X94874211Y-117849523D01*
X94882136Y-117862135D01*
X94970184Y-118002262D01*
X95097738Y-118129816D01*
X95250478Y-118225789D01*
X95420745Y-118285368D01*
X95420750Y-118285369D01*
X95599996Y-118305565D01*
X95600000Y-118305565D01*
X95600004Y-118305565D01*
X95779249Y-118285369D01*
X95779252Y-118285368D01*
X95779255Y-118285368D01*
X95949522Y-118225789D01*
X96102262Y-118129816D01*
X96229816Y-118002262D01*
X96325789Y-117849522D01*
X96385368Y-117679255D01*
X96385369Y-117679249D01*
X96405565Y-117500003D01*
X96405565Y-117499996D01*
X96385369Y-117320750D01*
X96385368Y-117320745D01*
X96325788Y-117150476D01*
X96286582Y-117088080D01*
X96229816Y-116997738D01*
X96102262Y-116870184D01*
X96045093Y-116834262D01*
X95949523Y-116774211D01*
X95779254Y-116714631D01*
X95779249Y-116714630D01*
X95600004Y-116694435D01*
X95599996Y-116694435D01*
X95420750Y-116714630D01*
X95420745Y-116714631D01*
X95250476Y-116774211D01*
X95097737Y-116870184D01*
X94970184Y-116997737D01*
X94874211Y-117150476D01*
X94814631Y-117320745D01*
X94814630Y-117320750D01*
X94794435Y-117499996D01*
X90107426Y-117499996D01*
X89646252Y-116386239D01*
X89644819Y-116382617D01*
X89625698Y-116331996D01*
X112224435Y-116331996D01*
X112224435Y-116332003D01*
X112244630Y-116511249D01*
X112244631Y-116511254D01*
X112304211Y-116681523D01*
X112362451Y-116774211D01*
X112400184Y-116834262D01*
X112527738Y-116961816D01*
X112618080Y-117018582D01*
X112671681Y-117052262D01*
X112680478Y-117057789D01*
X112850745Y-117117368D01*
X112850750Y-117117369D01*
X113029996Y-117137565D01*
X113030000Y-117137565D01*
X113030004Y-117137565D01*
X113209249Y-117117369D01*
X113209252Y-117117368D01*
X113209255Y-117117368D01*
X113379522Y-117057789D01*
X113532262Y-116961816D01*
X113659816Y-116834262D01*
X113755789Y-116681522D01*
X113801812Y-116549996D01*
X147644435Y-116549996D01*
X147644435Y-116550003D01*
X147664630Y-116729249D01*
X147664631Y-116729254D01*
X147724211Y-116899523D01*
X147785924Y-116997738D01*
X147820184Y-117052262D01*
X147947738Y-117179816D01*
X148100478Y-117275789D01*
X148228955Y-117320745D01*
X148270745Y-117335368D01*
X148270750Y-117335369D01*
X148449996Y-117355565D01*
X148450000Y-117355565D01*
X148450004Y-117355565D01*
X148629249Y-117335369D01*
X148629252Y-117335368D01*
X148629255Y-117335368D01*
X148799522Y-117275789D01*
X148952262Y-117179816D01*
X149079816Y-117052262D01*
X149175789Y-116899522D01*
X149235368Y-116729255D01*
X149237016Y-116714630D01*
X149255565Y-116550003D01*
X149255565Y-116549996D01*
X149235369Y-116370750D01*
X149235368Y-116370745D01*
X149221812Y-116332003D01*
X149175789Y-116200478D01*
X149145799Y-116152750D01*
X149079815Y-116047737D01*
X148952262Y-115920184D01*
X148799523Y-115824211D01*
X148629254Y-115764631D01*
X148629249Y-115764630D01*
X148450004Y-115744435D01*
X148449996Y-115744435D01*
X148270750Y-115764630D01*
X148270745Y-115764631D01*
X148100476Y-115824211D01*
X147947737Y-115920184D01*
X147820184Y-116047737D01*
X147724211Y-116200476D01*
X147664631Y-116370745D01*
X147664630Y-116370750D01*
X147644435Y-116549996D01*
X113801812Y-116549996D01*
X113815368Y-116511255D01*
X113835565Y-116332000D01*
X113820746Y-116200478D01*
X113815369Y-116152750D01*
X113815368Y-116152745D01*
X113755788Y-115982476D01*
X113670894Y-115847369D01*
X113659816Y-115829738D01*
X113532262Y-115702184D01*
X113379523Y-115606211D01*
X113209254Y-115546631D01*
X113209249Y-115546630D01*
X113030004Y-115526435D01*
X113029996Y-115526435D01*
X112850750Y-115546630D01*
X112850745Y-115546631D01*
X112680476Y-115606211D01*
X112527737Y-115702184D01*
X112400184Y-115829737D01*
X112304211Y-115982476D01*
X112244631Y-116152745D01*
X112244630Y-116152750D01*
X112224435Y-116331996D01*
X89625698Y-116331996D01*
X89335701Y-115564262D01*
X89200257Y-115205690D01*
X89198943Y-115202038D01*
X89151014Y-115061996D01*
X109430435Y-115061996D01*
X109430435Y-115062003D01*
X109450630Y-115241249D01*
X109450631Y-115241254D01*
X109510211Y-115411523D01*
X109537919Y-115455619D01*
X109606184Y-115564262D01*
X109733738Y-115691816D01*
X109886478Y-115787789D01*
X110056745Y-115847368D01*
X110056750Y-115847369D01*
X110235996Y-115867565D01*
X110236000Y-115867565D01*
X110236004Y-115867565D01*
X110415249Y-115847369D01*
X110415252Y-115847368D01*
X110415255Y-115847368D01*
X110585522Y-115787789D01*
X110738262Y-115691816D01*
X110865816Y-115564262D01*
X110961789Y-115411522D01*
X111021368Y-115241255D01*
X111021369Y-115241249D01*
X111041565Y-115062003D01*
X111041565Y-115061996D01*
X119590435Y-115061996D01*
X119590435Y-115062003D01*
X119610630Y-115241249D01*
X119610631Y-115241254D01*
X119670211Y-115411523D01*
X119697919Y-115455619D01*
X119766184Y-115564262D01*
X119893738Y-115691816D01*
X120046478Y-115787789D01*
X120216745Y-115847368D01*
X120216750Y-115847369D01*
X120395996Y-115867565D01*
X120396000Y-115867565D01*
X120396004Y-115867565D01*
X120575249Y-115847369D01*
X120575252Y-115847368D01*
X120575255Y-115847368D01*
X120745522Y-115787789D01*
X120898262Y-115691816D01*
X121025816Y-115564262D01*
X121121789Y-115411522D01*
X121181368Y-115241255D01*
X121181369Y-115241249D01*
X121201565Y-115062003D01*
X121201565Y-115061996D01*
X121181369Y-114882750D01*
X121181368Y-114882745D01*
X121121788Y-114712476D01*
X121025815Y-114559737D01*
X120898262Y-114432184D01*
X120745523Y-114336211D01*
X120575254Y-114276631D01*
X120575249Y-114276630D01*
X120396004Y-114256435D01*
X120395996Y-114256435D01*
X120216750Y-114276630D01*
X120216745Y-114276631D01*
X120046476Y-114336211D01*
X119893737Y-114432184D01*
X119766184Y-114559737D01*
X119670211Y-114712476D01*
X119610631Y-114882745D01*
X119610630Y-114882750D01*
X119590435Y-115061996D01*
X111041565Y-115061996D01*
X111021369Y-114882750D01*
X111021368Y-114882745D01*
X110961788Y-114712476D01*
X110865815Y-114559737D01*
X110738262Y-114432184D01*
X110585523Y-114336211D01*
X110415254Y-114276631D01*
X110415249Y-114276630D01*
X110236004Y-114256435D01*
X110235996Y-114256435D01*
X110056750Y-114276630D01*
X110056745Y-114276631D01*
X109886476Y-114336211D01*
X109733737Y-114432184D01*
X109606184Y-114559737D01*
X109510211Y-114712476D01*
X109450631Y-114882745D01*
X109450630Y-114882750D01*
X109430435Y-115061996D01*
X89151014Y-115061996D01*
X88935465Y-114432184D01*
X88882229Y-114276632D01*
X88791573Y-114011745D01*
X88790369Y-114008040D01*
X88618764Y-113449996D01*
X159944435Y-113449996D01*
X159944435Y-113450003D01*
X159964630Y-113629249D01*
X159964631Y-113629254D01*
X160024211Y-113799523D01*
X160120184Y-113952262D01*
X160247738Y-114079816D01*
X160400478Y-114175789D01*
X160555238Y-114229942D01*
X160570745Y-114235368D01*
X160570750Y-114235369D01*
X160749996Y-114255565D01*
X160750000Y-114255565D01*
X160750004Y-114255565D01*
X160929249Y-114235369D01*
X160929252Y-114235368D01*
X160929255Y-114235368D01*
X161099522Y-114175789D01*
X161252262Y-114079816D01*
X161379816Y-113952262D01*
X161475789Y-113799522D01*
X161535368Y-113629255D01*
X161555565Y-113450000D01*
X161535368Y-113270745D01*
X161475789Y-113100478D01*
X161379816Y-112947738D01*
X161252262Y-112820184D01*
X161228877Y-112805490D01*
X161099523Y-112724211D01*
X160929254Y-112664631D01*
X160929249Y-112664630D01*
X160750004Y-112644435D01*
X160749996Y-112644435D01*
X160570750Y-112664630D01*
X160570745Y-112664631D01*
X160400476Y-112724211D01*
X160247737Y-112820184D01*
X160120184Y-112947737D01*
X160024211Y-113100476D01*
X159964631Y-113270745D01*
X159964630Y-113270750D01*
X159944435Y-113449996D01*
X88618764Y-113449996D01*
X88420571Y-112805490D01*
X88419485Y-112801749D01*
X88137479Y-111770442D01*
X88087643Y-111588190D01*
X88086681Y-111584438D01*
X87793127Y-110361075D01*
X87792278Y-110357274D01*
X87567583Y-109271648D01*
X87537291Y-109125288D01*
X87536566Y-109121489D01*
X87375845Y-108199996D01*
X135194435Y-108199996D01*
X135194435Y-108200003D01*
X135214630Y-108379249D01*
X135214631Y-108379254D01*
X135274211Y-108549523D01*
X135307351Y-108602264D01*
X135370184Y-108702262D01*
X135497738Y-108829816D01*
X135650478Y-108925789D01*
X135820745Y-108985368D01*
X135820750Y-108985369D01*
X135999996Y-109005565D01*
X136000000Y-109005565D01*
X136000004Y-109005565D01*
X136179249Y-108985369D01*
X136179252Y-108985368D01*
X136179255Y-108985368D01*
X136349522Y-108925789D01*
X136502262Y-108829816D01*
X136629816Y-108702262D01*
X136725789Y-108549522D01*
X136785368Y-108379255D01*
X136785369Y-108379249D01*
X136805565Y-108200003D01*
X136805565Y-108199996D01*
X136794298Y-108099996D01*
X143694435Y-108099996D01*
X143694435Y-108100003D01*
X143714630Y-108279249D01*
X143714631Y-108279254D01*
X143774211Y-108449523D01*
X143837045Y-108549522D01*
X143870184Y-108602262D01*
X143997738Y-108729816D01*
X144150478Y-108825789D01*
X144161984Y-108829815D01*
X144320745Y-108885368D01*
X144320750Y-108885369D01*
X144499996Y-108905565D01*
X144500000Y-108905565D01*
X144500004Y-108905565D01*
X144679249Y-108885369D01*
X144679252Y-108885368D01*
X144679255Y-108885368D01*
X144849522Y-108825789D01*
X145002262Y-108729816D01*
X145129816Y-108602262D01*
X145145007Y-108578084D01*
X145197339Y-108531796D01*
X145266393Y-108521146D01*
X145330242Y-108549521D01*
X145354990Y-108578082D01*
X145370184Y-108602262D01*
X145497738Y-108729816D01*
X145650478Y-108825789D01*
X145661984Y-108829815D01*
X145820745Y-108885368D01*
X145820750Y-108885369D01*
X145999996Y-108905565D01*
X146000000Y-108905565D01*
X146000004Y-108905565D01*
X146179249Y-108885369D01*
X146179252Y-108885368D01*
X146179255Y-108885368D01*
X146349522Y-108825789D01*
X146502262Y-108729816D01*
X146629816Y-108602262D01*
X146725789Y-108449522D01*
X146785368Y-108279255D01*
X146785369Y-108279249D01*
X146805565Y-108100003D01*
X146805565Y-108099996D01*
X146785369Y-107920750D01*
X146785368Y-107920745D01*
X146771170Y-107880169D01*
X146725789Y-107750478D01*
X146629816Y-107597738D01*
X146502262Y-107470184D01*
X146413852Y-107414632D01*
X146349523Y-107374211D01*
X146179254Y-107314631D01*
X146179249Y-107314630D01*
X146000004Y-107294435D01*
X145999996Y-107294435D01*
X145820750Y-107314630D01*
X145820745Y-107314631D01*
X145650476Y-107374211D01*
X145497737Y-107470184D01*
X145370184Y-107597737D01*
X145354994Y-107621913D01*
X145302659Y-107668204D01*
X145233605Y-107678852D01*
X145169757Y-107650477D01*
X145145006Y-107621913D01*
X145129815Y-107597737D01*
X145002262Y-107470184D01*
X144849523Y-107374211D01*
X144679254Y-107314631D01*
X144679249Y-107314630D01*
X144500004Y-107294435D01*
X144499996Y-107294435D01*
X144320750Y-107314630D01*
X144320745Y-107314631D01*
X144150476Y-107374211D01*
X143997737Y-107470184D01*
X143870184Y-107597737D01*
X143774211Y-107750476D01*
X143714631Y-107920745D01*
X143714630Y-107920750D01*
X143694435Y-108099996D01*
X136794298Y-108099996D01*
X136785369Y-108020750D01*
X136785368Y-108020745D01*
X136725788Y-107850476D01*
X136662955Y-107750478D01*
X136629816Y-107697738D01*
X136502262Y-107570184D01*
X136349523Y-107474211D01*
X136179254Y-107414631D01*
X136179249Y-107414630D01*
X136000004Y-107394435D01*
X135999996Y-107394435D01*
X135820750Y-107414630D01*
X135820745Y-107414631D01*
X135650476Y-107474211D01*
X135497737Y-107570184D01*
X135370184Y-107697737D01*
X135274211Y-107850476D01*
X135214631Y-108020745D01*
X135214630Y-108020750D01*
X135194435Y-108199996D01*
X87375845Y-108199996D01*
X87320392Y-107882054D01*
X87319794Y-107878272D01*
X87142657Y-106632659D01*
X87142173Y-106628824D01*
X87014468Y-105470931D01*
X87004245Y-105378237D01*
X87003890Y-105374483D01*
X86911583Y-104199996D01*
X91294435Y-104199996D01*
X91294435Y-104200003D01*
X91314630Y-104379249D01*
X91314631Y-104379254D01*
X91374211Y-104549523D01*
X91470184Y-104702262D01*
X91597738Y-104829816D01*
X91750478Y-104925789D01*
X91920745Y-104985368D01*
X91920750Y-104985369D01*
X92099996Y-105005565D01*
X92100000Y-105005565D01*
X92100004Y-105005565D01*
X92279249Y-104985369D01*
X92279252Y-104985368D01*
X92279255Y-104985368D01*
X92449522Y-104925789D01*
X92602262Y-104829816D01*
X92729816Y-104702262D01*
X92825789Y-104549522D01*
X92885368Y-104379255D01*
X92893671Y-104305565D01*
X92905565Y-104200003D01*
X92905565Y-104199996D01*
X92885369Y-104020750D01*
X92885368Y-104020745D01*
X92825789Y-103850478D01*
X92825188Y-103849522D01*
X92729815Y-103697737D01*
X92602262Y-103570184D01*
X92449523Y-103474211D01*
X92279254Y-103414631D01*
X92279249Y-103414630D01*
X92100004Y-103394435D01*
X92099996Y-103394435D01*
X91920750Y-103414630D01*
X91920745Y-103414631D01*
X91750476Y-103474211D01*
X91597737Y-103570184D01*
X91470184Y-103697737D01*
X91374211Y-103850476D01*
X91314631Y-104020745D01*
X91314630Y-104020750D01*
X91294435Y-104199996D01*
X86911583Y-104199996D01*
X86905311Y-104120189D01*
X86905068Y-104116306D01*
X86884504Y-103679255D01*
X86845935Y-102859573D01*
X86845816Y-102855759D01*
X86844946Y-102799996D01*
X123494435Y-102799996D01*
X123494435Y-102800003D01*
X123514630Y-102979249D01*
X123514631Y-102979254D01*
X123574211Y-103149523D01*
X123624662Y-103229815D01*
X123670184Y-103302262D01*
X123797738Y-103429816D01*
X123950478Y-103525789D01*
X124077352Y-103570184D01*
X124120745Y-103585368D01*
X124120750Y-103585369D01*
X124299996Y-103605565D01*
X124300000Y-103605565D01*
X124300004Y-103605565D01*
X124479249Y-103585369D01*
X124479252Y-103585368D01*
X124479255Y-103585368D01*
X124649522Y-103525789D01*
X124690571Y-103499996D01*
X129894435Y-103499996D01*
X129894435Y-103500003D01*
X129914630Y-103679249D01*
X129914631Y-103679254D01*
X129974211Y-103849523D01*
X130070184Y-104002262D01*
X130197738Y-104129816D01*
X130350478Y-104225789D01*
X130520745Y-104285368D01*
X130520750Y-104285369D01*
X130699996Y-104305565D01*
X130700000Y-104305565D01*
X130700004Y-104305565D01*
X130879249Y-104285369D01*
X130879252Y-104285368D01*
X130879255Y-104285368D01*
X131049522Y-104225789D01*
X131202262Y-104129816D01*
X131329816Y-104002262D01*
X131425789Y-103849522D01*
X131485368Y-103679255D01*
X131493671Y-103605565D01*
X131505565Y-103500003D01*
X131505565Y-103499996D01*
X131485369Y-103320750D01*
X131485368Y-103320745D01*
X131425789Y-103150478D01*
X131425188Y-103149522D01*
X131329815Y-102997737D01*
X131202262Y-102870184D01*
X131049523Y-102774211D01*
X130879254Y-102714631D01*
X130879249Y-102714630D01*
X130700004Y-102694435D01*
X130699996Y-102694435D01*
X130520750Y-102714630D01*
X130520745Y-102714631D01*
X130350476Y-102774211D01*
X130197737Y-102870184D01*
X130070184Y-102997737D01*
X129974211Y-103150476D01*
X129914631Y-103320745D01*
X129914630Y-103320750D01*
X129894435Y-103499996D01*
X124690571Y-103499996D01*
X124802262Y-103429816D01*
X124929816Y-103302262D01*
X125025789Y-103149522D01*
X125085368Y-102979255D01*
X125090822Y-102930853D01*
X125105565Y-102800003D01*
X125105565Y-102799996D01*
X125085369Y-102620750D01*
X125085368Y-102620745D01*
X125078108Y-102599996D01*
X138494435Y-102599996D01*
X138494435Y-102600003D01*
X138514630Y-102779249D01*
X138514631Y-102779254D01*
X138574211Y-102949523D01*
X138604507Y-102997738D01*
X138670184Y-103102262D01*
X138797738Y-103229816D01*
X138888080Y-103286582D01*
X138942450Y-103320745D01*
X138950478Y-103325789D01*
X139120745Y-103385368D01*
X139120750Y-103385369D01*
X139299996Y-103405565D01*
X139300000Y-103405565D01*
X139300004Y-103405565D01*
X139479249Y-103385369D01*
X139479252Y-103385368D01*
X139479255Y-103385368D01*
X139649522Y-103325789D01*
X139802262Y-103229816D01*
X139929816Y-103102262D01*
X140025789Y-102949522D01*
X140078110Y-102799996D01*
X142094435Y-102799996D01*
X142094435Y-102800003D01*
X142114630Y-102979249D01*
X142114631Y-102979254D01*
X142174211Y-103149523D01*
X142224662Y-103229815D01*
X142270184Y-103302262D01*
X142397738Y-103429816D01*
X142550478Y-103525789D01*
X142677352Y-103570184D01*
X142720745Y-103585368D01*
X142720750Y-103585369D01*
X142899996Y-103605565D01*
X142900000Y-103605565D01*
X142900004Y-103605565D01*
X143079249Y-103585369D01*
X143079252Y-103585368D01*
X143079255Y-103585368D01*
X143249522Y-103525789D01*
X143402262Y-103429816D01*
X143529816Y-103302262D01*
X143625789Y-103149522D01*
X143685368Y-102979255D01*
X143690822Y-102930853D01*
X143705565Y-102800003D01*
X143705565Y-102799996D01*
X143685369Y-102620750D01*
X143685368Y-102620745D01*
X143625788Y-102450476D01*
X143529815Y-102297737D01*
X143402262Y-102170184D01*
X143249523Y-102074211D01*
X143079254Y-102014631D01*
X143079249Y-102014630D01*
X142900004Y-101994435D01*
X142899996Y-101994435D01*
X142720750Y-102014630D01*
X142720745Y-102014631D01*
X142550476Y-102074211D01*
X142397737Y-102170184D01*
X142270184Y-102297737D01*
X142174211Y-102450476D01*
X142114631Y-102620745D01*
X142114630Y-102620750D01*
X142094435Y-102799996D01*
X140078110Y-102799996D01*
X140085368Y-102779255D01*
X140085369Y-102779249D01*
X140105565Y-102600003D01*
X140105565Y-102599996D01*
X140085369Y-102420750D01*
X140085368Y-102420745D01*
X140042326Y-102297738D01*
X140025789Y-102250478D01*
X139929816Y-102097738D01*
X139802262Y-101970184D01*
X139649523Y-101874211D01*
X139479254Y-101814631D01*
X139479249Y-101814630D01*
X139300004Y-101794435D01*
X139299996Y-101794435D01*
X139120750Y-101814630D01*
X139120745Y-101814631D01*
X138950476Y-101874211D01*
X138797737Y-101970184D01*
X138670184Y-102097737D01*
X138574211Y-102250476D01*
X138514631Y-102420745D01*
X138514630Y-102420750D01*
X138494435Y-102599996D01*
X125078108Y-102599996D01*
X125025788Y-102450476D01*
X124929815Y-102297737D01*
X124802262Y-102170184D01*
X124649523Y-102074211D01*
X124479254Y-102014631D01*
X124479249Y-102014630D01*
X124300004Y-101994435D01*
X124299996Y-101994435D01*
X124120750Y-102014630D01*
X124120745Y-102014631D01*
X123950476Y-102074211D01*
X123797737Y-102170184D01*
X123670184Y-102297737D01*
X123574211Y-102450476D01*
X123514631Y-102620745D01*
X123514630Y-102620750D01*
X123494435Y-102799996D01*
X86844946Y-102799996D01*
X86826185Y-101597753D01*
X86826186Y-101593894D01*
X86846078Y-100335938D01*
X86846200Y-100332045D01*
X86847715Y-100300003D01*
X86847715Y-100299996D01*
X124394435Y-100299996D01*
X124394435Y-100300003D01*
X124414630Y-100479249D01*
X124414631Y-100479254D01*
X124474211Y-100649523D01*
X124570184Y-100802262D01*
X124697738Y-100929816D01*
X124850478Y-101025789D01*
X125020745Y-101085368D01*
X125020750Y-101085369D01*
X125199996Y-101105565D01*
X125200000Y-101105565D01*
X125200004Y-101105565D01*
X125379249Y-101085369D01*
X125379252Y-101085368D01*
X125379255Y-101085368D01*
X125549522Y-101025789D01*
X125702262Y-100929816D01*
X125829816Y-100802262D01*
X125925789Y-100649522D01*
X125985368Y-100479255D01*
X125999923Y-100350078D01*
X126005565Y-100300003D01*
X126005565Y-100299996D01*
X125985369Y-100120750D01*
X125985368Y-100120745D01*
X125925788Y-99950476D01*
X125884878Y-99885368D01*
X125829816Y-99797738D01*
X125702262Y-99670184D01*
X125677804Y-99654816D01*
X125549523Y-99574211D01*
X125379254Y-99514631D01*
X125379249Y-99514630D01*
X125200004Y-99494435D01*
X125199996Y-99494435D01*
X125020750Y-99514630D01*
X125020745Y-99514631D01*
X124850476Y-99574211D01*
X124697737Y-99670184D01*
X124570184Y-99797737D01*
X124474211Y-99950476D01*
X124414631Y-100120745D01*
X124414630Y-100120750D01*
X124394435Y-100299996D01*
X86847715Y-100299996D01*
X86905592Y-99075349D01*
X86905837Y-99071473D01*
X86909500Y-99024996D01*
X86966631Y-98299996D01*
X122394435Y-98299996D01*
X122394435Y-98300003D01*
X122414630Y-98479249D01*
X122414631Y-98479254D01*
X122474211Y-98649523D01*
X122537646Y-98750478D01*
X122570184Y-98802262D01*
X122697738Y-98929816D01*
X122781578Y-98982496D01*
X122847966Y-99024211D01*
X122850478Y-99025789D01*
X122986591Y-99073417D01*
X123020745Y-99085368D01*
X123020750Y-99085369D01*
X123199996Y-99105565D01*
X123200000Y-99105565D01*
X123200004Y-99105565D01*
X123379249Y-99085369D01*
X123379252Y-99085368D01*
X123379255Y-99085368D01*
X123549522Y-99025789D01*
X123702262Y-98929816D01*
X123826082Y-98805996D01*
X126194435Y-98805996D01*
X126194435Y-98806003D01*
X126214630Y-98985249D01*
X126214631Y-98985254D01*
X126274211Y-99155523D01*
X126332154Y-99247738D01*
X126370184Y-99308262D01*
X126497738Y-99435816D01*
X126576601Y-99485369D01*
X126623169Y-99514630D01*
X126650478Y-99531789D01*
X126761808Y-99570745D01*
X126820745Y-99591368D01*
X126820750Y-99591369D01*
X126999996Y-99611565D01*
X127000000Y-99611565D01*
X127000004Y-99611565D01*
X127179249Y-99591369D01*
X127179252Y-99591368D01*
X127179255Y-99591368D01*
X127349522Y-99531789D01*
X127502262Y-99435816D01*
X127629816Y-99308262D01*
X127725789Y-99155522D01*
X127771462Y-99024996D01*
X128194435Y-99024996D01*
X128194435Y-99025003D01*
X128214630Y-99204249D01*
X128214631Y-99204254D01*
X128274211Y-99374523D01*
X128321337Y-99449523D01*
X128370184Y-99527262D01*
X128497738Y-99654816D01*
X128650478Y-99750789D01*
X128699290Y-99767869D01*
X128820745Y-99810368D01*
X128820750Y-99810369D01*
X128999996Y-99830565D01*
X129000000Y-99830565D01*
X129000004Y-99830565D01*
X129179249Y-99810369D01*
X129179252Y-99810368D01*
X129179255Y-99810368D01*
X129349522Y-99750789D01*
X129502262Y-99654816D01*
X129629816Y-99527262D01*
X129725789Y-99374522D01*
X129785368Y-99204255D01*
X129790157Y-99161754D01*
X129797115Y-99099996D01*
X131194435Y-99099996D01*
X131194435Y-99100003D01*
X131214630Y-99279249D01*
X131214631Y-99279254D01*
X131274211Y-99449523D01*
X131350384Y-99570750D01*
X131370184Y-99602262D01*
X131497738Y-99729816D01*
X131558299Y-99767869D01*
X131625935Y-99810368D01*
X131650478Y-99825789D01*
X131820745Y-99885368D01*
X131820750Y-99885369D01*
X131999996Y-99905565D01*
X132000000Y-99905565D01*
X132000004Y-99905565D01*
X132179249Y-99885369D01*
X132179252Y-99885368D01*
X132179255Y-99885368D01*
X132349522Y-99825789D01*
X132502262Y-99729816D01*
X132629816Y-99602262D01*
X132725789Y-99449522D01*
X132785368Y-99279255D01*
X132788919Y-99247738D01*
X132805565Y-99100003D01*
X132805565Y-99099996D01*
X132785369Y-98920750D01*
X132785368Y-98920745D01*
X132745217Y-98806000D01*
X132725789Y-98750478D01*
X132694069Y-98699996D01*
X138756935Y-98699996D01*
X138756935Y-98700003D01*
X138777130Y-98879249D01*
X138777131Y-98879254D01*
X138836711Y-99049523D01*
X138861800Y-99089451D01*
X138932684Y-99202262D01*
X139060238Y-99329816D01*
X139131387Y-99374522D01*
X139172692Y-99400476D01*
X139212978Y-99425789D01*
X139280806Y-99449523D01*
X139383245Y-99485368D01*
X139383250Y-99485369D01*
X139562496Y-99505565D01*
X139562500Y-99505565D01*
X139562504Y-99505565D01*
X139741749Y-99485369D01*
X139741752Y-99485368D01*
X139741755Y-99485368D01*
X139912022Y-99425789D01*
X140064762Y-99329816D01*
X140192316Y-99202262D01*
X140288289Y-99049522D01*
X140311742Y-98982496D01*
X149394435Y-98982496D01*
X149394435Y-98982503D01*
X149414630Y-99161749D01*
X149414631Y-99161754D01*
X149474211Y-99332023D01*
X149539429Y-99435816D01*
X149570184Y-99484762D01*
X149697738Y-99612316D01*
X149850478Y-99708289D01*
X149911996Y-99729815D01*
X150020745Y-99767868D01*
X150020750Y-99767869D01*
X150199996Y-99788065D01*
X150200000Y-99788065D01*
X150200004Y-99788065D01*
X150379249Y-99767869D01*
X150379252Y-99767868D01*
X150379255Y-99767868D01*
X150430330Y-99749996D01*
X162194435Y-99749996D01*
X162194435Y-99750003D01*
X162214630Y-99929249D01*
X162214631Y-99929254D01*
X162274211Y-100099523D01*
X162287546Y-100120745D01*
X162370184Y-100252262D01*
X162497738Y-100379816D01*
X162650478Y-100475789D01*
X162820745Y-100535368D01*
X162820750Y-100535369D01*
X162999996Y-100555565D01*
X163000000Y-100555565D01*
X163000004Y-100555565D01*
X163179249Y-100535369D01*
X163179252Y-100535368D01*
X163179255Y-100535368D01*
X163349522Y-100475789D01*
X163502262Y-100379816D01*
X163629816Y-100252262D01*
X163725789Y-100099522D01*
X163785368Y-99929255D01*
X163785369Y-99929249D01*
X163805565Y-99750003D01*
X163805565Y-99749996D01*
X163785369Y-99570750D01*
X163785368Y-99570745D01*
X163765733Y-99514631D01*
X163725789Y-99400478D01*
X163709480Y-99374523D01*
X163649619Y-99279254D01*
X163629816Y-99247738D01*
X163502262Y-99120184D01*
X163470144Y-99100003D01*
X163349523Y-99024211D01*
X163179254Y-98964631D01*
X163179249Y-98964630D01*
X163000004Y-98944435D01*
X162999996Y-98944435D01*
X162820750Y-98964630D01*
X162820745Y-98964631D01*
X162650476Y-99024211D01*
X162497737Y-99120184D01*
X162370184Y-99247737D01*
X162274211Y-99400476D01*
X162214631Y-99570745D01*
X162214630Y-99570750D01*
X162194435Y-99749996D01*
X150430330Y-99749996D01*
X150549522Y-99708289D01*
X150702262Y-99612316D01*
X150829816Y-99484762D01*
X150925789Y-99332022D01*
X150985368Y-99161755D01*
X150986070Y-99155523D01*
X151005565Y-98982503D01*
X151005565Y-98982496D01*
X150985369Y-98803250D01*
X150985368Y-98803245D01*
X150949240Y-98699997D01*
X150925789Y-98632978D01*
X150829816Y-98480238D01*
X150702262Y-98352684D01*
X150661803Y-98327262D01*
X150549523Y-98256711D01*
X150379254Y-98197131D01*
X150379249Y-98197130D01*
X150200004Y-98176935D01*
X150199996Y-98176935D01*
X150020750Y-98197130D01*
X150020745Y-98197131D01*
X149850476Y-98256711D01*
X149697737Y-98352684D01*
X149570184Y-98480237D01*
X149474211Y-98632976D01*
X149414631Y-98803245D01*
X149414630Y-98803250D01*
X149394435Y-98982496D01*
X140311742Y-98982496D01*
X140347868Y-98879255D01*
X140351644Y-98845745D01*
X140368065Y-98700003D01*
X140368065Y-98699997D01*
X140361444Y-98641241D01*
X140357076Y-98602470D01*
X140369130Y-98533649D01*
X140416479Y-98482270D01*
X140484089Y-98464645D01*
X140494173Y-98465366D01*
X140530537Y-98469463D01*
X140562498Y-98473065D01*
X140562500Y-98473065D01*
X140562504Y-98473065D01*
X140741749Y-98452869D01*
X140741752Y-98452868D01*
X140741755Y-98452868D01*
X140912022Y-98393289D01*
X141064762Y-98297316D01*
X141192316Y-98169762D01*
X141288289Y-98017022D01*
X141347868Y-97846755D01*
X141349322Y-97833851D01*
X141368065Y-97667503D01*
X141368065Y-97667496D01*
X141347869Y-97488250D01*
X141347868Y-97488245D01*
X141343400Y-97475476D01*
X141288289Y-97317978D01*
X141192316Y-97165238D01*
X141064762Y-97037684D01*
X141035719Y-97019435D01*
X140912023Y-96941711D01*
X140741754Y-96882131D01*
X140741749Y-96882130D01*
X140562504Y-96861935D01*
X140562496Y-96861935D01*
X140383250Y-96882130D01*
X140383245Y-96882131D01*
X140212976Y-96941711D01*
X140060237Y-97037684D01*
X139932684Y-97165237D01*
X139836711Y-97317976D01*
X139777131Y-97488245D01*
X139777130Y-97488250D01*
X139756935Y-97667496D01*
X139756935Y-97667503D01*
X139767923Y-97765029D01*
X139755868Y-97833851D01*
X139708519Y-97885230D01*
X139640909Y-97902854D01*
X139630820Y-97902132D01*
X139562504Y-97894435D01*
X139562496Y-97894435D01*
X139383250Y-97914630D01*
X139383245Y-97914631D01*
X139212976Y-97974211D01*
X139060237Y-98070184D01*
X138932684Y-98197737D01*
X138836711Y-98350476D01*
X138777131Y-98520745D01*
X138777130Y-98520750D01*
X138756935Y-98699996D01*
X132694069Y-98699996D01*
X132629816Y-98597738D01*
X132502262Y-98470184D01*
X132477804Y-98454816D01*
X132349523Y-98374211D01*
X132179254Y-98314631D01*
X132179249Y-98314630D01*
X132000004Y-98294435D01*
X131999996Y-98294435D01*
X131820750Y-98314630D01*
X131820745Y-98314631D01*
X131650476Y-98374211D01*
X131497737Y-98470184D01*
X131370184Y-98597737D01*
X131274211Y-98750476D01*
X131214631Y-98920745D01*
X131214630Y-98920750D01*
X131194435Y-99099996D01*
X129797115Y-99099996D01*
X129805565Y-99025003D01*
X129805565Y-99024996D01*
X129785369Y-98845750D01*
X129785368Y-98845745D01*
X129725788Y-98675475D01*
X129678926Y-98600896D01*
X129659925Y-98533659D01*
X129680292Y-98466824D01*
X129696229Y-98447251D01*
X129816219Y-98327262D01*
X129912192Y-98174522D01*
X129971771Y-98004255D01*
X129971772Y-98004249D01*
X129991968Y-97825003D01*
X129991968Y-97824996D01*
X129971772Y-97645750D01*
X129971771Y-97645745D01*
X129946740Y-97574211D01*
X129912192Y-97475478D01*
X129816219Y-97322738D01*
X129688665Y-97195184D01*
X129535926Y-97099211D01*
X129365657Y-97039631D01*
X129365652Y-97039630D01*
X129186407Y-97019435D01*
X129186399Y-97019435D01*
X129007153Y-97039630D01*
X129007148Y-97039631D01*
X128836879Y-97099211D01*
X128684140Y-97195184D01*
X128556587Y-97322737D01*
X128460614Y-97475476D01*
X128401034Y-97645745D01*
X128401033Y-97645750D01*
X128380838Y-97824996D01*
X128380838Y-97825003D01*
X128401033Y-98004249D01*
X128401034Y-98004254D01*
X128460614Y-98174523D01*
X128507477Y-98249104D01*
X128526477Y-98316340D01*
X128506109Y-98383176D01*
X128490165Y-98402757D01*
X128370183Y-98522739D01*
X128274211Y-98675476D01*
X128214631Y-98845745D01*
X128214630Y-98845750D01*
X128194435Y-99024996D01*
X127771462Y-99024996D01*
X127785368Y-98985255D01*
X127785678Y-98982503D01*
X127805565Y-98806003D01*
X127805565Y-98805996D01*
X127785369Y-98626750D01*
X127785368Y-98626745D01*
X127748277Y-98520745D01*
X127725789Y-98456478D01*
X127723521Y-98452869D01*
X127659183Y-98350476D01*
X127629816Y-98303738D01*
X127502262Y-98176184D01*
X127499617Y-98174522D01*
X127349523Y-98080211D01*
X127179254Y-98020631D01*
X127179249Y-98020630D01*
X127000004Y-98000435D01*
X126999996Y-98000435D01*
X126820750Y-98020630D01*
X126820745Y-98020631D01*
X126650476Y-98080211D01*
X126497737Y-98176184D01*
X126370184Y-98303737D01*
X126274211Y-98456476D01*
X126214631Y-98626745D01*
X126214630Y-98626750D01*
X126194435Y-98805996D01*
X123826082Y-98805996D01*
X123829816Y-98802262D01*
X123925789Y-98649522D01*
X123985368Y-98479255D01*
X123985369Y-98479249D01*
X124005565Y-98300003D01*
X124005565Y-98299996D01*
X123985369Y-98120750D01*
X123985368Y-98120745D01*
X123925789Y-97950478D01*
X123903265Y-97914632D01*
X123849707Y-97829394D01*
X123829816Y-97797738D01*
X123702262Y-97670184D01*
X123663368Y-97645745D01*
X123549523Y-97574211D01*
X123379254Y-97514631D01*
X123379249Y-97514630D01*
X123200004Y-97494435D01*
X123199996Y-97494435D01*
X123020750Y-97514630D01*
X123020745Y-97514631D01*
X122850476Y-97574211D01*
X122697737Y-97670184D01*
X122570184Y-97797737D01*
X122474211Y-97950476D01*
X122414631Y-98120745D01*
X122414630Y-98120750D01*
X122394435Y-98299996D01*
X86966631Y-98299996D01*
X87004671Y-97817260D01*
X87005038Y-97813390D01*
X87010382Y-97765029D01*
X87143220Y-96562882D01*
X87143707Y-96559035D01*
X87147931Y-96529376D01*
X87294536Y-95499996D01*
X150494435Y-95499996D01*
X150494435Y-95500003D01*
X150514630Y-95679249D01*
X150514631Y-95679254D01*
X150574211Y-95849523D01*
X150670184Y-96002262D01*
X150797738Y-96129816D01*
X150950478Y-96225789D01*
X151120745Y-96285368D01*
X151120750Y-96285369D01*
X151299996Y-96305565D01*
X151300000Y-96305565D01*
X151300004Y-96305565D01*
X151479249Y-96285369D01*
X151479252Y-96285368D01*
X151479255Y-96285368D01*
X151649522Y-96225789D01*
X151802262Y-96129816D01*
X151929816Y-96002262D01*
X152025789Y-95849522D01*
X152085368Y-95679255D01*
X152105565Y-95500000D01*
X152092649Y-95385369D01*
X152085369Y-95320750D01*
X152085368Y-95320745D01*
X152064723Y-95261745D01*
X152025789Y-95150478D01*
X151929816Y-94997738D01*
X151802262Y-94870184D01*
X151649523Y-94774211D01*
X151479254Y-94714631D01*
X151479249Y-94714630D01*
X151300004Y-94694435D01*
X151299996Y-94694435D01*
X151120750Y-94714630D01*
X151120745Y-94714631D01*
X150950476Y-94774211D01*
X150797737Y-94870184D01*
X150670184Y-94997737D01*
X150574211Y-95150476D01*
X150514631Y-95320745D01*
X150514630Y-95320750D01*
X150494435Y-95499996D01*
X87294536Y-95499996D01*
X87321095Y-95313515D01*
X87321700Y-95309695D01*
X87330074Y-95261745D01*
X87445632Y-94599996D01*
X131494435Y-94599996D01*
X131494435Y-94600003D01*
X131514630Y-94779249D01*
X131514631Y-94779254D01*
X131574211Y-94949523D01*
X131604507Y-94997738D01*
X131670184Y-95102262D01*
X131797738Y-95229816D01*
X131848553Y-95261745D01*
X131950092Y-95325547D01*
X131950478Y-95325789D01*
X132120745Y-95385368D01*
X132120750Y-95385369D01*
X132299996Y-95405565D01*
X132300000Y-95405565D01*
X132300004Y-95405565D01*
X132479249Y-95385369D01*
X132479252Y-95385368D01*
X132479255Y-95385368D01*
X132649522Y-95325789D01*
X132802262Y-95229816D01*
X132929816Y-95102262D01*
X133025789Y-94949522D01*
X133085368Y-94779255D01*
X133085369Y-94779249D01*
X133105565Y-94600003D01*
X133105565Y-94599996D01*
X133085369Y-94420750D01*
X133085368Y-94420745D01*
X133025788Y-94250476D01*
X132929815Y-94097737D01*
X132802262Y-93970184D01*
X132649523Y-93874211D01*
X132479254Y-93814631D01*
X132479249Y-93814630D01*
X132300004Y-93794435D01*
X132299996Y-93794435D01*
X132120750Y-93814630D01*
X132120745Y-93814631D01*
X131950476Y-93874211D01*
X131797737Y-93970184D01*
X131670184Y-94097737D01*
X131574211Y-94250476D01*
X131514631Y-94420745D01*
X131514630Y-94420750D01*
X131494435Y-94599996D01*
X87445632Y-94599996D01*
X87538132Y-94070295D01*
X87538861Y-94066485D01*
X87552587Y-94000238D01*
X87794109Y-92834525D01*
X87794934Y-92830833D01*
X88042517Y-91799996D01*
X121394435Y-91799996D01*
X121394435Y-91800003D01*
X121414630Y-91979249D01*
X121414631Y-91979254D01*
X121474211Y-92149523D01*
X121570184Y-92302262D01*
X121697738Y-92429816D01*
X121850478Y-92525789D01*
X122020745Y-92585368D01*
X122020750Y-92585369D01*
X122199996Y-92605565D01*
X122200000Y-92605565D01*
X122200004Y-92605565D01*
X122379249Y-92585369D01*
X122379252Y-92585368D01*
X122379255Y-92585368D01*
X122549522Y-92525789D01*
X122702262Y-92429816D01*
X122829816Y-92302262D01*
X122925789Y-92149522D01*
X122985368Y-91979255D01*
X123005565Y-91800000D01*
X122985368Y-91620745D01*
X122925789Y-91450478D01*
X122829816Y-91297738D01*
X122702262Y-91170184D01*
X122549523Y-91074211D01*
X122379254Y-91014631D01*
X122379249Y-91014630D01*
X122200004Y-90994435D01*
X122199996Y-90994435D01*
X122020750Y-91014630D01*
X122020745Y-91014631D01*
X121850476Y-91074211D01*
X121697737Y-91170184D01*
X121570184Y-91297737D01*
X121474211Y-91450476D01*
X121414631Y-91620745D01*
X121414630Y-91620750D01*
X121394435Y-91799996D01*
X88042517Y-91799996D01*
X88088761Y-91607454D01*
X88089725Y-91603705D01*
X88116583Y-91505565D01*
X88337040Y-90699996D01*
X92694435Y-90699996D01*
X92694435Y-90700003D01*
X92714630Y-90879249D01*
X92714631Y-90879254D01*
X92774211Y-91049523D01*
X92789724Y-91074211D01*
X92870184Y-91202262D01*
X92997738Y-91329816D01*
X93150478Y-91425789D01*
X93320745Y-91485368D01*
X93320750Y-91485369D01*
X93499996Y-91505565D01*
X93500000Y-91505565D01*
X93500004Y-91505565D01*
X93679249Y-91485369D01*
X93679252Y-91485368D01*
X93679255Y-91485368D01*
X93849522Y-91425789D01*
X94002262Y-91329816D01*
X94129816Y-91202262D01*
X94225789Y-91049522D01*
X94285368Y-90879255D01*
X94305565Y-90700000D01*
X94285368Y-90520745D01*
X94225789Y-90350478D01*
X94129816Y-90197738D01*
X94002262Y-90070184D01*
X93849523Y-89974211D01*
X93679254Y-89914631D01*
X93679249Y-89914630D01*
X93500004Y-89894435D01*
X93499996Y-89894435D01*
X93320750Y-89914630D01*
X93320745Y-89914631D01*
X93150476Y-89974211D01*
X92997737Y-90070184D01*
X92870184Y-90197737D01*
X92774211Y-90350476D01*
X92714631Y-90520745D01*
X92714630Y-90520750D01*
X92694435Y-90699996D01*
X88337040Y-90699996D01*
X88421830Y-90390167D01*
X88422878Y-90386561D01*
X88792950Y-89184010D01*
X88794134Y-89180368D01*
X88924402Y-88799996D01*
X125894435Y-88799996D01*
X125894435Y-88800003D01*
X125914630Y-88979249D01*
X125914631Y-88979254D01*
X125974211Y-89149523D01*
X126002013Y-89193769D01*
X126070184Y-89302262D01*
X126197738Y-89429816D01*
X126350478Y-89525789D01*
X126520745Y-89585368D01*
X126520750Y-89585369D01*
X126699996Y-89605565D01*
X126700000Y-89605565D01*
X126700004Y-89605565D01*
X126879249Y-89585369D01*
X126879252Y-89585368D01*
X126879255Y-89585368D01*
X127049522Y-89525789D01*
X127202262Y-89429816D01*
X127329816Y-89302262D01*
X127425789Y-89149522D01*
X127485368Y-88979255D01*
X127505565Y-88800000D01*
X127492649Y-88685369D01*
X127485369Y-88620750D01*
X127485368Y-88620745D01*
X127425789Y-88450478D01*
X127329816Y-88297738D01*
X127202262Y-88170184D01*
X127049523Y-88074211D01*
X126879254Y-88014631D01*
X126879249Y-88014630D01*
X126700004Y-87994435D01*
X126699996Y-87994435D01*
X126520750Y-88014630D01*
X126520745Y-88014631D01*
X126350476Y-88074211D01*
X126197737Y-88170184D01*
X126070184Y-88297737D01*
X125974211Y-88450476D01*
X125914631Y-88620745D01*
X125914630Y-88620750D01*
X125894435Y-88799996D01*
X88924402Y-88799996D01*
X89201778Y-87990078D01*
X89203076Y-87986474D01*
X89235762Y-87899996D01*
X136194435Y-87899996D01*
X136194435Y-87900003D01*
X136214630Y-88079249D01*
X136214631Y-88079254D01*
X136274211Y-88249523D01*
X136354994Y-88378087D01*
X136370184Y-88402262D01*
X136497738Y-88529816D01*
X136588080Y-88586582D01*
X136642450Y-88620745D01*
X136650478Y-88625789D01*
X136820745Y-88685368D01*
X136820750Y-88685369D01*
X136999996Y-88705565D01*
X137000000Y-88705565D01*
X137000004Y-88705565D01*
X137179249Y-88685369D01*
X137179252Y-88685368D01*
X137179255Y-88685368D01*
X137349522Y-88625789D01*
X137502262Y-88529816D01*
X137629816Y-88402262D01*
X137645007Y-88378084D01*
X137697339Y-88331796D01*
X137766393Y-88321146D01*
X137830242Y-88349521D01*
X137854990Y-88378082D01*
X137870184Y-88402262D01*
X137997738Y-88529816D01*
X138088080Y-88586582D01*
X138142450Y-88620745D01*
X138150478Y-88625789D01*
X138320745Y-88685368D01*
X138320750Y-88685369D01*
X138499996Y-88705565D01*
X138500000Y-88705565D01*
X138500004Y-88705565D01*
X138679249Y-88685369D01*
X138679252Y-88685368D01*
X138679255Y-88685368D01*
X138849522Y-88625789D01*
X139002262Y-88529816D01*
X139129816Y-88402262D01*
X139145007Y-88378084D01*
X139197339Y-88331796D01*
X139266393Y-88321146D01*
X139330242Y-88349521D01*
X139354990Y-88378082D01*
X139370184Y-88402262D01*
X139497738Y-88529816D01*
X139588080Y-88586582D01*
X139642450Y-88620745D01*
X139650478Y-88625789D01*
X139820745Y-88685368D01*
X139820750Y-88685369D01*
X139999996Y-88705565D01*
X140000000Y-88705565D01*
X140000004Y-88705565D01*
X140179249Y-88685369D01*
X140179252Y-88685368D01*
X140179255Y-88685368D01*
X140349522Y-88625789D01*
X140502262Y-88529816D01*
X140629816Y-88402262D01*
X140725789Y-88249522D01*
X140785368Y-88079255D01*
X140785369Y-88079249D01*
X140805565Y-87900003D01*
X140805565Y-87899996D01*
X143694435Y-87899996D01*
X143694435Y-87900003D01*
X143714630Y-88079249D01*
X143714631Y-88079254D01*
X143774211Y-88249523D01*
X143854994Y-88378087D01*
X143870184Y-88402262D01*
X143997738Y-88529816D01*
X144088080Y-88586582D01*
X144142450Y-88620745D01*
X144150478Y-88625789D01*
X144320745Y-88685368D01*
X144320750Y-88685369D01*
X144499996Y-88705565D01*
X144500000Y-88705565D01*
X144500004Y-88705565D01*
X144679249Y-88685369D01*
X144679252Y-88685368D01*
X144679255Y-88685368D01*
X144849522Y-88625789D01*
X145002262Y-88529816D01*
X145129816Y-88402262D01*
X145145007Y-88378084D01*
X145197339Y-88331796D01*
X145266393Y-88321146D01*
X145330242Y-88349521D01*
X145354990Y-88378082D01*
X145370184Y-88402262D01*
X145497738Y-88529816D01*
X145588080Y-88586582D01*
X145642450Y-88620745D01*
X145650478Y-88625789D01*
X145820745Y-88685368D01*
X145820750Y-88685369D01*
X145999996Y-88705565D01*
X146000000Y-88705565D01*
X146000004Y-88705565D01*
X146179249Y-88685369D01*
X146179252Y-88685368D01*
X146179255Y-88685368D01*
X146349522Y-88625789D01*
X146502262Y-88529816D01*
X146629816Y-88402262D01*
X146645007Y-88378084D01*
X146697339Y-88331796D01*
X146766393Y-88321146D01*
X146830242Y-88349521D01*
X146854990Y-88378082D01*
X146870184Y-88402262D01*
X146997738Y-88529816D01*
X147088080Y-88586582D01*
X147142450Y-88620745D01*
X147150478Y-88625789D01*
X147320745Y-88685368D01*
X147320750Y-88685369D01*
X147499996Y-88705565D01*
X147500000Y-88705565D01*
X147500004Y-88705565D01*
X147679249Y-88685369D01*
X147679252Y-88685368D01*
X147679255Y-88685368D01*
X147849522Y-88625789D01*
X148002262Y-88529816D01*
X148129816Y-88402262D01*
X148145007Y-88378084D01*
X148197339Y-88331796D01*
X148266393Y-88321146D01*
X148330242Y-88349521D01*
X148354990Y-88378082D01*
X148370184Y-88402262D01*
X148497738Y-88529816D01*
X148588080Y-88586582D01*
X148642450Y-88620745D01*
X148650478Y-88625789D01*
X148820745Y-88685368D01*
X148820750Y-88685369D01*
X148999996Y-88705565D01*
X149000000Y-88705565D01*
X149000004Y-88705565D01*
X149179249Y-88685369D01*
X149179252Y-88685368D01*
X149179255Y-88685368D01*
X149349522Y-88625789D01*
X149502262Y-88529816D01*
X149629816Y-88402262D01*
X149725789Y-88249522D01*
X149785368Y-88079255D01*
X149785369Y-88079249D01*
X149805565Y-87900003D01*
X149805565Y-87899996D01*
X149785369Y-87720750D01*
X149785368Y-87720745D01*
X149725788Y-87550476D01*
X149629815Y-87397737D01*
X149502262Y-87270184D01*
X149349523Y-87174211D01*
X149179254Y-87114631D01*
X149179249Y-87114630D01*
X149000004Y-87094435D01*
X148999996Y-87094435D01*
X148820750Y-87114630D01*
X148820745Y-87114631D01*
X148650476Y-87174211D01*
X148497737Y-87270184D01*
X148370184Y-87397737D01*
X148354994Y-87421913D01*
X148302659Y-87468204D01*
X148233605Y-87478852D01*
X148169757Y-87450477D01*
X148145006Y-87421913D01*
X148129815Y-87397737D01*
X148002262Y-87270184D01*
X147849523Y-87174211D01*
X147679254Y-87114631D01*
X147679249Y-87114630D01*
X147500004Y-87094435D01*
X147499996Y-87094435D01*
X147320750Y-87114630D01*
X147320745Y-87114631D01*
X147150476Y-87174211D01*
X146997737Y-87270184D01*
X146870184Y-87397737D01*
X146854994Y-87421913D01*
X146802659Y-87468204D01*
X146733605Y-87478852D01*
X146669757Y-87450477D01*
X146645006Y-87421913D01*
X146629815Y-87397737D01*
X146502262Y-87270184D01*
X146349523Y-87174211D01*
X146179254Y-87114631D01*
X146179249Y-87114630D01*
X146000004Y-87094435D01*
X145999996Y-87094435D01*
X145820750Y-87114630D01*
X145820745Y-87114631D01*
X145650476Y-87174211D01*
X145497737Y-87270184D01*
X145370184Y-87397737D01*
X145354994Y-87421913D01*
X145302659Y-87468204D01*
X145233605Y-87478852D01*
X145169757Y-87450477D01*
X145145006Y-87421913D01*
X145129815Y-87397737D01*
X145002262Y-87270184D01*
X144849523Y-87174211D01*
X144679254Y-87114631D01*
X144679249Y-87114630D01*
X144500004Y-87094435D01*
X144499996Y-87094435D01*
X144320750Y-87114630D01*
X144320745Y-87114631D01*
X144150476Y-87174211D01*
X143997737Y-87270184D01*
X143870184Y-87397737D01*
X143774211Y-87550476D01*
X143714631Y-87720745D01*
X143714630Y-87720750D01*
X143694435Y-87899996D01*
X140805565Y-87899996D01*
X140785369Y-87720750D01*
X140785368Y-87720745D01*
X140725788Y-87550476D01*
X140629815Y-87397737D01*
X140502262Y-87270184D01*
X140349523Y-87174211D01*
X140179254Y-87114631D01*
X140179249Y-87114630D01*
X140000004Y-87094435D01*
X139999996Y-87094435D01*
X139820750Y-87114630D01*
X139820745Y-87114631D01*
X139650476Y-87174211D01*
X139497737Y-87270184D01*
X139370184Y-87397737D01*
X139354994Y-87421913D01*
X139302659Y-87468204D01*
X139233605Y-87478852D01*
X139169757Y-87450477D01*
X139145006Y-87421913D01*
X139129815Y-87397737D01*
X139002262Y-87270184D01*
X138849523Y-87174211D01*
X138679254Y-87114631D01*
X138679249Y-87114630D01*
X138500004Y-87094435D01*
X138499996Y-87094435D01*
X138320750Y-87114630D01*
X138320745Y-87114631D01*
X138150476Y-87174211D01*
X137997737Y-87270184D01*
X137870184Y-87397737D01*
X137854994Y-87421913D01*
X137802659Y-87468204D01*
X137733605Y-87478852D01*
X137669757Y-87450477D01*
X137645006Y-87421913D01*
X137629815Y-87397737D01*
X137502262Y-87270184D01*
X137349523Y-87174211D01*
X137179254Y-87114631D01*
X137179249Y-87114630D01*
X137000004Y-87094435D01*
X136999996Y-87094435D01*
X136820750Y-87114630D01*
X136820745Y-87114631D01*
X136650476Y-87174211D01*
X136497737Y-87270184D01*
X136370184Y-87397737D01*
X136274211Y-87550476D01*
X136214631Y-87720745D01*
X136214630Y-87720750D01*
X136194435Y-87899996D01*
X89235762Y-87899996D01*
X89647915Y-86809557D01*
X89649297Y-86806066D01*
X90107556Y-85699996D01*
X134294435Y-85699996D01*
X134294435Y-85700003D01*
X134314630Y-85879249D01*
X134314631Y-85879254D01*
X134374211Y-86049523D01*
X134470184Y-86202262D01*
X134597738Y-86329816D01*
X134750478Y-86425789D01*
X134920745Y-86485368D01*
X134920750Y-86485369D01*
X135099996Y-86505565D01*
X135100000Y-86505565D01*
X135100004Y-86505565D01*
X135279249Y-86485369D01*
X135279252Y-86485368D01*
X135279255Y-86485368D01*
X135449522Y-86425789D01*
X135602262Y-86329816D01*
X135729816Y-86202262D01*
X135825789Y-86049522D01*
X135860615Y-85949996D01*
X158894435Y-85949996D01*
X158894435Y-85950003D01*
X158914630Y-86129249D01*
X158914631Y-86129254D01*
X158974211Y-86299523D01*
X159053549Y-86425788D01*
X159070184Y-86452262D01*
X159197738Y-86579816D01*
X159350478Y-86675789D01*
X159520745Y-86735368D01*
X159520750Y-86735369D01*
X159699996Y-86755565D01*
X159700000Y-86755565D01*
X159700004Y-86755565D01*
X159879249Y-86735369D01*
X159879252Y-86735368D01*
X159879255Y-86735368D01*
X160049522Y-86675789D01*
X160202262Y-86579816D01*
X160329816Y-86452262D01*
X160425789Y-86299522D01*
X160485368Y-86129255D01*
X160505565Y-85950000D01*
X160497593Y-85879249D01*
X160485369Y-85770750D01*
X160485368Y-85770745D01*
X160425788Y-85600476D01*
X160386582Y-85538080D01*
X160329816Y-85447738D01*
X160202262Y-85320184D01*
X160049523Y-85224211D01*
X159879254Y-85164631D01*
X159879249Y-85164630D01*
X159700004Y-85144435D01*
X159699996Y-85144435D01*
X159520750Y-85164630D01*
X159520745Y-85164631D01*
X159350476Y-85224211D01*
X159197737Y-85320184D01*
X159070184Y-85447737D01*
X158974211Y-85600476D01*
X158914631Y-85770745D01*
X158914630Y-85770750D01*
X158894435Y-85949996D01*
X135860615Y-85949996D01*
X135885368Y-85879255D01*
X135885369Y-85879249D01*
X135905565Y-85700003D01*
X135905565Y-85699996D01*
X135885369Y-85520750D01*
X135885368Y-85520745D01*
X135825788Y-85350476D01*
X135729815Y-85197737D01*
X135602262Y-85070184D01*
X135449523Y-84974211D01*
X135279254Y-84914631D01*
X135279249Y-84914630D01*
X135100004Y-84894435D01*
X135099996Y-84894435D01*
X134920750Y-84914630D01*
X134920745Y-84914631D01*
X134750476Y-84974211D01*
X134597737Y-85070184D01*
X134470184Y-85197737D01*
X134374211Y-85350476D01*
X134314631Y-85520745D01*
X134314630Y-85520750D01*
X134294435Y-85699996D01*
X90107556Y-85699996D01*
X90130903Y-85643646D01*
X90132401Y-85640187D01*
X90650269Y-84493493D01*
X90651878Y-84490075D01*
X91205499Y-83360230D01*
X91207260Y-83356778D01*
X91446212Y-82905565D01*
X91796050Y-82244966D01*
X91797916Y-82241574D01*
X91878686Y-82099996D01*
X123794435Y-82099996D01*
X123794435Y-82100003D01*
X123814630Y-82279249D01*
X123814631Y-82279254D01*
X123874211Y-82449523D01*
X123970184Y-82602262D01*
X124097738Y-82729816D01*
X124250478Y-82825789D01*
X124420745Y-82885368D01*
X124420750Y-82885369D01*
X124599996Y-82905565D01*
X124600000Y-82905565D01*
X124600004Y-82905565D01*
X124779249Y-82885369D01*
X124779252Y-82885368D01*
X124779255Y-82885368D01*
X124949522Y-82825789D01*
X125102262Y-82729816D01*
X125229816Y-82602262D01*
X125325789Y-82449522D01*
X125385368Y-82279255D01*
X125388029Y-82255641D01*
X125405565Y-82100003D01*
X125405565Y-82099996D01*
X125385369Y-81920750D01*
X125385368Y-81920745D01*
X125325788Y-81750476D01*
X125229815Y-81597737D01*
X125102262Y-81470184D01*
X124949523Y-81374211D01*
X124779254Y-81314631D01*
X124779249Y-81314630D01*
X124600004Y-81294435D01*
X124599996Y-81294435D01*
X124420750Y-81314630D01*
X124420745Y-81314631D01*
X124250476Y-81374211D01*
X124097737Y-81470184D01*
X123970184Y-81597737D01*
X123874211Y-81750476D01*
X123814631Y-81920745D01*
X123814630Y-81920750D01*
X123794435Y-82099996D01*
X91878686Y-82099996D01*
X92421343Y-81148793D01*
X92423306Y-81145473D01*
X92818924Y-80499996D01*
X142494435Y-80499996D01*
X142494435Y-80500003D01*
X142514630Y-80679249D01*
X142514631Y-80679254D01*
X142574211Y-80849523D01*
X142670184Y-81002262D01*
X142797738Y-81129816D01*
X142950478Y-81225789D01*
X143120745Y-81285368D01*
X143120750Y-81285369D01*
X143299996Y-81305565D01*
X143300000Y-81305565D01*
X143300004Y-81305565D01*
X143479249Y-81285369D01*
X143479252Y-81285368D01*
X143479255Y-81285368D01*
X143649522Y-81225789D01*
X143802262Y-81129816D01*
X143929816Y-81002262D01*
X144025789Y-80849522D01*
X144085368Y-80679255D01*
X144105565Y-80500000D01*
X144085368Y-80320745D01*
X144025789Y-80150478D01*
X143929816Y-79997738D01*
X143802262Y-79870184D01*
X143738017Y-79829816D01*
X143649523Y-79774211D01*
X143479254Y-79714631D01*
X143479249Y-79714630D01*
X143300004Y-79694435D01*
X143299996Y-79694435D01*
X143120750Y-79714630D01*
X143120745Y-79714631D01*
X142950476Y-79774211D01*
X142797737Y-79870184D01*
X142670184Y-79997737D01*
X142574211Y-80150476D01*
X142514631Y-80320745D01*
X142514630Y-80320750D01*
X142494435Y-80499996D01*
X92818924Y-80499996D01*
X93080778Y-80072765D01*
X93082806Y-80069568D01*
X93654104Y-79199996D01*
X99694435Y-79199996D01*
X99694435Y-79200003D01*
X99714630Y-79379249D01*
X99714631Y-79379254D01*
X99774211Y-79549523D01*
X99855724Y-79679249D01*
X99870184Y-79702262D01*
X99997738Y-79829816D01*
X100150478Y-79925789D01*
X100320745Y-79985368D01*
X100320750Y-79985369D01*
X100499996Y-80005565D01*
X100500000Y-80005565D01*
X100500004Y-80005565D01*
X100679249Y-79985369D01*
X100679252Y-79985368D01*
X100679255Y-79985368D01*
X100849522Y-79925789D01*
X101002262Y-79829816D01*
X101129816Y-79702262D01*
X101225789Y-79549522D01*
X101243119Y-79499996D01*
X135194435Y-79499996D01*
X135194435Y-79500003D01*
X135214630Y-79679249D01*
X135214631Y-79679254D01*
X135274211Y-79849523D01*
X135359569Y-79985368D01*
X135370184Y-80002262D01*
X135497738Y-80129816D01*
X135650478Y-80225789D01*
X135820745Y-80285368D01*
X135820750Y-80285369D01*
X135999996Y-80305565D01*
X136000000Y-80305565D01*
X136000004Y-80305565D01*
X136179249Y-80285369D01*
X136179252Y-80285368D01*
X136179255Y-80285368D01*
X136349522Y-80225789D01*
X136502262Y-80129816D01*
X136629816Y-80002262D01*
X136725789Y-79849522D01*
X136785368Y-79679255D01*
X136799985Y-79549523D01*
X136805565Y-79500003D01*
X136805565Y-79499996D01*
X136785369Y-79320750D01*
X136785368Y-79320745D01*
X136725789Y-79150478D01*
X136629816Y-78997738D01*
X136502262Y-78870184D01*
X136470897Y-78850476D01*
X136349523Y-78774211D01*
X136179254Y-78714631D01*
X136179249Y-78714630D01*
X136000004Y-78694435D01*
X135999996Y-78694435D01*
X135820750Y-78714630D01*
X135820745Y-78714631D01*
X135650476Y-78774211D01*
X135497737Y-78870184D01*
X135370184Y-78997737D01*
X135274211Y-79150476D01*
X135214631Y-79320745D01*
X135214630Y-79320750D01*
X135194435Y-79499996D01*
X101243119Y-79499996D01*
X101285368Y-79379255D01*
X101291960Y-79320750D01*
X101305565Y-79200003D01*
X101305565Y-79199996D01*
X101285369Y-79020750D01*
X101285368Y-79020745D01*
X101283289Y-79014803D01*
X101225789Y-78850478D01*
X101129816Y-78697738D01*
X101002262Y-78570184D01*
X100849523Y-78474211D01*
X100679254Y-78414631D01*
X100679249Y-78414630D01*
X100500004Y-78394435D01*
X100499996Y-78394435D01*
X100320750Y-78414630D01*
X100320745Y-78414631D01*
X100150476Y-78474211D01*
X99997737Y-78570184D01*
X99870184Y-78697737D01*
X99774211Y-78850476D01*
X99714631Y-79020745D01*
X99714630Y-79020750D01*
X99694435Y-79199996D01*
X93654104Y-79199996D01*
X93773694Y-79017968D01*
X93775808Y-79014859D01*
X94499344Y-77985537D01*
X94501621Y-77982406D01*
X94744887Y-77658456D01*
X95257101Y-76976356D01*
X95259408Y-76973380D01*
X96046180Y-75991475D01*
X96048596Y-75988555D01*
X96865788Y-75031885D01*
X96868351Y-75028980D01*
X96894722Y-75000003D01*
X96894728Y-74999996D01*
X148694435Y-74999996D01*
X148694435Y-75000003D01*
X148714630Y-75179249D01*
X148714631Y-75179254D01*
X148774211Y-75349523D01*
X148870184Y-75502262D01*
X148997738Y-75629816D01*
X149150478Y-75725789D01*
X149320745Y-75785368D01*
X149320750Y-75785369D01*
X149499996Y-75805565D01*
X149500000Y-75805565D01*
X149500004Y-75805565D01*
X149679249Y-75785369D01*
X149679252Y-75785368D01*
X149679255Y-75785368D01*
X149849522Y-75725789D01*
X150002262Y-75629816D01*
X150129816Y-75502262D01*
X150225789Y-75349522D01*
X150285368Y-75179255D01*
X150285369Y-75179249D01*
X150305565Y-75000003D01*
X150305565Y-74999996D01*
X150285369Y-74820750D01*
X150285368Y-74820745D01*
X150225788Y-74650476D01*
X150129815Y-74497737D01*
X150002262Y-74370184D01*
X149849523Y-74274211D01*
X149679254Y-74214631D01*
X149679249Y-74214630D01*
X149500004Y-74194435D01*
X149499996Y-74194435D01*
X149320750Y-74214630D01*
X149320745Y-74214631D01*
X149150476Y-74274211D01*
X148997737Y-74370184D01*
X148870184Y-74497737D01*
X148774211Y-74650476D01*
X148714631Y-74820745D01*
X148714630Y-74820750D01*
X148694435Y-74999996D01*
X96894728Y-74999996D01*
X97715147Y-74098493D01*
X97717744Y-74095727D01*
X98593404Y-73192240D01*
X98596110Y-73189535D01*
X99499658Y-72314053D01*
X99502442Y-72311438D01*
X100433120Y-71464698D01*
X100435969Y-71462187D01*
X100742995Y-71199996D01*
X111094435Y-71199996D01*
X111094435Y-71200003D01*
X111114630Y-71379249D01*
X111114631Y-71379254D01*
X111174211Y-71549523D01*
X111270184Y-71702262D01*
X111397738Y-71829816D01*
X111550478Y-71925789D01*
X111720745Y-71985368D01*
X111720750Y-71985369D01*
X111899996Y-72005565D01*
X111900000Y-72005565D01*
X111900004Y-72005565D01*
X112079249Y-71985369D01*
X112079252Y-71985368D01*
X112079255Y-71985368D01*
X112249522Y-71925789D01*
X112402262Y-71829816D01*
X112529816Y-71702262D01*
X112625789Y-71549522D01*
X112685368Y-71379255D01*
X112705565Y-71200000D01*
X112685368Y-71020745D01*
X112625789Y-70850478D01*
X112529816Y-70697738D01*
X112402262Y-70570184D01*
X112249523Y-70474211D01*
X112079254Y-70414631D01*
X112079249Y-70414630D01*
X111900004Y-70394435D01*
X111899996Y-70394435D01*
X111720750Y-70414630D01*
X111720745Y-70414631D01*
X111550476Y-70474211D01*
X111397737Y-70570184D01*
X111270184Y-70697737D01*
X111174211Y-70850476D01*
X111114631Y-71020745D01*
X111114630Y-71020750D01*
X111094435Y-71199996D01*
X100742995Y-71199996D01*
X101392738Y-70645136D01*
X101395693Y-70642692D01*
X102377634Y-69856110D01*
X102380697Y-69853735D01*
X103386822Y-69098411D01*
X103389921Y-69096159D01*
X104419349Y-68372756D01*
X104422527Y-68370597D01*
X105291295Y-67799996D01*
X136794435Y-67799996D01*
X136794435Y-67800003D01*
X136814630Y-67979249D01*
X136814631Y-67979254D01*
X136874211Y-68149523D01*
X136970184Y-68302262D01*
X137097738Y-68429816D01*
X137250478Y-68525789D01*
X137420745Y-68585368D01*
X137420750Y-68585369D01*
X137599996Y-68605565D01*
X137600000Y-68605565D01*
X137600004Y-68605565D01*
X137779249Y-68585369D01*
X137779252Y-68585368D01*
X137779255Y-68585368D01*
X137949522Y-68525789D01*
X138102262Y-68429816D01*
X138229816Y-68302262D01*
X138325789Y-68149522D01*
X138385368Y-67979255D01*
X138405565Y-67800000D01*
X138392654Y-67685413D01*
X138385369Y-67620750D01*
X138385368Y-67620745D01*
X138325788Y-67450476D01*
X138229815Y-67297737D01*
X138102262Y-67170184D01*
X137949523Y-67074211D01*
X137779254Y-67014631D01*
X137779249Y-67014630D01*
X137600004Y-66994435D01*
X137599996Y-66994435D01*
X137420750Y-67014630D01*
X137420745Y-67014631D01*
X137250476Y-67074211D01*
X137097737Y-67170184D01*
X136970184Y-67297737D01*
X136874211Y-67450476D01*
X136814631Y-67620745D01*
X136814630Y-67620750D01*
X136794435Y-67799996D01*
X105291295Y-67799996D01*
X105474145Y-67679901D01*
X105477352Y-67677866D01*
X106550172Y-67020525D01*
X106553429Y-67018599D01*
X107646400Y-66395260D01*
X107649719Y-66393437D01*
X108204004Y-66099996D01*
X121294435Y-66099996D01*
X121294435Y-66100003D01*
X121314630Y-66279249D01*
X121314631Y-66279254D01*
X121374211Y-66449523D01*
X121455724Y-66579249D01*
X121470184Y-66602262D01*
X121597738Y-66729816D01*
X121750478Y-66825789D01*
X121920745Y-66885368D01*
X121920750Y-66885369D01*
X122099996Y-66905565D01*
X122100000Y-66905565D01*
X122100004Y-66905565D01*
X122279249Y-66885369D01*
X122279252Y-66885368D01*
X122279255Y-66885368D01*
X122449522Y-66825789D01*
X122602262Y-66729816D01*
X122729816Y-66602262D01*
X122825789Y-66449522D01*
X122885368Y-66279255D01*
X122891960Y-66220750D01*
X122905565Y-66100003D01*
X122905565Y-66099996D01*
X122885369Y-65920750D01*
X122885368Y-65920745D01*
X122825789Y-65750478D01*
X122729816Y-65597738D01*
X122602262Y-65470184D01*
X122449523Y-65374211D01*
X122279254Y-65314631D01*
X122279249Y-65314630D01*
X122100004Y-65294435D01*
X122099996Y-65294435D01*
X121920750Y-65314630D01*
X121920745Y-65314631D01*
X121750476Y-65374211D01*
X121597737Y-65470184D01*
X121470184Y-65597737D01*
X121374211Y-65750476D01*
X121314631Y-65920745D01*
X121314630Y-65920750D01*
X121294435Y-66099996D01*
X108204004Y-66099996D01*
X108761676Y-65804762D01*
X108765071Y-65803033D01*
X109894961Y-65249579D01*
X109898429Y-65247947D01*
X111045192Y-64730234D01*
X111048677Y-64728727D01*
X112211055Y-64247323D01*
X112214670Y-64245892D01*
X113130188Y-63899996D01*
X124494435Y-63899996D01*
X124494435Y-63900003D01*
X124514630Y-64079249D01*
X124514631Y-64079254D01*
X124574211Y-64249523D01*
X124575197Y-64251092D01*
X124670184Y-64402262D01*
X124797738Y-64529816D01*
X124950478Y-64625789D01*
X125067410Y-64666705D01*
X125124186Y-64707427D01*
X125149934Y-64772379D01*
X125136478Y-64840941D01*
X125088091Y-64891344D01*
X125067412Y-64900788D01*
X125000479Y-64924209D01*
X124847737Y-65020184D01*
X124720184Y-65147737D01*
X124624211Y-65300476D01*
X124564631Y-65470745D01*
X124564630Y-65470750D01*
X124544435Y-65649996D01*
X124544435Y-65650003D01*
X124564630Y-65829249D01*
X124564631Y-65829254D01*
X124624211Y-65999523D01*
X124687347Y-66100003D01*
X124720184Y-66152262D01*
X124847738Y-66279816D01*
X125000478Y-66375789D01*
X125107284Y-66413162D01*
X125170745Y-66435368D01*
X125170750Y-66435369D01*
X125349996Y-66455565D01*
X125350000Y-66455565D01*
X125350004Y-66455565D01*
X125529249Y-66435369D01*
X125529252Y-66435368D01*
X125529255Y-66435368D01*
X125630342Y-66399996D01*
X131194435Y-66399996D01*
X131194435Y-66400003D01*
X131214630Y-66579249D01*
X131214631Y-66579254D01*
X131274211Y-66749523D01*
X131359569Y-66885368D01*
X131370184Y-66902262D01*
X131497738Y-67029816D01*
X131650478Y-67125789D01*
X131777352Y-67170184D01*
X131820745Y-67185368D01*
X131820750Y-67185369D01*
X131999996Y-67205565D01*
X132000000Y-67205565D01*
X132000004Y-67205565D01*
X132179249Y-67185369D01*
X132179252Y-67185368D01*
X132179255Y-67185368D01*
X132349522Y-67125789D01*
X132502262Y-67029816D01*
X132629816Y-66902262D01*
X132725789Y-66749522D01*
X132785368Y-66579255D01*
X132785369Y-66579249D01*
X132805565Y-66400003D01*
X132805565Y-66399996D01*
X132785369Y-66220750D01*
X132785368Y-66220745D01*
X132761405Y-66152262D01*
X132725789Y-66050478D01*
X132629816Y-65897738D01*
X132502262Y-65770184D01*
X132470897Y-65750476D01*
X132349523Y-65674211D01*
X132179254Y-65614631D01*
X132179249Y-65614630D01*
X132000004Y-65594435D01*
X131999996Y-65594435D01*
X131820750Y-65614630D01*
X131820745Y-65614631D01*
X131650476Y-65674211D01*
X131497737Y-65770184D01*
X131370184Y-65897737D01*
X131274211Y-66050476D01*
X131214631Y-66220745D01*
X131214630Y-66220750D01*
X131194435Y-66399996D01*
X125630342Y-66399996D01*
X125699522Y-66375789D01*
X125852262Y-66279816D01*
X125979816Y-66152262D01*
X126075789Y-65999522D01*
X126135368Y-65829255D01*
X126135369Y-65829249D01*
X126155565Y-65650003D01*
X126155565Y-65649996D01*
X126135369Y-65470750D01*
X126135368Y-65470745D01*
X126101589Y-65374211D01*
X126075789Y-65300478D01*
X126046553Y-65253950D01*
X125979815Y-65147737D01*
X125852262Y-65020184D01*
X125699523Y-64924211D01*
X125582588Y-64883294D01*
X125525812Y-64842572D01*
X125500065Y-64777619D01*
X125513521Y-64709057D01*
X125561908Y-64658655D01*
X125582589Y-64649210D01*
X125600758Y-64642852D01*
X125649522Y-64625789D01*
X125802262Y-64529816D01*
X125929816Y-64402262D01*
X126025789Y-64249522D01*
X126085368Y-64079255D01*
X126085369Y-64079249D01*
X126105565Y-63900003D01*
X126105565Y-63899996D01*
X126085369Y-63720750D01*
X126085368Y-63720745D01*
X126025788Y-63550476D01*
X125929815Y-63397737D01*
X125802262Y-63270184D01*
X125649523Y-63174211D01*
X125479254Y-63114631D01*
X125479249Y-63114630D01*
X125300004Y-63094435D01*
X125299996Y-63094435D01*
X125120750Y-63114630D01*
X125120745Y-63114631D01*
X124950476Y-63174211D01*
X124797737Y-63270184D01*
X124670184Y-63397737D01*
X124574211Y-63550476D01*
X124514631Y-63720745D01*
X124514630Y-63720750D01*
X124494435Y-63899996D01*
X113130188Y-63899996D01*
X113391618Y-63801224D01*
X113395203Y-63799934D01*
X114585541Y-63392452D01*
X114589160Y-63391276D01*
X115791753Y-63021370D01*
X115795400Y-63020310D01*
X117009009Y-62688362D01*
X117012747Y-62687403D01*
X118236117Y-62393753D01*
X118239834Y-62392922D01*
X119418531Y-62148875D01*
X119443672Y-62146301D01*
X119445891Y-62146301D01*
X119445892Y-62146301D01*
X119487413Y-62135174D01*
X119496257Y-62133148D01*
X119538490Y-62125095D01*
X119544673Y-62122105D01*
X119566549Y-62113970D01*
X119573186Y-62112193D01*
X119610421Y-62090694D01*
X119618437Y-62086451D01*
X119657138Y-62067745D01*
X119657138Y-62067744D01*
X119657140Y-62067744D01*
X119662336Y-62063258D01*
X119681372Y-62049731D01*
X119687314Y-62046301D01*
X119717716Y-62015897D01*
X119724368Y-62009718D01*
X119753951Y-61984186D01*
X119756904Y-61981637D01*
X119760767Y-61975951D01*
X119775645Y-61957970D01*
X119777304Y-61956311D01*
X119780500Y-61953115D01*
X119801996Y-61915879D01*
X119806817Y-61908197D01*
X119829268Y-61875165D01*
X119830982Y-61872644D01*
X119833238Y-61866163D01*
X119842960Y-61844930D01*
X119844493Y-61842275D01*
X119846392Y-61838987D01*
X119857521Y-61797448D01*
X119860188Y-61788784D01*
X119874325Y-61748194D01*
X119874326Y-61748192D01*
X119874829Y-61741333D01*
X119878723Y-61718324D01*
X119880500Y-61711693D01*
X119880500Y-61668718D01*
X119880833Y-61659633D01*
X119881058Y-61656558D01*
X119883983Y-61616762D01*
X119883656Y-61615052D01*
X119882695Y-61610004D01*
X119880500Y-61586779D01*
X119880500Y-59299996D01*
X124494435Y-59299996D01*
X124494435Y-59300003D01*
X124514630Y-59479249D01*
X124514631Y-59479254D01*
X124574211Y-59649523D01*
X124670184Y-59802262D01*
X124797738Y-59929816D01*
X124950478Y-60025789D01*
X125120745Y-60085368D01*
X125120750Y-60085369D01*
X125299996Y-60105565D01*
X125300000Y-60105565D01*
X125300004Y-60105565D01*
X125479249Y-60085369D01*
X125479252Y-60085368D01*
X125479255Y-60085368D01*
X125649522Y-60025789D01*
X125802262Y-59929816D01*
X125929816Y-59802262D01*
X126025789Y-59649522D01*
X126085368Y-59479255D01*
X126105565Y-59300000D01*
X126085368Y-59120745D01*
X126025789Y-58950478D01*
X125929816Y-58797738D01*
X125802262Y-58670184D01*
X125649523Y-58574211D01*
X125479254Y-58514631D01*
X125479249Y-58514630D01*
X125300004Y-58494435D01*
X125299996Y-58494435D01*
X125120750Y-58514630D01*
X125120745Y-58514631D01*
X124950476Y-58574211D01*
X124797737Y-58670184D01*
X124670184Y-58797737D01*
X124574211Y-58950476D01*
X124514631Y-59120745D01*
X124514630Y-59120750D01*
X124494435Y-59299996D01*
X119880500Y-59299996D01*
X119880500Y-57499996D01*
X127594435Y-57499996D01*
X127594435Y-57500003D01*
X127614630Y-57679249D01*
X127614631Y-57679254D01*
X127674211Y-57849523D01*
X127770184Y-58002262D01*
X127897738Y-58129816D01*
X128050478Y-58225789D01*
X128220745Y-58285368D01*
X128220750Y-58285369D01*
X128399996Y-58305565D01*
X128400000Y-58305565D01*
X128400004Y-58305565D01*
X128579249Y-58285369D01*
X128579252Y-58285368D01*
X128579255Y-58285368D01*
X128749522Y-58225789D01*
X128902262Y-58129816D01*
X129029816Y-58002262D01*
X129125789Y-57849522D01*
X129185368Y-57679255D01*
X129205565Y-57500000D01*
X129185368Y-57320745D01*
X129125789Y-57150478D01*
X129029816Y-56997738D01*
X129005158Y-56973080D01*
X128971673Y-56911757D01*
X128976657Y-56842065D01*
X129018529Y-56786132D01*
X129083993Y-56761715D01*
X129132388Y-56769559D01*
X129132752Y-56768361D01*
X129138568Y-56770124D01*
X129138579Y-56770129D01*
X129341529Y-56810498D01*
X129341533Y-56810499D01*
X129341534Y-56810499D01*
X129548465Y-56810499D01*
X129548466Y-56810498D01*
X129751419Y-56770129D01*
X129942597Y-56690940D01*
X130114654Y-56575976D01*
X130260976Y-56429654D01*
X130375940Y-56257597D01*
X130455129Y-56066419D01*
X130495499Y-55863464D01*
X130495499Y-55256534D01*
X130455129Y-55053579D01*
X130375940Y-54862401D01*
X130260976Y-54690344D01*
X130260974Y-54690341D01*
X130114656Y-54544023D01*
X129942598Y-54429059D01*
X129942597Y-54429058D01*
X129751419Y-54349869D01*
X129751411Y-54349867D01*
X129548468Y-54309499D01*
X129548464Y-54309499D01*
X129341534Y-54309499D01*
X129341529Y-54309499D01*
X129138586Y-54349867D01*
X129138578Y-54349869D01*
X128947402Y-54429057D01*
X128775341Y-54544023D01*
X128629023Y-54690341D01*
X128514057Y-54862402D01*
X128434869Y-55053578D01*
X128434867Y-55053586D01*
X128394499Y-55256529D01*
X128394499Y-55863468D01*
X128434867Y-56066411D01*
X128434869Y-56066419D01*
X128514057Y-56257595D01*
X128629023Y-56429656D01*
X128710021Y-56510654D01*
X128743506Y-56571977D01*
X128738522Y-56641669D01*
X128696650Y-56697602D01*
X128631186Y-56722019D01*
X128586087Y-56716004D01*
X128586047Y-56716182D01*
X128584119Y-56715742D01*
X128581389Y-56715378D01*
X128579259Y-56714633D01*
X128579249Y-56714630D01*
X128400004Y-56694435D01*
X128399996Y-56694435D01*
X128220750Y-56714630D01*
X128220745Y-56714631D01*
X128050476Y-56774211D01*
X127897737Y-56870184D01*
X127770184Y-56997737D01*
X127674211Y-57150476D01*
X127614631Y-57320745D01*
X127614630Y-57320750D01*
X127594435Y-57499996D01*
X119880500Y-57499996D01*
X119880500Y-55256530D01*
X123554500Y-55256530D01*
X123554500Y-55863469D01*
X123594868Y-56066412D01*
X123594870Y-56066420D01*
X123674058Y-56257596D01*
X123789024Y-56429657D01*
X123935342Y-56575975D01*
X123935345Y-56575977D01*
X124107402Y-56690941D01*
X124298580Y-56770130D01*
X124501525Y-56810498D01*
X124501530Y-56810499D01*
X124501534Y-56810500D01*
X124501535Y-56810500D01*
X124708466Y-56810500D01*
X124708467Y-56810499D01*
X124911420Y-56770130D01*
X125102598Y-56690941D01*
X125274655Y-56575977D01*
X125420977Y-56429655D01*
X125535941Y-56257598D01*
X125615130Y-56066420D01*
X125655500Y-55863465D01*
X125655500Y-55256535D01*
X125615130Y-55053580D01*
X125535941Y-54862402D01*
X125420977Y-54690345D01*
X125420976Y-54690344D01*
X125420975Y-54690342D01*
X125274657Y-54544024D01*
X125188626Y-54486541D01*
X125102598Y-54429059D01*
X125102593Y-54429057D01*
X124911420Y-54349870D01*
X124911412Y-54349868D01*
X124708469Y-54309500D01*
X124708465Y-54309500D01*
X124501535Y-54309500D01*
X124501530Y-54309500D01*
X124298587Y-54349868D01*
X124298579Y-54349870D01*
X124107403Y-54429058D01*
X123935342Y-54544024D01*
X123789024Y-54690342D01*
X123674058Y-54862403D01*
X123594870Y-55053579D01*
X123594868Y-55053587D01*
X123554500Y-55256530D01*
X119880500Y-55256530D01*
X119880500Y-53045205D01*
X119900185Y-52978166D01*
X119952989Y-52932411D01*
X120022147Y-52922467D01*
X120085703Y-52951492D01*
X120123477Y-53010270D01*
X120126973Y-53025807D01*
X120131523Y-53054534D01*
X120194781Y-53249223D01*
X120287715Y-53431613D01*
X120408028Y-53597213D01*
X120552786Y-53741971D01*
X120666215Y-53824380D01*
X120718390Y-53862287D01*
X120834607Y-53921503D01*
X120900776Y-53955218D01*
X120900778Y-53955218D01*
X120900781Y-53955220D01*
X121005137Y-53989127D01*
X121095465Y-54018477D01*
X121196557Y-54034488D01*
X121297648Y-54050500D01*
X121297649Y-54050500D01*
X121502351Y-54050500D01*
X121502352Y-54050500D01*
X121704534Y-54018477D01*
X121899219Y-53955220D01*
X122081610Y-53862287D01*
X122174590Y-53794732D01*
X122247213Y-53741971D01*
X122247215Y-53741968D01*
X122247219Y-53741966D01*
X122391966Y-53597219D01*
X122391968Y-53597215D01*
X122391971Y-53597213D01*
X122462026Y-53500789D01*
X122512287Y-53431610D01*
X122605220Y-53249219D01*
X122668477Y-53054534D01*
X122700500Y-52852352D01*
X122700500Y-52647648D01*
X122672472Y-52470686D01*
X122668477Y-52445465D01*
X122605218Y-52250776D01*
X122571503Y-52184607D01*
X122512287Y-52068390D01*
X122504556Y-52057749D01*
X122391971Y-51902786D01*
X122247213Y-51758028D01*
X122081613Y-51637715D01*
X122081612Y-51637714D01*
X122081610Y-51637713D01*
X121951550Y-51571444D01*
X121899222Y-51544781D01*
X121899219Y-51544780D01*
X121891986Y-51542430D01*
X121834313Y-51502992D01*
X121807115Y-51438634D01*
X121819030Y-51369787D01*
X121866275Y-51318312D01*
X121930307Y-51300500D01*
X123417730Y-51300500D01*
X123484769Y-51320185D01*
G37*
%TD.AperFunction*%
%TD*%
M02*
