%TF.GenerationSoftware,KiCad,Pcbnew,8.0.6*%
%TF.CreationDate,2024-11-26T17:38:28-05:00*%
%TF.ProjectId,Christmas Ornament 2024,43687269-7374-46d6-9173-204f726e616d,rev?*%
%TF.SameCoordinates,Original*%
%TF.FileFunction,Paste,Top*%
%TF.FilePolarity,Positive*%
%FSLAX46Y46*%
G04 Gerber Fmt 4.6, Leading zero omitted, Abs format (unit mm)*
G04 Created by KiCad (PCBNEW 8.0.6) date 2024-11-26 17:38:28*
%MOMM*%
%LPD*%
G01*
G04 APERTURE LIST*
G04 Aperture macros list*
%AMRoundRect*
0 Rectangle with rounded corners*
0 $1 Rounding radius*
0 $2 $3 $4 $5 $6 $7 $8 $9 X,Y pos of 4 corners*
0 Add a 4 corners polygon primitive as box body*
4,1,4,$2,$3,$4,$5,$6,$7,$8,$9,$2,$3,0*
0 Add four circle primitives for the rounded corners*
1,1,$1+$1,$2,$3*
1,1,$1+$1,$4,$5*
1,1,$1+$1,$6,$7*
1,1,$1+$1,$8,$9*
0 Add four rect primitives between the rounded corners*
20,1,$1+$1,$2,$3,$4,$5,0*
20,1,$1+$1,$4,$5,$6,$7,0*
20,1,$1+$1,$6,$7,$8,$9,0*
20,1,$1+$1,$8,$9,$2,$3,0*%
%AMRotRect*
0 Rectangle, with rotation*
0 The origin of the aperture is its center*
0 $1 length*
0 $2 width*
0 $3 Rotation angle, in degrees counterclockwise*
0 Add horizontal line*
21,1,$1,$2,0,0,$3*%
G04 Aperture macros list end*
%ADD10RoundRect,0.155000X-0.155000X0.212500X-0.155000X-0.212500X0.155000X-0.212500X0.155000X0.212500X0*%
%ADD11RoundRect,0.250000X0.088388X-0.548008X0.548008X-0.088388X-0.088388X0.548008X-0.548008X0.088388X0*%
%ADD12RoundRect,0.155000X0.155000X-0.212500X0.155000X0.212500X-0.155000X0.212500X-0.155000X-0.212500X0*%
%ADD13RoundRect,0.250000X0.548008X0.088388X0.088388X0.548008X-0.548008X-0.088388X-0.088388X-0.548008X0*%
%ADD14RoundRect,0.250000X0.450000X-0.350000X0.450000X0.350000X-0.450000X0.350000X-0.450000X-0.350000X0*%
%ADD15RoundRect,0.150000X-0.650000X-0.150000X0.650000X-0.150000X0.650000X0.150000X-0.650000X0.150000X0*%
%ADD16R,0.700000X1.000000*%
%ADD17RoundRect,0.135000X-0.185000X0.135000X-0.185000X-0.135000X0.185000X-0.135000X0.185000X0.135000X0*%
%ADD18RoundRect,0.150000X-0.150000X-0.625000X0.150000X-0.625000X0.150000X0.625000X-0.150000X0.625000X0*%
%ADD19RoundRect,0.250000X-0.350000X-0.650000X0.350000X-0.650000X0.350000X0.650000X-0.350000X0.650000X0*%
%ADD20RoundRect,0.250000X0.549685X-0.151150X0.281807X0.495565X-0.549685X0.151150X-0.281807X-0.495565X0*%
%ADD21RoundRect,0.155000X0.212500X0.155000X-0.212500X0.155000X-0.212500X-0.155000X0.212500X-0.155000X0*%
%ADD22RoundRect,0.135000X0.135000X0.185000X-0.135000X0.185000X-0.135000X-0.185000X0.135000X-0.185000X0*%
%ADD23RoundRect,0.155000X-0.212500X-0.155000X0.212500X-0.155000X0.212500X0.155000X-0.212500X0.155000X0*%
%ADD24RoundRect,0.250000X0.472468X0.291374X-0.128053X0.540118X-0.472468X-0.291374X0.128053X-0.540118X0*%
%ADD25RoundRect,0.100000X0.229810X-0.088388X-0.088388X0.229810X-0.229810X0.088388X0.088388X-0.229810X0*%
%ADD26RotRect,1.000000X0.700000X303.750000*%
%ADD27RoundRect,0.150000X-0.512500X-0.150000X0.512500X-0.150000X0.512500X0.150000X-0.512500X0.150000X0*%
%ADD28RoundRect,0.250000X0.540118X-0.128053X0.291374X0.472468X-0.540118X0.128053X-0.291374X-0.472468X0*%
%ADD29RoundRect,0.250000X0.475000X-0.337500X0.475000X0.337500X-0.475000X0.337500X-0.475000X-0.337500X0*%
%ADD30RoundRect,0.250000X-0.472468X-0.291374X0.128053X-0.540118X0.472468X0.291374X-0.128053X0.540118X0*%
%ADD31RoundRect,0.250000X-0.088388X0.548008X-0.548008X0.088388X0.088388X-0.548008X0.548008X-0.088388X0*%
%ADD32R,0.800000X2.700000*%
%ADD33RoundRect,0.250000X-0.337500X-0.475000X0.337500X-0.475000X0.337500X0.475000X-0.337500X0.475000X0*%
%ADD34RoundRect,0.250000X-0.325000X-0.450000X0.325000X-0.450000X0.325000X0.450000X-0.325000X0.450000X0*%
%ADD35RoundRect,0.250000X-0.565685X-0.070711X-0.070711X-0.565685X0.565685X0.070711X0.070711X0.565685X0*%
%ADD36RoundRect,0.250000X-0.281807X0.495565X-0.549685X-0.151150X0.281807X-0.495565X0.549685X0.151150X0*%
%ADD37RoundRect,0.250000X0.070711X-0.565685X0.565685X-0.070711X-0.070711X0.565685X-0.565685X0.070711X0*%
%ADD38RoundRect,0.160000X-0.160000X0.197500X-0.160000X-0.197500X0.160000X-0.197500X0.160000X0.197500X0*%
%ADD39RoundRect,0.249999X-0.395001X-0.395001X0.395001X-0.395001X0.395001X0.395001X-0.395001X0.395001X0*%
%ADD40RoundRect,0.050000X-0.387500X-0.050000X0.387500X-0.050000X0.387500X0.050000X-0.387500X0.050000X0*%
%ADD41RoundRect,0.050000X-0.050000X-0.387500X0.050000X-0.387500X0.050000X0.387500X-0.050000X0.387500X0*%
%ADD42RoundRect,0.250000X0.128053X0.540118X-0.472468X0.291374X-0.128053X-0.540118X0.472468X-0.291374X0*%
%ADD43RoundRect,0.250000X0.350000X0.450000X-0.350000X0.450000X-0.350000X-0.450000X0.350000X-0.450000X0*%
%ADD44RoundRect,0.250000X-0.128053X-0.540118X0.472468X-0.291374X0.128053X0.540118X-0.472468X0.291374X0*%
%ADD45RoundRect,0.250000X-0.548008X-0.088388X-0.088388X-0.548008X0.548008X0.088388X0.088388X0.548008X0*%
%ADD46RoundRect,0.087500X-0.187500X-0.087500X0.187500X-0.087500X0.187500X0.087500X-0.187500X0.087500X0*%
%ADD47RoundRect,0.087500X-0.087500X-0.187500X0.087500X-0.187500X0.087500X0.187500X-0.087500X0.187500X0*%
%ADD48RoundRect,0.250000X0.450000X-0.325000X0.450000X0.325000X-0.450000X0.325000X-0.450000X-0.325000X0*%
%ADD49R,1.900000X2.400000*%
%ADD50RoundRect,0.250000X-0.350000X-0.450000X0.350000X-0.450000X0.350000X0.450000X-0.350000X0.450000X0*%
%ADD51RoundRect,0.250000X-0.450000X0.325000X-0.450000X-0.325000X0.450000X-0.325000X0.450000X0.325000X0*%
%ADD52RoundRect,0.250000X0.281807X-0.495565X0.549685X0.151150X-0.281807X0.495565X-0.549685X-0.151150X0*%
%ADD53RoundRect,0.250000X-0.495565X-0.281807X0.151150X-0.549685X0.495565X0.281807X-0.151150X0.549685X0*%
%ADD54RoundRect,0.250000X-0.070711X0.565685X-0.565685X0.070711X0.070711X-0.565685X0.565685X-0.070711X0*%
%ADD55RoundRect,0.375000X0.375000X-0.625000X0.375000X0.625000X-0.375000X0.625000X-0.375000X-0.625000X0*%
%ADD56RoundRect,0.500000X1.400000X-0.500000X1.400000X0.500000X-1.400000X0.500000X-1.400000X-0.500000X0*%
%ADD57RoundRect,0.250000X0.291374X-0.472468X0.540118X0.128053X-0.291374X0.472468X-0.540118X-0.128053X0*%
%ADD58RoundRect,0.250000X-0.151150X-0.549685X0.495565X-0.281807X0.151150X0.549685X-0.495565X0.281807X0*%
%ADD59RoundRect,0.250000X-0.540118X0.128053X-0.291374X-0.472468X0.540118X-0.128053X0.291374X0.472468X0*%
%ADD60RoundRect,0.250000X0.565685X0.070711X0.070711X0.565685X-0.565685X-0.070711X-0.070711X-0.565685X0*%
%ADD61RoundRect,0.250000X0.325000X0.450000X-0.325000X0.450000X-0.325000X-0.450000X0.325000X-0.450000X0*%
%ADD62RoundRect,0.225000X-0.225000X-0.250000X0.225000X-0.250000X0.225000X0.250000X-0.225000X0.250000X0*%
%ADD63RoundRect,0.250000X-0.450000X0.350000X-0.450000X-0.350000X0.450000X-0.350000X0.450000X0.350000X0*%
%ADD64R,0.400000X1.650000*%
%ADD65R,1.825000X0.700000*%
%ADD66R,2.000000X1.500000*%
%ADD67R,1.350000X2.000000*%
%ADD68R,1.430000X2.500000*%
%ADD69RoundRect,0.250000X-0.291374X0.472468X-0.540118X-0.128053X0.291374X-0.472468X0.540118X0.128053X0*%
%ADD70RoundRect,0.155000X0.259862X-0.040659X-0.040659X0.259862X-0.259862X0.040659X0.040659X-0.259862X0*%
%ADD71RoundRect,0.250000X0.151150X0.549685X-0.495565X0.281807X-0.151150X-0.549685X0.495565X-0.281807X0*%
%ADD72RoundRect,0.250000X0.495565X0.281807X-0.151150X0.549685X-0.495565X-0.281807X0.151150X-0.549685X0*%
%ADD73RoundRect,0.250000X-0.549685X0.151150X-0.281807X-0.495565X0.549685X-0.151150X0.281807X0.495565X0*%
%ADD74RotRect,1.000000X0.700000X236.250000*%
G04 APERTURE END LIST*
D10*
%TO.C,C13*%
X144500000Y-105567500D03*
X144500000Y-106702500D03*
%TD*%
D11*
%TO.C,D3*%
X102275215Y-78224785D03*
X103724785Y-76775215D03*
%TD*%
D12*
%TO.C,C2*%
X144500000Y-90385000D03*
X144500000Y-89250000D03*
%TD*%
%TO.C,C10*%
X138500000Y-90385000D03*
X138500000Y-89250000D03*
%TD*%
D13*
%TO.C,D6*%
X103474785Y-125974785D03*
X102025215Y-124525215D03*
%TD*%
D14*
%TO.C,R11*%
X95250000Y-102500001D03*
X95250000Y-100499999D03*
%TD*%
D15*
%TO.C,U4*%
X124650000Y-84845000D03*
X124650000Y-86115000D03*
X124650000Y-87385000D03*
X124650000Y-88655000D03*
X131850000Y-88655000D03*
X131850000Y-87385000D03*
X131850000Y-86115000D03*
X131850000Y-84845000D03*
%TD*%
D16*
%TO.C,SW1*%
X129709999Y-63845001D03*
X129709999Y-59345001D03*
X131859999Y-63845001D03*
X131859999Y-59345001D03*
%TD*%
D17*
%TO.C,R3*%
X138520000Y-118790000D03*
X138520000Y-119810000D03*
%TD*%
D18*
%TO.C,J2*%
X147400000Y-114525000D03*
X148400000Y-114525000D03*
X149400000Y-114525000D03*
D19*
X146100000Y-112000000D03*
X150700000Y-112000000D03*
%TD*%
D20*
%TO.C,R13*%
X97882684Y-114423880D03*
X97117316Y-112576120D03*
%TD*%
D21*
%TO.C,C19*%
X124392500Y-97155000D03*
X123257500Y-97155000D03*
%TD*%
D22*
%TO.C,R4*%
X138530000Y-121050000D03*
X137510000Y-121050000D03*
%TD*%
D21*
%TO.C,C9*%
X134567500Y-94567500D03*
X133432500Y-94567500D03*
%TD*%
D23*
%TO.C,C6*%
X147832500Y-99000000D03*
X148967500Y-99000000D03*
%TD*%
D24*
%TO.C,D8*%
X114696977Y-133392251D03*
X112803023Y-132607749D03*
%TD*%
D25*
%TO.C,U6*%
X142042681Y-83041523D03*
X142502298Y-82581903D03*
X142961919Y-82122284D03*
X141618415Y-80778781D03*
X140699177Y-81698020D03*
%TD*%
D26*
%TO.C,SW4*%
X146349583Y-129090066D03*
X148849649Y-132831679D03*
X144561923Y-130284542D03*
X147061990Y-134026156D03*
%TD*%
D27*
%TO.C,U5*%
X134382500Y-117600000D03*
X134382500Y-118550000D03*
X134382500Y-119500000D03*
X136657500Y-119500000D03*
X136657500Y-118550000D03*
X136657500Y-117600000D03*
%TD*%
D28*
%TO.C,D7*%
X95892251Y-115446977D03*
X95107749Y-113553023D03*
%TD*%
D29*
%TO.C,C18*%
X120396000Y-118893500D03*
X120396000Y-116818500D03*
%TD*%
D30*
%TO.C,D16*%
X138803023Y-69607749D03*
X140696977Y-70392251D03*
%TD*%
D31*
%TO.C,D10*%
X151724785Y-125025215D03*
X150275215Y-126474785D03*
%TD*%
D32*
%TO.C,L1*%
X136920000Y-114300000D03*
X134620000Y-114300000D03*
%TD*%
D12*
%TO.C,C12*%
X149000000Y-90385000D03*
X149000000Y-89250000D03*
%TD*%
D33*
%TO.C,C17*%
X135695000Y-125050000D03*
X137770000Y-125050000D03*
%TD*%
D34*
%TO.C,D17*%
X125975000Y-102800000D03*
X128025000Y-102800000D03*
%TD*%
D35*
%TO.C,R18*%
X148644893Y-78286893D03*
X150059107Y-79701107D03*
%TD*%
D36*
%TO.C,R20*%
X156592684Y-112868120D03*
X155827316Y-114715880D03*
%TD*%
D37*
%TO.C,R8*%
X138292892Y-79607107D03*
X139707108Y-78192893D03*
%TD*%
D38*
%TO.C,R2*%
X143000000Y-89220000D03*
X143000000Y-90415000D03*
%TD*%
D39*
%TO.C,U1*%
X139762500Y-96867500D03*
X139762500Y-98467500D03*
X141362500Y-96867500D03*
X141362500Y-98467500D03*
D40*
X137125000Y-95067500D03*
X137125000Y-95467500D03*
X137125000Y-95867500D03*
X137125000Y-96267500D03*
X137125000Y-96667500D03*
X137125000Y-97067500D03*
X137125000Y-97467500D03*
X137125000Y-97867500D03*
X137125000Y-98267500D03*
X137125000Y-98667500D03*
X137125000Y-99067500D03*
X137125000Y-99467500D03*
X137125000Y-99867500D03*
X137125000Y-100267500D03*
D41*
X137962500Y-101105000D03*
X138362500Y-101105000D03*
X138762500Y-101105000D03*
X139162500Y-101105000D03*
X139562500Y-101105000D03*
X139962500Y-101105000D03*
X140362500Y-101105000D03*
X140762500Y-101105000D03*
X141162500Y-101105000D03*
X141562500Y-101105000D03*
X141962500Y-101105000D03*
X142362500Y-101105000D03*
X142762500Y-101105000D03*
X143162500Y-101105000D03*
D40*
X144000000Y-100267500D03*
X144000000Y-99867500D03*
X144000000Y-99467500D03*
X144000000Y-99067500D03*
X144000000Y-98667500D03*
X144000000Y-98267500D03*
X144000000Y-97867500D03*
X144000000Y-97467500D03*
X144000000Y-97067500D03*
X144000000Y-96667500D03*
X144000000Y-96267500D03*
X144000000Y-95867500D03*
X144000000Y-95467500D03*
X144000000Y-95067500D03*
D41*
X143162500Y-94230000D03*
X142762500Y-94230000D03*
X142362500Y-94230000D03*
X141962500Y-94230000D03*
X141562500Y-94230000D03*
X141162500Y-94230000D03*
X140762500Y-94230000D03*
X140362500Y-94230000D03*
X139962500Y-94230000D03*
X139562500Y-94230000D03*
X139162500Y-94230000D03*
X138762500Y-94230000D03*
X138362500Y-94230000D03*
X137962500Y-94230000D03*
%TD*%
D42*
%TO.C,D13*%
X140946977Y-132607749D03*
X139053023Y-133392251D03*
%TD*%
D43*
%TO.C,R23*%
X128000000Y-104902001D03*
X126000000Y-104902001D03*
%TD*%
%TO.C,R24*%
X129900000Y-91700000D03*
X127900000Y-91700000D03*
%TD*%
D44*
%TO.C,D2*%
X113553023Y-70392251D03*
X115446977Y-69607749D03*
%TD*%
D38*
%TO.C,R1*%
X141500000Y-89220000D03*
X141500000Y-90415000D03*
%TD*%
D45*
%TO.C,D12*%
X150275215Y-76775215D03*
X151724785Y-78224785D03*
%TD*%
D46*
%TO.C,U2*%
X125775000Y-97425000D03*
X125775000Y-97925000D03*
X125775000Y-98425000D03*
X125775000Y-98925000D03*
X125775000Y-99425000D03*
D47*
X126500000Y-99650000D03*
X127000000Y-99650000D03*
X127500000Y-99650000D03*
D46*
X128225000Y-99425000D03*
X128225000Y-98925000D03*
X128225000Y-98425000D03*
X128225000Y-97925000D03*
X128225000Y-97425000D03*
D47*
X127500000Y-97200000D03*
X127000000Y-97200000D03*
X126500000Y-97200000D03*
%TD*%
D48*
%TO.C,D5*%
X93000000Y-102525001D03*
X93000000Y-100474999D03*
%TD*%
D34*
%TO.C,D1*%
X125975000Y-67500000D03*
X128025000Y-67500000D03*
%TD*%
D23*
%TO.C,C20*%
X133932500Y-84750000D03*
X135067500Y-84750000D03*
%TD*%
D10*
%TO.C,C14*%
X136000000Y-105567500D03*
X136000000Y-106702500D03*
%TD*%
D49*
%TO.C,Y1*%
X142300000Y-106135000D03*
X138200000Y-106135000D03*
%TD*%
D21*
%TO.C,C8*%
X134267500Y-99100000D03*
X133132500Y-99100000D03*
%TD*%
D50*
%TO.C,R5*%
X125999999Y-69750000D03*
X128000001Y-69750000D03*
%TD*%
D14*
%TO.C,R6*%
X122250000Y-84750000D03*
X122250000Y-82750000D03*
%TD*%
D34*
%TO.C,D18*%
X123775000Y-91700000D03*
X125825000Y-91700000D03*
%TD*%
D51*
%TO.C,D11*%
X161000000Y-100724999D03*
X161000000Y-102775001D03*
%TD*%
D33*
%TO.C,C16*%
X135695000Y-122800000D03*
X137770000Y-122800000D03*
%TD*%
D52*
%TO.C,R10*%
X97407316Y-90331880D03*
X98172684Y-88484120D03*
%TD*%
D43*
%TO.C,R15*%
X128000001Y-133350000D03*
X125999999Y-133350000D03*
%TD*%
D29*
%TO.C,C3*%
X110236000Y-118893500D03*
X110236000Y-116818500D03*
%TD*%
D53*
%TO.C,R22*%
X137760120Y-71753317D03*
X139607880Y-72518683D03*
%TD*%
D54*
%TO.C,R16*%
X150059107Y-123498893D03*
X148644893Y-124913107D03*
%TD*%
D55*
%TO.C,U3*%
X113016000Y-118466000D03*
X115316000Y-118466001D03*
D56*
X115316000Y-112165999D03*
D55*
X117616000Y-118466001D03*
%TD*%
D57*
%TO.C,D4*%
X95107749Y-89446977D03*
X95892251Y-87553023D03*
%TD*%
D37*
%TO.C,R9*%
X103940893Y-79955107D03*
X105355107Y-78540893D03*
%TD*%
D58*
%TO.C,R7*%
X114392120Y-72518683D03*
X116239880Y-71753317D03*
%TD*%
D12*
%TO.C,C4*%
X146000000Y-90385000D03*
X146000000Y-89250000D03*
%TD*%
D59*
%TO.C,D15*%
X157857749Y-87553023D03*
X158642251Y-89446977D03*
%TD*%
D12*
%TO.C,C1*%
X140000000Y-90385000D03*
X140000000Y-89250000D03*
%TD*%
D33*
%TO.C,C15*%
X138732500Y-115050000D03*
X140807500Y-115050000D03*
%TD*%
D60*
%TO.C,R12*%
X105101107Y-124405107D03*
X103686893Y-122990893D03*
%TD*%
D61*
%TO.C,D9*%
X128025001Y-135500000D03*
X125974999Y-135500000D03*
%TD*%
D62*
%TO.C,C21*%
X148475000Y-95500000D03*
X150025000Y-95500000D03*
%TD*%
D63*
%TO.C,R17*%
X158750000Y-100749999D03*
X158750000Y-102750001D03*
%TD*%
D64*
%TO.C,J1*%
X128325000Y-55440000D03*
X127675000Y-55440000D03*
X127025000Y-55439999D03*
X126374999Y-55440001D03*
X125725000Y-55440000D03*
D65*
X129975000Y-54240000D03*
D66*
X129874999Y-55539999D03*
D67*
X129754999Y-53490000D03*
D68*
X127985000Y-52290000D03*
X126065000Y-52290000D03*
D67*
X124275000Y-53490000D03*
D66*
X124125000Y-55560000D03*
D65*
X124025000Y-54240000D03*
%TD*%
D12*
%TO.C,C5*%
X147500000Y-90385000D03*
X147500000Y-89250000D03*
%TD*%
D10*
%TO.C,C7*%
X146000000Y-105567500D03*
X146000000Y-106702500D03*
%TD*%
D69*
%TO.C,D14*%
X158642251Y-113803023D03*
X157857749Y-115696977D03*
%TD*%
D70*
%TO.C,C22*%
X137501283Y-81101283D03*
X136698717Y-80298717D03*
%TD*%
D16*
%TO.C,SW2*%
X122089999Y-63845001D03*
X122089999Y-59345001D03*
X124239999Y-63845001D03*
X124239999Y-59345001D03*
%TD*%
D71*
%TO.C,R19*%
X140115880Y-130427316D03*
X138268120Y-131192684D03*
%TD*%
D12*
%TO.C,C11*%
X137000000Y-90385000D03*
X137000000Y-89250000D03*
%TD*%
D72*
%TO.C,R14*%
X115673880Y-131192684D03*
X113826120Y-130427316D03*
%TD*%
D73*
%TO.C,R21*%
X155827316Y-88484120D03*
X156592684Y-90331880D03*
%TD*%
D74*
%TO.C,SW3*%
X109098650Y-130058319D03*
X106598584Y-133799932D03*
X107310990Y-128863843D03*
X104810923Y-132605458D03*
%TD*%
M02*
