%TF.GenerationSoftware,KiCad,Pcbnew,8.0.6*%
%TF.CreationDate,2024-11-25T23:57:48-05:00*%
%TF.ProjectId,Christmas Ornament 2024,43687269-7374-46d6-9173-204f726e616d,rev?*%
%TF.SameCoordinates,Original*%
%TF.FileFunction,Drillmap*%
%TF.FilePolarity,Positive*%
%FSLAX45Y45*%
G04 Gerber Fmt 4.5, Leading zero omitted, Abs format (unit mm)*
G04 Created by KiCad (PCBNEW 8.0.6) date 2024-11-25 23:57:48*
%MOMM*%
%LPD*%
G01*
G04 APERTURE LIST*
%ADD10C,0.254000*%
%ADD11C,0.200000*%
G04 APERTURE END LIST*
D10*
X13462129Y-5179871D02*
X13463405Y-6164848D01*
X13362129Y-5080000D02*
G75*
G02*
X13462130Y-5179871I1J-100000D01*
G01*
X11938000Y-5180000D02*
G75*
G02*
X12038000Y-5080000I100000J0D01*
G01*
X11938000Y-6164580D02*
X11938000Y-5180000D01*
X13463405Y-6164848D02*
G75*
G02*
X11938000Y-6164580I-763405J-3995152D01*
G01*
X12038000Y-5080000D02*
X13362129Y-5080000D01*
D11*
X8880642Y-14551618D02*
X8880642Y-14351618D01*
X8880642Y-14351618D02*
X8928261Y-14351618D01*
X8928261Y-14351618D02*
X8956833Y-14361142D01*
X8956833Y-14361142D02*
X8975880Y-14380190D01*
X8975880Y-14380190D02*
X8985404Y-14399237D01*
X8985404Y-14399237D02*
X8994928Y-14437332D01*
X8994928Y-14437332D02*
X8994928Y-14465904D01*
X8994928Y-14465904D02*
X8985404Y-14503999D01*
X8985404Y-14503999D02*
X8975880Y-14523047D01*
X8975880Y-14523047D02*
X8956833Y-14542094D01*
X8956833Y-14542094D02*
X8928261Y-14551618D01*
X8928261Y-14551618D02*
X8880642Y-14551618D01*
X9080642Y-14551618D02*
X9080642Y-14418285D01*
X9080642Y-14456380D02*
X9090166Y-14437332D01*
X9090166Y-14437332D02*
X9099690Y-14427809D01*
X9099690Y-14427809D02*
X9118737Y-14418285D01*
X9118737Y-14418285D02*
X9137785Y-14418285D01*
X9204452Y-14551618D02*
X9204452Y-14418285D01*
X9204452Y-14351618D02*
X9194928Y-14361142D01*
X9194928Y-14361142D02*
X9204452Y-14370666D01*
X9204452Y-14370666D02*
X9213976Y-14361142D01*
X9213976Y-14361142D02*
X9204452Y-14351618D01*
X9204452Y-14351618D02*
X9204452Y-14370666D01*
X9328261Y-14551618D02*
X9309214Y-14542094D01*
X9309214Y-14542094D02*
X9299690Y-14523047D01*
X9299690Y-14523047D02*
X9299690Y-14351618D01*
X9433023Y-14551618D02*
X9413976Y-14542094D01*
X9413976Y-14542094D02*
X9404452Y-14523047D01*
X9404452Y-14523047D02*
X9404452Y-14351618D01*
X9661595Y-14551618D02*
X9661595Y-14351618D01*
X9661595Y-14351618D02*
X9728261Y-14494475D01*
X9728261Y-14494475D02*
X9794928Y-14351618D01*
X9794928Y-14351618D02*
X9794928Y-14551618D01*
X9975880Y-14551618D02*
X9975880Y-14446856D01*
X9975880Y-14446856D02*
X9966357Y-14427809D01*
X9966357Y-14427809D02*
X9947309Y-14418285D01*
X9947309Y-14418285D02*
X9909214Y-14418285D01*
X9909214Y-14418285D02*
X9890166Y-14427809D01*
X9975880Y-14542094D02*
X9956833Y-14551618D01*
X9956833Y-14551618D02*
X9909214Y-14551618D01*
X9909214Y-14551618D02*
X9890166Y-14542094D01*
X9890166Y-14542094D02*
X9880642Y-14523047D01*
X9880642Y-14523047D02*
X9880642Y-14503999D01*
X9880642Y-14503999D02*
X9890166Y-14484951D01*
X9890166Y-14484951D02*
X9909214Y-14475428D01*
X9909214Y-14475428D02*
X9956833Y-14475428D01*
X9956833Y-14475428D02*
X9975880Y-14465904D01*
X10071118Y-14418285D02*
X10071118Y-14618285D01*
X10071118Y-14427809D02*
X10090166Y-14418285D01*
X10090166Y-14418285D02*
X10128261Y-14418285D01*
X10128261Y-14418285D02*
X10147309Y-14427809D01*
X10147309Y-14427809D02*
X10156833Y-14437332D01*
X10156833Y-14437332D02*
X10166357Y-14456380D01*
X10166357Y-14456380D02*
X10166357Y-14513523D01*
X10166357Y-14513523D02*
X10156833Y-14532570D01*
X10156833Y-14532570D02*
X10147309Y-14542094D01*
X10147309Y-14542094D02*
X10128261Y-14551618D01*
X10128261Y-14551618D02*
X10090166Y-14551618D01*
X10090166Y-14551618D02*
X10071118Y-14542094D01*
X10252071Y-14532570D02*
X10261595Y-14542094D01*
X10261595Y-14542094D02*
X10252071Y-14551618D01*
X10252071Y-14551618D02*
X10242547Y-14542094D01*
X10242547Y-14542094D02*
X10252071Y-14532570D01*
X10252071Y-14532570D02*
X10252071Y-14551618D01*
X10252071Y-14427809D02*
X10261595Y-14437332D01*
X10261595Y-14437332D02*
X10252071Y-14446856D01*
X10252071Y-14446856D02*
X10242547Y-14437332D01*
X10242547Y-14437332D02*
X10252071Y-14427809D01*
X10252071Y-14427809D02*
X10252071Y-14446856D01*
M02*
