%TF.GenerationSoftware,KiCad,Pcbnew,8.0.6*%
%TF.CreationDate,2024-11-25T23:57:44-05:00*%
%TF.ProjectId,Christmas Ornament 2024,43687269-7374-46d6-9173-204f726e616d,rev?*%
%TF.SameCoordinates,Original*%
%TF.FileFunction,Copper,L4,Bot*%
%TF.FilePolarity,Positive*%
%FSLAX46Y46*%
G04 Gerber Fmt 4.6, Leading zero omitted, Abs format (unit mm)*
G04 Created by KiCad (PCBNEW 8.0.6) date 2024-11-25 23:57:44*
%MOMM*%
%LPD*%
G01*
G04 APERTURE LIST*
G04 Aperture macros list*
%AMFreePoly0*
4,1,19,0.500000,-0.750000,0.000000,-0.750000,0.000000,-0.744911,-0.071157,-0.744911,-0.207708,-0.704816,-0.327430,-0.627875,-0.420627,-0.520320,-0.479746,-0.390866,-0.500000,-0.250000,-0.500000,0.250000,-0.479746,0.390866,-0.420627,0.520320,-0.327430,0.627875,-0.207708,0.704816,-0.071157,0.744911,0.000000,0.744911,0.000000,0.750000,0.500000,0.750000,0.500000,-0.750000,0.500000,-0.750000,
$1*%
%AMFreePoly1*
4,1,19,0.000000,0.744911,0.071157,0.744911,0.207708,0.704816,0.327430,0.627875,0.420627,0.520320,0.479746,0.390866,0.500000,0.250000,0.500000,-0.250000,0.479746,-0.390866,0.420627,-0.520320,0.327430,-0.627875,0.207708,-0.704816,0.071157,-0.744911,0.000000,-0.744911,0.000000,-0.750000,-0.500000,-0.750000,-0.500000,0.750000,0.000000,0.750000,0.000000,0.744911,0.000000,0.744911,
$1*%
G04 Aperture macros list end*
%TA.AperFunction,ComponentPad*%
%ADD10R,1.700000X1.700000*%
%TD*%
%TA.AperFunction,ComponentPad*%
%ADD11O,1.700000X1.700000*%
%TD*%
%TA.AperFunction,ComponentPad*%
%ADD12O,1.350000X1.700000*%
%TD*%
%TA.AperFunction,ComponentPad*%
%ADD13O,1.100000X1.500000*%
%TD*%
%TA.AperFunction,SMDPad,CuDef*%
%ADD14FreePoly0,180.000000*%
%TD*%
%TA.AperFunction,SMDPad,CuDef*%
%ADD15FreePoly1,180.000000*%
%TD*%
%TA.AperFunction,ViaPad*%
%ADD16C,0.600000*%
%TD*%
%TA.AperFunction,Conductor*%
%ADD17C,0.200000*%
%TD*%
G04 APERTURE END LIST*
D10*
%TO.P,J4,1,Pin_1*%
%TO.N,+5C*%
X128270000Y-120904000D03*
D11*
%TO.P,J4,2,Pin_2*%
%TO.N,+5ish*%
X128270000Y-123444000D03*
%TO.P,J4,3,Pin_3*%
%TO.N,+5V*%
X128270000Y-125984000D03*
%TD*%
D10*
%TO.P,J5,1,Pin_1*%
%TO.N,+BATT*%
X143020000Y-118760000D03*
D11*
%TO.P,J5,2,Pin_2*%
%TO.N,unconnected-(J5-Pin_2-Pad2)*%
X143020000Y-121300000D03*
%TO.P,J5,3,Pin_3*%
%TO.N,GND*%
X143020000Y-123840000D03*
%TD*%
D12*
%TO.P,J1,6,Shield*%
%TO.N,GND*%
X129755000Y-52560000D03*
D13*
X129444999Y-55559999D03*
X124605000Y-55560000D03*
D12*
X124295000Y-52560000D03*
%TD*%
D14*
%TO.P,JP1,1,A*%
%TO.N,GND*%
X131460000Y-101854000D03*
D15*
%TO.P,JP1,2,B*%
%TO.N,Net-(JP1-B)*%
X130160000Y-101854000D03*
%TD*%
D16*
%TO.N,+3V3*%
X114500000Y-113700000D03*
X134000000Y-83600000D03*
X116100000Y-113700000D03*
X146600000Y-109600000D03*
X122300000Y-81100000D03*
X124206000Y-98298000D03*
X140800000Y-87900000D03*
X146800000Y-87400000D03*
X138900000Y-76200000D03*
X128700000Y-59300000D03*
X114600000Y-110700000D03*
X148200000Y-87400000D03*
X145300000Y-87400000D03*
X115900000Y-110700000D03*
X128700000Y-63800000D03*
X128036549Y-100663451D03*
X149000000Y-100000000D03*
X135500000Y-94100000D03*
X135300000Y-99100000D03*
%TO.N,GND*%
X124300000Y-67100000D03*
X116300000Y-134500000D03*
X140562500Y-97667500D03*
X136000000Y-108200000D03*
X143000000Y-132000000D03*
X149000000Y-87900000D03*
X92100000Y-104200000D03*
X129000000Y-99025000D03*
X129700000Y-134800000D03*
X132300000Y-94600000D03*
X130700000Y-103500000D03*
X150200000Y-98982500D03*
X129186403Y-97825000D03*
X143300000Y-80500000D03*
X124300000Y-102800000D03*
X104600000Y-128100000D03*
X138500000Y-87900000D03*
X120396000Y-115062000D03*
X132000000Y-99100000D03*
X139562500Y-98700000D03*
X95600000Y-117500000D03*
X140000000Y-87900000D03*
X135100000Y-85700000D03*
X125200000Y-100300000D03*
X136000000Y-79500000D03*
X125300000Y-59300000D03*
X151300000Y-95500000D03*
X147500000Y-87900000D03*
X144500000Y-108100000D03*
X139300000Y-102600000D03*
X104000000Y-130800000D03*
X146000000Y-108100000D03*
X159400000Y-112200000D03*
X111900000Y-71200000D03*
X125300000Y-63900000D03*
X149500000Y-75000000D03*
X144500000Y-87900000D03*
X137600000Y-67800000D03*
X93500000Y-90700000D03*
X123200000Y-98300000D03*
X122200000Y-91800000D03*
X100500000Y-79200000D03*
X161100000Y-98600000D03*
X157300000Y-85700000D03*
X146000000Y-87900000D03*
X153500000Y-124000000D03*
X110236000Y-115062000D03*
X113030000Y-116332000D03*
X137000000Y-87900000D03*
X126700000Y-88800000D03*
X145900000Y-134900000D03*
X148450000Y-116550000D03*
%TO.N,+BATT*%
X131200000Y-119200000D03*
%TO.N,+5V*%
X128400000Y-57500000D03*
%TO.N,Net-(JP1-B)*%
X127000000Y-98806000D03*
%TO.N,QSPI SS*%
X122100000Y-66100000D03*
X124600000Y-82100000D03*
%TO.N,Net-(SW1-A)*%
X142900000Y-102800000D03*
X132000000Y-66400000D03*
%TD*%
D17*
%TO.N,GND*%
X131460000Y-102740000D02*
X130700000Y-103500000D01*
X131460000Y-101854000D02*
X131460000Y-102740000D01*
%TO.N,+BATT*%
X132500000Y-112300000D02*
X131600000Y-113200000D01*
X143020000Y-118760000D02*
X143020000Y-113320000D01*
X142000000Y-112300000D02*
X132500000Y-112300000D01*
X131600000Y-113200000D02*
X131600000Y-118800000D01*
X143020000Y-113320000D02*
X142000000Y-112300000D01*
X131600000Y-118800000D02*
X131200000Y-119200000D01*
%TO.N,+5V*%
X121900000Y-57500000D02*
X120996000Y-58404000D01*
X120996000Y-58404000D02*
X120996000Y-118710000D01*
X128400000Y-57500000D02*
X121900000Y-57500000D01*
X120996000Y-118710000D02*
X128270000Y-125984000D01*
%TO.N,Net-(JP1-B)*%
X127112000Y-98806000D02*
X127000000Y-98806000D01*
X130160000Y-101854000D02*
X127112000Y-98806000D01*
%TO.N,QSPI SS*%
X122100000Y-79600000D02*
X124600000Y-82100000D01*
X122100000Y-66100000D02*
X122100000Y-79600000D01*
%TO.N,Net-(SW1-A)*%
X132500000Y-66900000D02*
X132000000Y-66400000D01*
X142900000Y-102800000D02*
X142813971Y-102800000D01*
X132500000Y-92486029D02*
X132500000Y-83700000D01*
X142813971Y-102800000D02*
X132500000Y-92486029D01*
X132500000Y-83700000D02*
X132500000Y-66900000D01*
%TD*%
M02*
